<svg width="1440" height="552" viewBox="0 0 1440 552" fill="none" xmlns="http://www.w3.org/2000/svg">
<path d="M-31.8919 478.158C-37.2115 473.43 -39.2321 478.499 -39.2321 468.697C-39.2321 466.366 -58.6575 449.418 -51.792 446.187C-49.7369 445.22 -45.9469 449.664 -46.0829 449.287C-47.1341 446.367 -49.4891 444.033 -50.6502 441.131C-52.8681 435.586 -52.5285 429.119 -53.1785 423.27C-53.6201 419.295 -54.6972 407.622 -48.7744 406.306C-45.1241 405.494 -47.8132 403.814 -49.5084 401.82C-54.5553 395.882 -49.4051 384.659 -51.792 381.838C-56.5911 376.167 -56.8486 367.953 -56.8486 360.878C-56.8486 359.129 -57.0172 357.205 -56.033 355.658C-55.3674 354.612 -52.5424 354.483 -53.0969 353.375C-53.2756 353.017 -56.3828 351.72 -56.8486 351.254C-59.6119 348.491 -61.7089 344.971 -64.1888 341.956C-67.0667 338.458 -73.6755 330.641 -70.7134 325.563C-69.0609 322.73 -67.0334 325.41 -69.327 323.117C-72.7344 319.709 -71.6259 312.552 -71.529 308.191C-71.4772 305.858 -68.6507 299.097 -68.9192 299.057C-77.7975 297.742 -86.5824 288.989 -87.5144 280.135C-88.2496 273.151 -87.597 265.579 -83.3549 259.746C-82.8258 259.018 -80.5375 256.074 -78.536 255.119C-80.8093 253.934 -83.8736 251.847 -84.7414 250.285C-87.3247 245.635 -91.4445 235.48 -88.33 230.14C-88.1855 229.893 -87.8647 229.652 -87.4324 229.432C-93.8283 227.003 -102.519 221.842 -103.01 221.414C-106.744 218.161 -116.621 202.322 -112.77 196.676C-118.848 188.26 -118.399 174.22 -111.275 174.99C-111.259 173.977 -111.163 172.989 -111.003 172.071C-110.397 168.585 -108.893 167.185 -107.089 167.111C-106.818 165.421 -105.968 164.236 -104.315 164.079C-100.739 163.738 -93.8098 163.843 -90.7767 166.118C-88.7029 167.673 -92.2883 161.035 -92.0816 158.451C-91.6419 152.954 -81.4803 161.453 -80.3373 162.529C-75.2694 167.299 -70.3463 163.997 -63.2101 163.997C-57.0682 163.997 -50.8246 163.679 -44.6965 164.16C-43.7072 164.238 -37.0778 166.513 -38.7427 165.873C-41.5103 164.808 -46.3504 157.043 -46.5723 154.047C-47.138 146.41 -39.611 144.402 -36.2295 146.165C-36.2439 145.943 -36.2404 145.763 -36.2144 145.646C-35.2413 141.267 -29.8611 145.219 -26.6617 148.154C-26.4064 147.861 -26.1026 147.63 -25.7655 147.446C-25.8801 146.022 -25.7586 144.922 -25.2041 145.239C-24.4322 145.68 -23.8298 146.197 -23.3716 146.761C-21.6992 146.521 -20.0035 146.51 -19.3319 145.646C-15.6438 140.905 -13.5833 148.086 -12.9784 150.902C-13.166 149.707 -13.4914 147.392 -13.9491 143.444C-14.9023 135.224 -14.1135 131.899 -5.14087 131.7C-1.91673 131.628 5.45123 129.718 6.21325 133.68C6.15535 130.114 6.1125 122.099 6.3588 118.651C6.73758 113.348 8.37007 114.056 11.0076 116.693C13.2773 118.963 10.6814 110.279 10.6814 107.07C10.6814 101.005 10.6945 100.008 16.7982 97.8535L16.8443 97.8373C19.9561 96.7389 27.4739 94.0854 31.9862 95.321C32.4805 94.9951 33.2143 94.9028 34.2516 95.1621C40.4066 96.7009 41.5895 101.775 42.9783 107.07C43.5215 109.141 44.5325 118.882 45.0988 118.488C53.0669 112.945 69.1455 112.201 77.6404 116.449C80.6983 117.978 83.6277 121.112 81.963 124.441C81.5665 125.234 93.2921 138.233 94.3598 141.324C95.3585 144.215 97.3975 149.317 92.8918 149.317C91.3921 149.317 94.3441 149.96 94.3598 149.969C97.392 151.623 100.164 154.867 102.352 157.472C104.753 160.331 108.516 171.012 107.491 167.422C106.086 162.507 104.437 157.766 104.636 152.579C104.884 146.142 121.98 149.552 125.189 149.969C136.286 151.411 146.724 155.581 156.507 160.898C157.462 161.417 159.006 162.406 160.384 163.426C161.161 160.685 164.092 157.175 166.294 156.657C168.045 156.245 159.993 131.566 165.723 135.533C171.24 139.353 177.306 142.96 183.584 145.402C186.341 146.474 185.821 138.216 186.846 136.104C190.615 128.345 207.609 138.839 206.828 143.526C206.348 146.41 214.94 149.948 216.86 151.519C220.912 154.834 215.58 150.767 218.328 149.643C224.049 147.302 236.232 149.257 238.217 155.963C240.361 154.102 244.898 155.306 246.71 156.983C252.204 162.07 257.018 162.364 264.653 164.813C265.499 165.084 266.755 166.046 268.025 167.204C268.132 167.134 268.283 167.096 268.486 167.096C271 167.096 275.442 172.601 277.865 173.947C282.582 176.567 279.505 181.009 281.617 181.777C282.648 182.152 283.641 183.563 284.359 185.011C284.836 184.741 285.582 184.776 286.592 185.365C290.822 187.833 293.686 195.57 297.276 200.698C301.298 206.444 309.921 208.803 314.24 214.889C314.591 215.384 315.032 216.1 315.465 216.918C319.82 215.443 328.015 217.636 331.53 218.641C340.048 221.074 355.492 217.615 357.221 231.445C358.441 241.203 374.413 244.323 373.288 255.016C373.054 257.238 371.568 258.314 369.783 258.856C379.287 262.092 390.478 274.049 396.22 281.498C399.73 277.424 412.271 282.092 415.209 283.643C417.98 285.105 420.265 291.904 420.265 289.596C420.265 273.042 442.134 281.078 449.463 287.884C452.328 290.544 449.327 287.806 449.708 284.377C450.389 278.244 459.552 279.869 463.98 279.972C471.062 280.137 471.647 287.492 471.647 277.852C471.647 264.347 484.093 277.213 486.653 272.306C492.91 260.314 508.808 265.122 519.848 263.742C523.009 263.347 520.495 259.874 524.741 261.785C527.954 263.231 531.1 265.027 533.712 267.412C535.055 268.638 535.871 271.775 537.546 272.306C549.222 276.008 558.787 278.81 566.417 289.107C567.296 290.293 569.635 296.21 571.192 301.194C575.081 300.035 583.179 301.79 585.257 302.482C587.064 303.085 585.103 295.268 586.97 294.734C590.706 293.667 590.929 297.305 593.494 298.731C597.814 301.13 606.62 281.531 611.994 277.917C610.393 275.255 609.376 272.364 609.969 269.696C611.947 260.794 624.272 267.785 622.692 259.094C621.722 253.756 612.274 230.059 623.508 230.059C630.807 230.059 638.498 231.201 645.691 230.875C647.803 230.779 643.097 217.395 642.674 216.031C640.959 210.506 639.778 204.396 640.553 198.578C641.291 193.041 643.537 194.297 641.124 187.812C636.651 175.789 648.004 173.27 656.539 170.603C662.465 168.751 659.261 146.893 662.492 140.835C667.616 131.227 673.159 136.935 682.148 136.186C686.585 135.816 691.402 136.071 695.768 136.92C695.817 136.929 701.046 138.854 701.151 138.714C702.317 137.16 697.859 129.704 697.725 127.296C697.455 122.423 700.909 126.195 702.945 128.112C707.256 132.169 707.242 128.042 708.817 124.441C711.12 119.179 740.219 119.171 741.71 124.049C741.67 123.028 741.881 120.619 744.05 120.282C747.969 119.674 756.645 119.745 757.834 125.094C760.194 135.715 779.914 120.685 784.666 128.764C786.851 132.478 788.965 130.829 792.496 132.679C796.87 134.97 798.412 138.941 800.056 143.172L800.162 143.444C800.951 145.473 799.02 155.129 799.02 158.288C799.02 166.009 800.205 165.196 807.91 165.547C816.511 165.938 823.102 170.631 829.197 176.557C830.76 178.077 830.563 181.945 831.643 182.755C835.747 185.833 850.194 182.892 855.214 183.163C860.126 183.429 866.958 184.998 871.281 187.159C872.543 187.791 874.485 185.4 875.359 184.876C879.514 182.382 885.646 183.054 890.202 183.082C909.598 183.199 923.832 188.909 941.584 194.826C943.759 195.551 958.577 201.174 958.955 198.333C959.961 190.794 975.867 194.915 981.384 195.478C990.872 196.447 1000.83 198.301 1009.28 202.982C1010.61 203.721 1012.47 206.945 1013.35 207.386C1014.25 207.832 1014.22 205.571 1014.82 204.776C1017.39 201.394 1021.79 202.103 1025.59 202.329C1051.21 203.859 1075.14 209.501 1098.99 218.315C1117.68 225.22 1137.02 225.957 1157.22 228.509C1163.53 229.306 1169.87 229.793 1175.65 231.445C1179.11 232.433 1180.58 231.481 1177.78 228.591C1176.01 226.77 1172.94 224.379 1172.23 221.74C1170.3 214.574 1182.53 216.847 1186.34 216.847C1198.56 216.847 1181.8 193.779 1193.6 193.358C1198.01 193.2 1202.58 193.091 1206.81 194.5C1212.18 196.29 1215.76 193.972 1221.98 192.705C1228.09 191.46 1234.57 190.443 1240.82 190.666C1245.34 190.828 1249.8 193.032 1254.2 193.032C1255.27 193.032 1251.43 189.028 1251.26 188.791C1248.22 184.617 1246.39 178.64 1244.82 173.784C1243.8 170.645 1243.65 167.28 1243.84 163.997C1244.07 159.86 1246.41 162.725 1247.51 162.284C1250.69 161.011 1246.91 146.131 1249.71 142.303C1252.86 137.988 1266.87 140.508 1271.32 140.508C1282.38 140.508 1274.98 130.729 1282.01 123.707C1286.63 119.087 1291.35 111.147 1298.15 111.147C1301.58 111.147 1304.12 113.679 1306.15 116.286C1308.52 119.339 1310.55 118.488 1314.63 118.488L1314.86 118.488C1321.33 118.487 1323.2 118.487 1327.19 123.707C1329.24 126.387 1331.94 128.727 1329.64 132.353C1324.97 139.687 1347.36 147.85 1349.21 156.657C1350.48 162.673 1342.85 165.729 1342.85 170.685C1342.85 173.213 1359.6 176.706 1361.28 177.291C1377.46 182.919 1385.85 193.321 1398.14 202.982C1404.36 207.865 1409.79 213.787 1416.01 218.804C1418.34 220.689 1423.95 223.09 1425.55 225.655C1427.02 228.004 1430.17 228.911 1431.42 231.527C1432.76 234.347 1431.75 239.725 1431.75 242.864C1431.75 274.902 1442.12 305.937 1444.96 337.715C1446.69 357.091 1452.3 378.424 1452.3 397.416C1452.3 401.548 1453.6 410.59 1449.36 413.238C1442.15 417.748 1431.33 421.993 1427.42 430.447C1425.52 434.58 1422.96 439.189 1421.63 443.496C1420.98 445.622 1422.94 447.976 1422.94 450.265C1422.94 452.593 1424.22 458.93 1422.2 460.542C1419.63 462.602 1426.34 463.804 1427.02 464.946C1430.51 470.891 1422.91 475.692 1419.02 477.506C1411.74 480.905 1402.66 482.207 1394.72 482.481C1371.48 483.282 1347.62 480.796 1324.58 478.158C1199.4 463.828 1072.57 467.244 946.803 462.336C902.154 460.593 857.486 461.797 812.804 459.726C790.581 458.696 768.646 455.721 746.497 454.017C712.528 451.404 677.931 453.201 643.897 453.201L640.207 453.201C552.091 453.199 465.034 453.197 377.529 464.864C333.172 470.778 288.951 477.03 244.59 482.889L243.962 482.971C223.265 485.705 202.603 488.434 181.708 488.434C169.513 488.434 157.749 482.562 145.415 482.562C129.378 482.562 113.392 482.039 97.459 484.03C76.532 486.646 56.1026 488.077 34.9856 488.434C25.8275 488.59 16.7976 489.902 7.58217 489.902C1.9536 489.902 -8.26079 492.102 -13.5413 489.168C-20.6399 485.225 -24.751 481.729 -31.8919 478.158Z" fill="url(#paint0_linear_0_1)"/>
<path d="M-44.0679 500.174C-48.5664 500.174 -45.6901 499.408 -45.6901 494.496C-45.6901 490.285 -53.4087 489.472 -52.0888 484.853C-50.8664 480.574 -53.7855 480.666 -55.0629 475.841C-56.3352 471.034 -52.4527 469.469 -54.1617 467.008C-65.9357 450.054 -61.482 449.745 -72.1863 436.186C-75.8178 431.586 -78.9205 424.304 -71.2851 422.668C-61.6415 420.601 -63.5345 420.689 -63.5345 409.33C-63.5345 404.907 -63.3147 400.62 -57.8567 403.652C-53.8871 405.857 -55.8126 382.795 -55.3333 379.679C-54.8257 376.38 -51.0848 384.953 -53.4407 378.147C-55.5502 372.053 -56.4536 370.672 -49.295 370.396C-44.6146 370.216 -49.3623 361.318 -46.2308 359.041C-45.42 358.451 -39.3791 356.155 -35.6176 355.871C-36.4679 347.835 -35.9568 330.638 -35.9568 322.992C-35.9568 317.457 -33.6291 317.865 -29.558 320.919C-27.4191 322.523 -27.8457 323.16 -27.8457 320.017C-27.8457 315.23 -26.1741 310.281 -21.9877 307.49C-14.9541 302.801 -9.99248 305.802 -5.13464 310.374C-2.63122 312.73 -4.84839 295.774 -0.26799 295.774C3.70099 295.774 2.10539 302.669 6.13076 299.65C9.77189 296.919 7.26389 289.607 13.5209 290.998C16.2588 291.606 20.5164 296.279 20.8208 299.019C21.1683 302.146 24.656 304.566 26.4085 306.95C27.2798 308.135 29.6713 312.708 31.1255 315.664C30.8 311.811 39.4733 312.868 42.5406 314.52C50.5864 318.852 44.6118 311.415 46.9566 304.967C49.3935 298.265 55.0891 311.41 53.6257 298.658C53.0457 293.604 62.364 266.112 67.8652 268.557C73.7388 271.168 77.3068 277.801 82.2849 281.535C84.134 282.922 82.3327 276.753 83.3664 274.685C84.7666 271.885 86.2709 271.441 89.2244 271.441C98.644 271.441 106.127 275.782 114.819 273.874C117.733 273.235 137.742 267.529 139.153 273.874C140.108 278.175 144.224 279.252 146.993 282.797C151.204 288.187 162.39 282.419 168.983 287.663C172.001 290.064 173.972 294.147 174.751 297.847C174.847 298.3 174.911 298.628 174.952 298.856C174.884 298.248 174.833 297.138 175.202 296.585C180.587 288.508 187.313 296.533 188.811 301.452C191.314 309.679 190.475 305.548 191.514 305.868C195.323 307.04 205.945 312.43 202.149 318.125C199.406 322.239 215.239 314.74 216.929 319.387C218.253 323.028 214.981 329.436 219.543 331.463C225.864 334.272 236.032 334.902 241.296 340.379C236.974 328.102 233.564 315.014 236.936 314.34C238.013 314.124 250.719 320.608 245.588 316.503C243.345 314.708 236.08 310.023 233.946 305.865C227.576 303.037 215.766 283.605 214.946 280.994C210.583 267.097 216.924 271.834 226.662 269.458C228.771 268.944 220.534 258.837 220.534 255.309C220.534 252.25 226.094 253.091 229.307 255.481C228.177 251.301 227.326 245.415 228.825 242.962C230.658 239.963 240.645 244.548 242.704 245.125C252.343 247.824 248.801 237.965 248.292 231.607C247.275 218.897 254.582 213.221 267.578 213.221C275.314 213.221 279.783 217.277 286.504 219.891C289.774 221.162 288.383 208.319 288.577 206.282C289.017 201.662 302.104 202.09 305.07 204.029C313.118 209.291 303.298 198.517 310.297 196.458C313.548 195.502 322.311 193.014 324.086 197.45C326.933 204.569 322.298 181.615 325.077 174.468C327.794 167.481 361.064 188.256 362.658 189.429C368.036 193.383 368.495 195.688 373.563 198.261C381.589 202.335 387.271 209.12 386.196 218.166C389.25 216.936 394.922 218.051 396.995 218.899C402.02 220.955 408.773 225.658 402.673 230.795C400.968 232.231 396.179 234.13 401.141 234.13C408.129 234.13 415.059 232.737 422.049 232.508C429.213 232.273 423.165 229.869 421.869 225.658C420.182 220.176 430.255 219.114 432.774 222.053C434.227 223.749 434.236 227.641 436.469 227.641C440.876 227.641 442.445 228.797 443.998 230.785C443.4 228.822 451.241 233.517 451.97 234.13C458.342 239.488 459.733 255.51 455.305 262.429C455.069 262.797 453.694 263.947 452.01 265.192C454.755 264.912 457.46 264.952 458.459 264.952C465.37 264.952 461.147 266.559 464.768 270.179C469.957 275.368 476.992 279.652 475.375 287.344C477.43 287.371 479.239 287.628 480.269 288.024C485.368 289.985 483.744 297.822 479.728 299.83C472.341 303.523 464.568 300.547 474.141 308.752C479.203 313.091 481.402 316.654 478.595 322.584C479.89 324.063 481.081 327.511 481.17 328.038C481.437 329.609 481.577 330.958 481.629 332.096C481.737 331.835 481.854 331.564 481.981 331.283C484.465 325.818 498.445 319.408 504.152 324.163C507.614 327.048 500.616 320.403 500.997 317.224C501.489 313.128 512.735 316.336 514.876 316.863C517.663 317.55 523.633 322.543 522.987 319.747C520.421 308.624 508.398 300.652 512.533 287.213C513.154 285.195 516.444 286.378 517.941 285.951C519.273 285.57 518.61 283.631 519.653 282.797C521.294 281.484 507.037 268.88 506.225 265.853C504.704 260.186 503.514 248.416 509.109 245.125C511.54 243.695 502.62 233.922 502.62 229.353C502.62 215.359 525.264 218.937 535.515 219.71C549.01 220.729 552.615 226.508 555.252 238.186C555.956 241.304 556.11 244.415 556.143 247.564C556.174 247.011 556.232 246.525 556.333 246.297C558.635 241.117 565.625 244.908 567.148 248.369C569.267 253.185 572.915 240.709 575.619 239.357C580.382 236.976 581.366 241.676 582.289 244.674C585.294 254.442 584.646 245.879 585.533 242.331C587.397 234.876 602.947 241.366 606.802 242.602C610.392 243.752 616.187 244.083 619.419 245.846C626.05 249.463 630.464 259.233 634.2 265.313C634.351 265.56 634.491 265.791 634.621 266.008C634.321 264.875 634.243 263.577 634.83 262.519C637.326 258.028 637.37 263.86 640.959 261.347C646.331 257.586 652.087 254.261 658.533 252.695C664.524 251.241 664.716 256.205 666.464 260.626C668.59 266.005 674.188 266.456 676.557 272.703C680.254 282.448 667.877 285.315 660.245 285.951C653.555 286.508 659.341 286.041 662.769 286.041C669.002 286.041 675.972 285.536 680.883 290.097C684.352 293.318 680.65 299.764 676.442 302.554C681.247 301.333 684.781 303.203 685.57 307.851C687.685 320.308 680.528 325.385 669.708 327.858C663.904 329.185 664.349 325.793 667.185 333.085C670.634 341.956 664.859 341.196 657.722 341.196C664.188 343.059 670.335 346.912 669.708 352.552C669.438 354.987 655.567 357.435 659.164 360.032C666.435 365.284 690.797 370.823 690.797 382.563C690.797 386.962 682.205 390.93 676.609 392.46C684.814 391.681 700.031 390.904 706.298 393.468C706.551 393.571 706.755 393.703 706.915 393.856C709.408 390.296 711.886 391.542 711.886 396.983C711.886 402.721 717.417 385.491 722.881 383.735C731.11 381.089 729.447 394.911 732.975 382.473C735.112 374.937 742.362 363.951 751.54 365.62C753.774 366.026 754.499 370.036 756.407 370.036C756.786 370.036 759.761 364.659 760.642 363.998C766.268 359.779 775.391 361.64 779.118 367.062C785.154 375.841 780.76 365.885 780.109 361.654C779.377 356.898 782.585 354.874 786.508 352.912C787.108 352.613 791.607 352.614 791.194 351.831C788.646 346.989 782.189 343.587 779.118 338.673C776.312 334.184 774.966 324.774 777.893 320.015C777.881 320.016 777.868 320.017 777.856 320.017C771.577 320.466 762.396 320.814 757.668 315.872C752.04 309.988 750.84 298.228 754.784 291.268C756.123 288.907 763.13 283.852 761.454 280.814C759.07 276.493 755.014 273.29 753.162 268.557C749.956 260.362 753.216 249.583 757.308 242.421C760.159 237.432 767.008 240.106 765.509 239.357C756.18 234.693 748.719 226.683 753.162 215.925C756.871 206.947 760.605 207.692 768.213 211.424C769.296 211.956 778.245 209.053 773.53 208.424C761.835 206.865 764.665 206.531 765.509 194.296C765.946 187.965 769.122 183.382 773.53 178.975C777.763 174.742 783.861 174.94 787.409 171.765C791.851 167.791 786.158 156.422 794.979 153.38C804.492 150.099 809.461 160.786 813.184 167.168C816.797 173.362 813.253 151.136 818.592 146.35C819.731 145.329 834.451 131.006 835.174 136.797C835.712 141.1 838.825 132.443 840.541 131.169C839.602 126.955 838.419 120.138 838.419 118.412C838.419 111.106 852.168 120.845 854.371 122.828C856.863 125.071 860.742 109.475 863.473 107.957C869.06 104.854 870.527 110.946 873.747 112.824C877.878 115.234 882.616 103.316 887.987 106.245C891.341 108.075 895.769 123.32 899.342 118.772C902.893 114.252 908.508 110.158 914.663 110.841C918.615 111.281 927.023 126.81 931.246 122.738C934.44 119.658 934.693 113.978 938.185 111.292C940.183 109.755 943.33 111.751 945.395 110.03C949.796 106.363 953.928 103.836 959.995 104.443C965.254 104.969 967.612 108.119 971.08 111.202C974.261 114.029 977.257 85.6938 979.912 84.5254C989.191 80.443 987.049 84.3393 991.809 92.8168C994.963 98.4353 994.212 92.1541 994.152 89.2119C993.995 81.507 992.632 73.1216 989.285 66.1403C987.706 62.8473 979.592 57.8482 982.255 53.9737C984.694 50.4267 988.855 48.4195 991.628 45.1416C994.672 41.5449 996.665 37.3013 999.92 33.7861C1009.46 23.4843 1011.08 22.2349 1019.21 34.4169C1022.28 39.0225 1025.09 43.7785 1027.86 48.5663C1028.77 50.1471 1030.03 54.4595 1031.1 52.9823C1033.61 49.536 1026.84 37.2689 1025.69 33.6959C1024.17 28.9564 1030.47 7.19314 1036.24 15.8515C1037.2 17.2885 1038.35 13.1073 1039.57 11.8861C1042.81 8.64694 1046.37 5.69518 1049.67 2.5133C1055.29 -2.90955 1054.31 3.65409 1060.48 3.77503C1072.7 4.01464 1090.94 -1.35382 1100.95 7.65033C1101.64 8.27646 1115.22 5.77644 1118.07 6.20836C1131.89 8.30269 1120.14 5.91292 1121.59 10.9849C1122.61 14.5563 1135.65 23.4465 1136.55 16.7528C1137.35 10.7455 1134.67 -4.90873 1143.58 1.52195C1150.9 6.81009 1158.04 11.2149 1160.43 19.817C1161.35 23.1357 1162.13 30.2608 1164.66 32.254C1170.23 36.6271 1176.44 39.9974 1183.05 42.528C1188.09 44.4565 1197.49 44.4704 1198.37 51.0897C1199.37 58.5973 1192.05 70.5288 1198.73 75.5131C1207.21 81.8397 1216.6 87.1065 1216.4 98.5847C1216.28 105.373 1214.53 125.777 1204.95 126.973C1202.52 127.277 1198.17 125.899 1199.72 129.857C1201.96 135.567 1204.81 140.598 1206.66 146.53C1209.71 156.285 1208.02 160.597 1197.65 162.392C1188.25 164.018 1187.94 162.544 1192.42 172.846C1196.04 181.146 1205.05 200.839 1193.77 207.183C1190.42 209.07 1186.71 207.81 1183.23 209.797C1178.64 212.419 1205.05 213.041 1206.84 213.041C1210.08 213.041 1220.18 211.346 1222.52 214.663C1223.84 216.523 1223.34 218.249 1225.23 220.251C1230.3 225.643 1225.23 227.081 1222.52 228.5C1213 233.5 1218.02 241.71 1218.02 244.674C1225.23 252 1225.23 261 1219.01 267.5C1219.01 274.301 1223.32 278.066 1228 282.5C1234 288.184 1227.53 290.68 1221.62 290.908C1215.92 291.127 1217.09 313.101 1219.01 313.529C1225.62 314.998 1250.5 310.537 1253.35 316.863C1255.64 321.969 1245.6 328.041 1245.6 333.446C1245.6 339.404 1243.97 344.46 1243.34 350.119C1242.72 355.765 1263.75 358.694 1267.23 359.852C1271.4 361.244 1278.32 344.079 1280.92 339.935C1289.02 327.04 1293.01 333.695 1300.75 344.441C1302.25 346.52 1316.97 369.185 1316.97 364.448C1316.97 355.393 1323.46 351.75 1323.46 342.819C1323.46 325.513 1331.96 334.413 1344.91 334.708C1355.34 334.945 1363.5 324.602 1373.93 323.442C1376.28 323.182 1389.74 327.806 1389.88 327.317C1391.42 321.928 1391.04 320.339 1396.73 324.253C1404.3 329.459 1408.17 332.248 1413.59 340.115C1419.92 349.322 1429.94 357.292 1436.12 365.53C1440.9 371.912 1441.58 376.454 1435.4 382.383C1428.16 389.314 1437.73 394.932 1438.55 403.562C1438.82 406.452 1437.98 407.819 1437.02 410.411C1434.19 418.071 1433.91 426.321 1433.77 434.384C1433.65 441.742 1428.7 451.293 1430.89 458.357C1433.95 468.229 1451.24 477.843 1441.07 488.007C1438.01 491.067 1435.17 495.307 1430.53 495.307C1426.84 495.307 1420.77 496.834 1417.91 498.912C1412.64 502.746 1406.95 501.796 1400.52 501.796C1377.18 501.796 1355.15 507.425 1331.93 508.285C1318.1 508.797 1303.95 509.907 1290.21 509.907C1272.85 509.907 1252.46 509.997 1235 509.997C1168.97 509.997 1104.03 508.285 1038 508.285C1020.97 508.285 1007.38 510.721 990.727 509.997C961.298 508.718 931.851 509.347 902.406 507.384C853.705 504.137 804.873 506.983 756.226 503.418C670.543 497.14 588.511 503.418 502.62 503.418C448.781 503.418 391.878 499.278 338.057 503.418C269.376 508.701 197.95 503.418 128.879 503.418C90.4149 503.418 51.9619 505.04 13.4307 505.04C-5.41158 505.04 -27.2734 511.37 -44.0679 500.174Z" fill="url(#paint1_linear_0_1)"/>
<path d="M-6.44368 543.705C-8.36186 540.492 -12.7366 536.357 -11.1296 532.224C-10.8123 531.409 -8.61585 529.913 -8.72808 529.296C-9.51057 524.992 -12.5308 524.236 -11.4811 519.221C-11.0999 517.4 -10.6554 516.5 -10.2818 516.097C-10.6262 515.93 -11.0952 515.613 -11.7154 515.062C-15.8375 511.398 -19.0957 507.053 -19.0957 501.532C-19.0957 499.461 -18.4849 498.914 -17.693 499.174C-19.1073 496.669 -20.338 493.732 -19.9157 492.043C-19.4228 490.071 -17.8724 486.921 -15.5709 486.776C-17.0483 485.206 -17.862 482.228 -18.5099 480.562C-19.0238 479.241 -18.7963 473.817 -15.9327 475.408C-15.4218 475.691 -13.7305 478.898 -14.0583 477.341C-15.4191 470.877 -18.2885 465.09 -18.9785 458.362C-19.3481 454.759 -18.4922 451.528 -14.4098 454.321C-13.3396 455.053 -8.31599 458.054 -8.55235 457.601C-9.63945 455.517 -9.8604 453.231 -9.37239 450.924C-6.52922 437.483 18.794 440.38 28.3493 440.38C39.5925 440.38 36.4012 441.235 40.1813 450.104C40.6903 451.298 41.5278 452.499 42.1752 453.739C43.1856 451.368 46.3745 452.142 48.3817 455.727C52.1393 462.437 48.2181 453.787 49.6703 450.338C51.1852 446.74 58.7647 447.209 60.7994 449.752C63.0956 452.622 58.2654 441.857 60.2136 438.74C60.699 437.964 70.7135 442.626 67.8283 438.916C65.0032 435.284 68.7829 433.666 72.8656 434.289C80.3938 435.437 76.8487 438.629 76.8487 430.54C76.8487 429.872 76.455 427.379 77.083 426.908C77.8643 426.322 80.2725 427.043 81.8621 427.931C80.5336 426.012 78.8674 423.022 78.9574 421.402C79.1705 417.566 83.847 419.795 85.2248 421.402C86.332 422.694 86.3377 423.762 86.3377 425.385C86.3377 425.719 86.6005 420.38 87.0406 419.059C89.5064 411.662 93.5815 412.57 98.9311 416.716C109.789 425.131 123.658 429.629 132.963 440.263C133.872 441.303 133.82 442.015 133.519 442.45C133.937 442.297 134.517 442.113 135.306 441.903C144.938 439.334 164.273 440.363 167.166 452.168C168.494 452.18 170.435 452.549 173.262 452.798C176.64 453.096 181.148 452.616 184.156 454.497C184.527 454.728 189.546 451.859 190.541 451.626C193.851 450.854 195.998 453.749 199.151 454.087C204.258 454.634 209.854 456.62 214.439 458.831C215.883 459.527 219.986 464.024 221.761 463.517C224.616 462.701 227.541 469.355 227.618 466.621C227.734 462.528 227.073 458.488 226.623 454.438C226.431 452.713 226.837 455.21 227.091 455.668C228.533 458.264 227.621 451.778 227.384 450.689C226.352 445.943 218.904 433.621 222.932 429.017C223.38 428.506 224.562 430.269 224.865 429.661C225.488 428.416 216.99 425.941 216.255 425.62C209.078 422.479 215.034 407.526 219.184 403.713C222.614 400.561 228.302 402.32 230.65 406.124C230.483 401.711 228.925 397.325 228.731 392.877C228.608 390.029 227.867 383.868 230.547 381.806C232.046 380.653 235.421 386.019 236.287 386.844C239.961 390.342 241.036 380.823 245.249 379.229C251.191 376.981 257.236 377.369 263.231 379.287C264.219 379.603 271.248 383.675 269.206 381.162C267.494 379.055 264.652 371.545 270.026 373.137C275.054 374.627 272.462 373.071 274.712 369.798C278.629 364.102 289.182 365.117 294.276 367.866C295.86 368.72 299.978 370.342 300.309 372.493C300.371 372.897 300.144 374.237 299.893 375.263C300.67 375 301.945 375.18 302.359 375.246C313.885 377.073 326.103 381.545 336.683 386.375C345.628 390.458 338.784 390.576 341.662 396.333C342.945 398.898 347.9 409.015 347.812 407.696C347.742 406.636 350.484 410.791 351.21 411.445C352.803 412.878 359.083 419.983 359.41 415.076C359.843 408.59 359.012 408.352 364.096 413.436C367.851 417.191 366.79 413.9 366.79 410.273C366.79 405.878 369.534 404.144 373.585 403.01C379.252 401.423 381.147 403.945 377.334 397.68C373.998 392.199 375.793 389.951 380.263 385.789C382.869 383.362 386.823 388.122 386.823 386.023C386.823 382.435 386.514 379.524 389.986 377.355C393.377 375.235 408.858 378.027 408.964 374.894C409.008 373.605 407.84 360.702 409.608 360.309C413.553 359.433 425.156 363.623 427.708 361.071C429.193 359.585 425.059 350.879 427.766 350.879C430.03 350.879 448.144 354.084 441.648 348.888C433.062 342.018 429.806 326.412 445.045 327.567C450.045 327.945 453.946 331.255 458.166 333.6C462.384 335.943 460.906 332.897 460.685 329.792C460.207 323.11 462.558 324.849 467.479 327.215C473.824 330.266 481.797 332.184 487.219 336.821C489.232 338.543 489.587 341.136 490.558 343.44C492.599 348.288 495.226 352.894 497.645 357.556C499.464 361.063 502.122 365.073 502.741 369.096C502.862 369.883 502.324 371.337 501.565 371.709C503.418 372.691 506.734 374.728 507.485 375.48C508.66 376.654 510.921 379.498 512.142 381.189C512.625 380.951 514.284 381.467 514.514 381.572C518.909 383.563 537.511 393.365 532.789 400.784C530.5 404.382 528.153 400.938 530.681 406.759C531.559 408.782 537.613 419.676 531.911 420.816C529.895 421.22 533.404 424.665 533.844 426.674C534.605 430.156 534.441 434.294 533.1 437.702C535.026 438.557 536.658 440.264 536.48 441.962C536.391 442.805 536.289 443.427 536.194 443.871C536.686 443.066 537.779 441.987 539.935 441.669C545.329 440.873 554.393 439.584 555.985 446.179C557.257 451.451 562.511 449.393 566.645 452.798C568.256 454.125 570.485 456.275 570.926 458.36C571.198 458.4 571.489 458.458 571.8 458.538C579.469 460.505 585.116 468.775 590.075 474.353C590.082 474.361 590.088 474.37 590.093 474.378C593.957 472.97 606.392 473.661 607.94 473.592C615.68 473.243 623.543 472.552 631.077 474.705C631.466 474.816 630.4 469.153 630.374 467.793C630.299 463.84 631.028 461.943 635.192 462.519C629.81 459.702 624.145 456.115 620.592 451.099C618.35 447.935 618.695 444.733 622.994 443.778C623.622 443.638 624.19 443.557 624.695 443.52C624.353 443.346 623.981 443.14 623.579 442.899C620.437 441.014 617.883 435.785 619.245 432.18C620.665 428.42 624.727 426.04 628.382 425.034C629.69 424.674 634.536 425.294 635.411 424.331C636.266 423.391 623.032 397.367 633.771 403.713C637.643 406.001 640.917 410.104 640.917 403.947C640.917 396.85 647.804 392.027 653.101 388.132C655.409 386.435 657.453 385.336 660.364 385.613C661.451 385.717 664.054 387.723 663.468 385.965C662.864 384.151 660.048 377.445 664.113 377.12C669.548 376.685 675.34 377.578 680.689 378.292C686.513 379.068 692.301 380.078 698.086 381.103C698.825 381.234 702.83 382.443 703.943 381.748C704.535 381.378 703.772 379.033 704.353 378.936C705.162 378.801 708.959 382.259 708.98 382.275C714.672 386.555 720.564 390.557 726.318 394.751C728.559 396.384 734.38 402.824 736.862 404.064C738.992 405.129 741.918 404.265 744.711 406.524C754.37 414.339 765.117 429.776 764.216 442.84C764.209 442.938 764.201 443.033 764.193 443.126C768.72 445.287 773.069 448.332 776.926 450.689C778.844 451.861 776.328 448.134 777.571 444.129C778.98 439.586 782.373 436.643 786.181 440.146C788.797 442.553 786.218 436.787 786.474 435.636C787.853 429.429 802.5 434.987 805.569 435.401C810.828 436.112 808.061 426.815 808.556 423.511C809.194 419.261 829.745 421.402 832.455 421.402C840.703 421.402 839.262 420.382 834.446 414.022C829.328 407.263 824.922 404.879 828.12 396.157C830.371 390.018 832.615 392.463 828.823 385.789C825.952 380.736 828.894 375.202 832.747 371.497C834.866 369.46 837.031 368.296 839.952 367.866C841.062 367.702 847.706 368.284 847.332 366.343C846.083 359.846 842.497 354.14 844.872 347.013C845.841 344.107 848.464 342.742 851.315 342.386C862.055 341.043 872.799 340.168 883.473 338.227C888.046 337.396 882.065 332.831 881.54 330.027C880.631 325.182 881.413 317.488 884.938 312.83C880.586 312.206 876.032 310.897 874.745 310.287C871.73 308.859 872.24 301.551 873.339 298.865C876.081 292.164 888.889 295.723 894.309 296.171C900.845 296.71 899.841 300.465 903.564 297.518C906.763 294.985 909.92 294.957 913.873 294.648C922.36 293.985 931.989 291.745 940.465 293.008C941.33 293.137 941.958 293.875 942.574 294.414C947.059 298.338 955.741 297.919 961.083 300.857C967.968 304.644 976.795 313.125 970.26 320.254C977.657 319.406 986.798 324.054 989.433 330.495C989.906 331.651 989.904 332.803 989.902 334.009L989.902 334.244C989.902 337.688 992.173 327.276 994.939 325.224C997.431 323.375 1006.02 321.423 1013.66 321.299C1013.39 321.006 1013.2 320.748 1013.1 320.538C1010.51 315.37 1012.65 312.868 1015.15 309.116C1018.29 304.398 1007.17 301.601 1004.31 299.1C1001.62 296.738 996.109 291.478 995.408 287.736C994.884 284.944 1008.64 278.697 1010.52 277.661C1017.46 273.834 1022.39 271.476 1026.22 279.477C1028.27 283.76 1033.88 288.194 1038.28 289.376C1046.74 291.648 1057.13 288.802 1061.07 297.459C1062.26 300.081 1057.79 301.149 1059.72 305.66C1063.95 315.521 1069.37 318.167 1076.94 324.404C1078.77 325.906 1096 340.219 1089.42 340.219C1080.3 340.219 1085.72 344.095 1089.01 350.41C1092.38 356.891 1094.74 369.191 1092.12 378.32C1098.46 379.052 1106.45 382.291 1109.16 386.866C1110.68 379.842 1126.57 388.82 1129.43 391.061C1131.32 392.549 1134.63 398.919 1134.11 396.567C1133.23 392.598 1131.18 389.179 1131.18 385.028C1131.18 380.727 1138.23 374.716 1137.51 371.849C1136.93 369.548 1127.56 366.659 1125.74 365.523C1120.01 361.957 1118.22 357.505 1117.59 350.938C1116.65 341.047 1117.47 337.984 1127.38 336.646C1127.95 336.567 1132.78 336.96 1132.59 336.353C1131.82 333.963 1129.07 332.774 1128.25 330.495C1126.47 325.492 1130.64 324.609 1134.35 324.345C1141.06 323.865 1137.12 317.487 1137.51 312.572C1138.36 301.976 1146.08 299.859 1154.38 303.317C1157.17 304.48 1159.77 305.762 1160.65 308.823C1161.4 311.455 1160.42 303.349 1160.18 300.622C1159.87 297.228 1159.28 293.505 1159.65 290.079C1160.09 285.99 1169.33 285.81 1172.07 285.393C1177.63 284.544 1191.89 285.448 1189.64 277.427C1187.07 268.236 1189.24 261.521 1197.14 255.169C1198.06 254.428 1199.04 253.853 1200.07 253.404C1197.71 250.826 1198.66 244.837 1198.66 241.755C1198.66 238.891 1202.49 237.688 1203.99 235.312C1205.66 232.672 1212.41 220.31 1216.06 226.878C1217.92 230.237 1215.69 227.461 1217.64 224.476C1220.39 220.274 1226.02 222.933 1229.82 224.008C1231.1 224.37 1235.84 226.437 1236.5 224.125C1237.01 222.34 1236.28 220.433 1238.72 220.083C1240.79 219.789 1248.05 227.063 1248.21 225.062C1249.27 212.375 1261.3 233.684 1264.56 231.154C1275.11 222.943 1279.68 247.382 1282.54 252.006C1283.49 253.556 1294.7 264.149 1289.33 264.307C1286.69 264.384 1282.42 262.955 1283.59 266.649C1286.61 276.118 1293.41 284.032 1296.24 293.594C1296.64 294.912 1296.82 295.84 1296.88 296.474C1297.09 296.264 1297.41 296.071 1297.88 295.937C1301.08 295.023 1311.86 295.698 1311.24 291.251C1310.68 287.231 1303.38 278.794 1308.78 276.959C1316.38 274.375 1313.77 275.729 1312.65 268.114C1311.63 261.292 1318.38 260.267 1323.89 260.089C1325.67 260.032 1330.09 262.955 1329.34 259.562C1327.74 252.368 1325.23 245.913 1326.88 238.241C1328.46 230.838 1333.51 232.68 1339.35 233.731L1339.43 233.744C1341.38 234.096 1356.36 236.795 1355.7 233.145C1354.9 228.782 1353.82 225.333 1356.46 221.196C1360.96 214.144 1368.43 209.465 1376.84 212.41C1379.24 213.248 1374.94 203.776 1374.79 202.687C1374.17 197.987 1376.9 193.757 1382 193.666C1384.91 193.614 1395.7 197.483 1395.7 195.013C1395.7 191.896 1392.58 184.865 1397.11 183.357C1403.78 181.133 1409.26 192.335 1415.15 191.265C1417.47 190.842 1413.54 179.926 1413.74 178.085C1414.27 173.358 1425.46 183.702 1426.81 184.001C1427.54 184.164 1427.7 175.7 1427.98 174.688C1429.59 168.893 1440.19 169.066 1444.79 171.994C1452.4 176.839 1450.57 187.784 1450.65 196.009C1450.73 206.198 1455.33 215.226 1455.86 225.003C1456.47 236.249 1455.92 247.654 1455.92 258.918C1455.92 295.605 1456.95 332.427 1455.86 369.096C1455.25 389.478 1452.36 409.971 1451.47 430.423C1451 441.112 1448.54 451.964 1448.54 462.638C1448.54 478.901 1447.48 495.079 1447.48 511.372C1447.48 518.762 1444.68 528.685 1448.01 534.977C1450.98 540.588 1449.52 538.68 1446.19 538.433C1442.21 538.138 1438.19 539.91 1434.5 538.433C1423.5 538.433 1409.29 539.578 1399.5 541.069C1385.25 543.24 1374.5 541.069 1355.87 541.069C1317.5 545 1283.33 550.031 1245.87 550.031H1177.22C1141.88 550.031 1106.3 548.301 1071 548.5C1006.53 548.864 942.958 552.514 878.5 550.5C844.032 549.423 808.856 546.34 774.5 543C743.562 539.992 714.088 541.128 683 541.128C663.218 541.128 642.754 540.109 622.994 541.128C602.509 542.184 584.158 544.64 562 543C530.179 546.039 497.919 545.778 465.956 546.809C440.112 547.643 414.148 546.868 388.287 546.868C369.433 546.868 350.256 547.832 331.47 546.341C317.04 545.195 302.416 545.814 287.95 545.814C271.709 545.814 255.538 544.759 239.275 544.759H152.526C128.656 544.759 104.462 545.023 80.7146 542.416C74.6815 541.754 68.695 540.318 62.6738 539.488C52.8696 538.135 43.1122 538.433 33.211 538.433H4.62682C0.508831 538.433 -4.46875 539.755 -6.44368 543.705Z" fill="url(#paint2_linear_0_1)"/>
<defs>
<linearGradient id="paint0_linear_0_1" x1="659.378" y1="254.886" x2="667.744" y2="490.694" gradientUnits="userSpaceOnUse">
<stop stop-color="#002103"/>
<stop offset="1"/>
</linearGradient>
<linearGradient id="paint1_linear_0_1" x1="684.556" y1="-13.0756" x2="684.12" y2="514.774" gradientUnits="userSpaceOnUse">
<stop stop-color="#005713"/>
<stop offset="0.0001" stop-color="#1A8200"/>
<stop offset="1" stop-color="#000F03"/>
</linearGradient>
<linearGradient id="paint2_linear_0_1" x1="718.18" y1="170" x2="718.18" y2="553.981" gradientUnits="userSpaceOnUse">
<stop stop-color="#00FF1A"/>
<stop offset="1" stop-color="#003305"/>
</linearGradient>
</defs>
</svg>
