<svg width="118" height="35" viewBox="0 0 118 35" fill="none" xmlns="http://www.w3.org/2000/svg">
    <path d="M24.5849 1.14946L24.3417 1.12884L24.1758 1.30795L2.63317 24.5709L1.93732 25.3223L2.95778 25.4088L100.607 33.6894L100.91 33.7151L101.072 33.4586L116.138 9.64641L116.578 8.95045L115.758 8.88086L24.5849 1.14946Z" fill="#D9D9D9" stroke="black"/>
    <path d="M92.5468 9.50181L92.2806 9.47686L92.112 9.68434L79.112 25.6848L78.5166 26.4176L79.4573 26.4983L96.9574 27.9983L97.2403 28.0225L97.4061 27.7919L108.906 11.7914L109.415 11.0832L108.547 11.0018L92.5468 9.50181Z" fill="#D9D9D9" stroke="black"/>
    <path d="M27.2786 8.44566C27.5917 8.41087 27.5762 8.11038 27.8052 8.04496C28.3867 7.87882 29.016 9.21868 29.2477 9.54471C29.7922 10.3111 30.5985 10.8956 31.5832 10.8956C32.4626 10.8956 32.7634 9.40955 33.3691 8.92649C34.1675 8.28986 35.6372 7.33825 35.9221 8.8578C36.0362 9.46589 36.1013 10.2369 36.5518 10.7125C37.3335 11.5375 39.1747 10.0942 40.1695 10.0942C40.7772 10.0942 40.9993 10.4692 41.4517 10.8269C42.0997 11.3392 42.9364 11.4806 43.7414 11.5253C44.7268 11.58 47.7021 11.0128 48.1033 11.9489C48.8344 13.6547 50.0397 11.8153 50.9425 11.1704C51.2592 10.9442 52.163 10.1039 52.6254 10.3461C53.439 10.7722 54.0183 11.5965 54.7319 12.155C56.2943 13.3777 57.6101 12.2653 59.2655 12.155C60.8106 12.052 62.0076 13.5386 63.2038 14.376C63.907 14.8682 64.5406 15.2902 65.4591 15.1201C65.9356 15.0319 66.0463 14.4537 66.4781 14.4218C67.3414 14.3578 68.4867 14.289 68.9738 15.1659C69.637 16.3597 69.5642 18.0137 70.0729 19.2988C70.304 19.8826 70.5972 21.4282 71.3894 21.4282C72.1206 21.4282 72.9256 21.543 73.0151 20.5581C73.1185 19.4211 72.8964 18.2449 73.038 17.1121C73.1655 16.0925 75.171 18.5432 75.7055 18.5432" stroke="#000000" strokeWidth="3" stroke-linecap="round"/>
    <path d="M19.6539 16.6885C19.8062 17.2974 20.7371 16.6471 20.9247 16.4596C21.8219 15.5623 22.5711 15.3367 23.0656 16.5054C23.7801 18.1943 25.0624 18.7492 26.8207 18.7492C27.63 18.7492 27.6228 18.207 28.2059 17.9479C28.5858 17.779 29.3045 18.7219 29.4996 18.9095C30.252 19.633 31.0281 20.2768 32.0526 20.5696C34.8863 21.3792 36.2522 19.5642 38.0287 17.6731C38.6606 17.0004 38.6964 17.047 39.2537 17.8792C39.9427 18.9081 40.6363 19.9139 41.3831 20.9016C42.4006 22.2472 42.074 21.6301 42.9401 20.6497C43.4279 20.0974 44.9737 19.0409 45.7106 19.7567C46.1247 20.1589 46.5068 21.016 47.1646 21.016C47.9087 21.016 48.6529 21.016 49.397 21.016C50.496 21.016 51.503 21.6316 52.5797 21.8403C53.3825 21.996 54.2011 22.1151 55.0067 21.909C55.6455 21.7456 56.3437 21.1076 56.9988 21.1076C58.1565 21.1076 59.6048 23.6679 60.3646 24.4277C60.7603 24.8234 61.2063 25.3064 61.6926 25.5496" stroke="#000000" strokeWidth="3" stroke-linecap="round"/>
    <path d="M95.0763 16.2764C95.0763 15.4556 94.8393 14.4487 95.6946 14.021C96.5548 13.5909 96.931 14.216 96.931 15.0743C96.931 15.4232 97.2309 17.601 96.3586 17.0091C95.6146 16.5042 94.4581 15.1494 94.4581 14.2157" stroke="#000000" strokeWidth="3" stroke-linecap="round"/>
    <path d="M84.9788 25.1374C86.4222 24.3435 87.6723 23.2256 89.0774 22.3669C89.6245 22.0326 90.0042 21.9071 90.5886 21.5884C91.543 21.0678 92.8207 21.2159 93.7369 20.7069C94.4041 20.3362 94.6311 24.7803 94.6642 25.3435C94.7091 26.1068 92.2769 24.8337 91.6533 24.7253C90.5102 24.5265 89.4322 24.5192 88.276 24.5192C87.4038 24.5192 89.1299 24.9776 89.3064 25.0344C89.8067 25.1952 90.6157 25.2008 91.058 25.4465C91.5123 25.6989 92.296 25.5496 92.7867 25.5496C93.3236 25.5496 91.7546 25.2499 91.2297 25.1374C91.1644 25.1234 85.4134 23.4618 85.1964 24.2215C84.8694 25.3659 86.5942 25.611 87.3601 25.5381C88.3738 25.4416 88.3118 24.7129 89.0316 24.2673C89.4725 23.9944 90.3469 23.6327 90.7031 23.237C91.004 22.9026 90.94 22.6962 91.2755 23.2713C91.9543 24.435 91.7792 22.8335 91.7792 22.1608C91.7792 21.6971 92.3926 21.8862 92.6035 21.3823C92.8313 20.8382 93.4044 19.9289 93.4278 19.3216C93.4569 18.5642 93.0244 18.7492 92.386 18.7492C91.2843 18.7492 91.3854 19.2568 90.8633 20.0772C89.7734 21.79 88.4914 21.7644 86.6503 22.344C86.0172 22.5433 85.3614 22.717 84.8872 23.1912C84.3382 23.7402 85.5722 23.8244 85.8833 23.2713C86.4325 22.2948 86.5023 21.6037 87.7036 21.1076C88.4079 20.8166 89.3569 20.3977 90.1306 20.3977" stroke="#000000" strokeWidth="3" stroke-linecap="round"/>
</svg>
