<svg width="191" height="359" viewBox="0 0 191 359" fill="none" xmlns="http://www.w3.org/2000/svg">
<path fill-rule="evenodd" clip-rule="evenodd" d="M5 186.066V65.0662C5.66667 44.5662 18.5 3.06617 64.5 1.06617C110.5 -0.933827 124.333 42.8995 125.5 65.0662V186.066H116V65.0662H15V186.066H5ZM23 56.5662H15C15 50.1662 20.3333 39.2328 23 34.5662V56.5662ZM30 56.5662H38V17.0662C35.3333 19.0662 30 23.5662 30 25.5662V56.5662ZM70.5 9.56616V56.5662H61.5V9.56616C62.3333 9.23283 64.4 8.56616 66 8.56616C67.6 8.56616 69.6667 9.23283 70.5 9.56616ZM86 56.5662V13.5662C85.1667 13.0662 83.2 11.9662 82 11.5662C80.8 11.1662 78.8333 11.0662 78 11.0662V56.5662H86ZM101.5 56.5662H93V17.0662C94 17.7328 96.3 19.3662 97.5 20.5662C98.7 21.7662 100.667 24.3995 101.5 25.5662V56.5662ZM116 56.5662H108V34.5662C110.5 38.8995 115.6 49.3662 116 56.5662ZM54 56.5662H45V14.0662C45 13.2662 51 11.0662 54 10.0662V56.5662Z" fill="#565656"/>
<path d="M30 56.5662H38V17.0662C35.3333 19.0662 30 23.5662 30 25.5662M30 56.5662C30 47.0662 30 27.5662 30 25.5662M30 56.5662V25.5662M45 56.5662H54V10.0662C51 11.0662 45 13.2662 45 14.0662M45 56.5662C45 42.7328 45 14.8662 45 14.0662M45 56.5662V14.0662M5 186.066V65.0662C5.66667 44.5662 18.5 3.06617 64.5 1.06617C110.5 -0.933827 124.333 42.8995 125.5 65.0662V186.066H116V65.0662H15V186.066H5ZM15 56.5662H23V34.5662C20.3333 39.2328 15 50.1662 15 56.5662ZM61.5 56.5662H70.5V9.56616C69.6667 9.23283 67.6 8.56616 66 8.56616C64.4 8.56616 62.3333 9.23283 61.5 9.56616V56.5662ZM78 56.5662H86V13.5662C85.1667 13.0662 83.2 11.9662 82 11.5662C80.8 11.1662 78.8333 11.0662 78 11.0662V56.5662ZM93 56.5662H101.5V25.5662C100.667 24.3995 98.7 21.7662 97.5 20.5662C96.3 19.3662 94 17.7328 93 17.0662V56.5662ZM116 56.5662H108V34.5662C110.5 38.8995 115.6 49.3662 116 56.5662Z" stroke="black" stroke-width="0.5"/>
<path d="M29.25 200.25H40.75V354.969L37.876 358.75H35H32.124L29.25 354.969V200.25Z" fill="url(#paint0_linear_186_160)" stroke="black" stroke-width="0.5"/>
<path d="M5.25 168.25H14.75V278.1L12.3879 280.75H10H7.61206L5.25 278.1V168.25Z" fill="url(#paint1_linear_186_160)" stroke="black" stroke-width="0.5"/>
<path d="M116.25 167.25H125.75V277.1L123.388 279.75H121H118.612L116.25 277.1V167.25Z" fill="url(#paint2_linear_186_160)" stroke="black" stroke-width="0.5"/>
<path d="M177.25 200.25H188.75V354.949L184.897 358.75H182.5H180.124L177.25 354.969V200.25Z" fill="url(#paint3_linear_186_160)" stroke="black" stroke-width="0.5"/>
<path d="M22.3465 204.806C18.772 200.054 8.87004 185.632 1.61342 175.308C-0.978283 171.621 0.38321 165.985 6.37153 165.438C13.8569 164.753 119.837 162.641 127.335 162.456C134.833 162.271 171.395 184.627 183.101 192.841C194.807 201.055 190.505 209.163 183.581 212.335C176.657 215.507 61.1675 217.353 46.172 217.723C31.1766 218.092 27.5175 211.681 22.3465 204.806Z" fill="url(#paint4_linear_186_160)" stroke="black" stroke-width="0.5"/>
<path d="M135.256 167.464L161.967 183.11L170.539 188.497C173.234 190.628 179.318 194.381 180.144 196.37C181.178 198.857 180.724 202.363 174.238 203.449C169.248 204.285 124.764 205.773 104.764 205.872C83.2682 206.325 42.5881 208.099 39.7831 207.736C36.2767 207.282 30.7042 201.856 27.6513 197.896C25.209 194.728 15.0755 179.728 10.314 172.624C9.47409 172.135 8.48891 170.748 11.2674 169.111C14.0459 167.474 67.3981 166.032 93.7269 165.516C103.555 165.052 124.014 164.313 127.224 165.07C130.434 165.828 133.917 166.982 135.256 167.464Z" fill="#D9D9D9" stroke="black" stroke-width="0.5"/>
<defs>
<linearGradient id="paint0_linear_186_160" x1="35" y1="200" x2="35" y2="359" gradientUnits="userSpaceOnUse">
<stop stop-color="#656565"/>
<stop offset="1"/>
</linearGradient>
<linearGradient id="paint1_linear_186_160" x1="10" y1="168" x2="10" y2="281" gradientUnits="userSpaceOnUse">
<stop stop-color="#656565"/>
<stop offset="1"/>
</linearGradient>
<linearGradient id="paint2_linear_186_160" x1="121" y1="167" x2="121" y2="280" gradientUnits="userSpaceOnUse">
<stop stop-color="#656565"/>
<stop offset="1"/>
</linearGradient>
<linearGradient id="paint3_linear_186_160" x1="176" y1="200" x2="176" y2="359" gradientUnits="userSpaceOnUse">
<stop stop-color="#656565"/>
<stop offset="1"/>
</linearGradient>
<linearGradient id="paint4_linear_186_160" x1="108.5" y1="171" x2="109.5" y2="223.5" gradientUnits="userSpaceOnUse">
<stop stop-color="#898989"/>
<stop offset="1" stop-color="#5B5B5B"/>
</linearGradient>
</defs>
</svg>
