<svg width="1272" height="2052" viewBox="0 0 1272 2052" fill="none" xmlns="http://www.w3.org/2000/svg">
<path d="M955.5 2051H1275L1273.5 918.5C1271.67 917 1263 909.1 1243 889.5C1218 865 1211.5 863 1192 842.5C1172.5 822 1127 741.5 1109 696.5C1091 651.5 1090 610.5 1082 571.5C1075.6 540.3 1071 490.833 1069.5 470H1012.5V528.5C1012.5 555.833 1013.4 617.8 1017 647C1021.5 683.5 1025 690.5 1031 727C1037 763.5 1058 821.5 1061.5 830C1064.3 836.8 1089.67 909.167 1102 944.5C1068.5 919.667 995.4 866.2 971 851C940.5 832 872 809 802 799.5C732 790 609 769.5 519.5 754.5C447.9 742.5 275.5 660.5 245 650C231.332 640.432 209.267 622.219 191 608C169.172 591.009 135.483 548.888 126.5 538C110 518 89 431.5 82.5 409C76 386.5 69.5 205 66.5 176C64.1 152.8 58.5 49.6667 56 1H1V321C1.66667 377 15.2 514.2 64 615C125 741 302.371 791.209 318.5 798C337.5 806 407 825.5 443.5 838.5C519.5 859.5 652 894.5 684.5 905C715.949 915.16 798.5 957 880.5 984.5C916.5 1000.5 948.7 1049.7 953.5 1056.5C959.5 1065 968.5 1135 968.5 1167.5C968.5 1200 963 1232.5 968.5 1256.5C974 1280.5 960 1445 963 1482C966 1519 957.5 1683 958 1748C958.4 1800 960.833 1855 962 1876V1956.5C962 1964.5 957.667 2022.83 955.5 2051Z" fill="url(#paint0_linear_172_372)"/>
<path d="M955.5 2051H1275L1273.5 918.5C1271.67 917 1263 909.1 1243 889.5C1218 865 1211.5 863 1192 842.5C1172.5 822 1127 741.5 1109 696.5C1091 651.5 1090 610.5 1082 571.5C1075.6 540.3 1071 490.833 1069.5 470H1012.5V528.5C1012.5 555.833 1013.4 617.8 1017 647C1021.5 683.5 1025 690.5 1031 727C1037 763.5 1058 821.5 1061.5 830C1064.3 836.8 1089.67 909.167 1102 944.5C1068.5 919.667 995.4 866.2 971 851C940.5 832 872 809 802 799.5C732 790 609 769.5 519.5 754.5C447.9 742.5 275.5 660.5 245 650C231.332 640.432 209.267 622.219 191 608C169.172 591.009 135.483 548.888 126.5 538C110 518 89 431.5 82.5 409C76 386.5 69.5 205 66.5 176C64.1 152.8 58.5 49.6667 56 1H1V321C1.66667 377 15.2 514.2 64 615C125 741 302.371 791.209 318.5 798C337.5 806 407 825.5 443.5 838.5C519.5 859.5 652 894.5 684.5 905C715.949 915.16 798.5 957 880.5 984.5C916.5 1000.5 948.7 1049.7 953.5 1056.5C959.5 1065 968.5 1135 968.5 1167.5C968.5 1200 963 1232.5 968.5 1256.5C974 1280.5 960 1445 963 1482C966 1519 957.5 1683 958 1748C958.4 1800 960.833 1855 962 1876V1956.5C962 1964.5 957.667 2022.83 955.5 2051Z" stroke="black" strokeWidth="0.5"/>
<path d="M955.5 2051H1275L1273.5 918.5C1271.67 917 1263 909.1 1243 889.5C1218 865 1211.5 863 1192 842.5C1172.5 822 1127 741.5 1109 696.5C1091 651.5 1090 610.5 1082 571.5C1075.6 540.3 1071 490.833 1069.5 470H1012.5V528.5C1012.5 555.833 1013.4 617.8 1017 647C1021.5 683.5 1025 690.5 1031 727C1037 763.5 1058 821.5 1061.5 830C1064.3 836.8 1089.67 909.167 1102 944.5C1068.5 919.667 995.4 866.2 971 851C940.5 832 872 809 802 799.5C732 790 609 769.5 519.5 754.5C447.9 742.5 275.5 660.5 245 650C231.332 640.432 209.267 622.219 191 608C169.172 591.009 135.483 548.888 126.5 538C110 518 89 431.5 82.5 409C76 386.5 69.5 205 66.5 176C64.1 152.8 58.5 49.6667 56 1H1V321C1.66667 377 15.2 514.2 64 615C125 741 302.371 791.209 318.5 798C337.5 806 407 825.5 443.5 838.5C519.5 859.5 652 894.5 684.5 905C715.949 915.16 798.5 957 880.5 984.5C916.5 1000.5 948.7 1049.7 953.5 1056.5C959.5 1065 968.5 1135 968.5 1167.5C968.5 1200 963 1232.5 968.5 1256.5C974 1280.5 960 1445 963 1482C966 1519 957.5 1683 958 1748C958.4 1800 960.833 1855 962 1876V1956.5C962 1964.5 957.667 2022.83 955.5 2051Z" stroke="black" strokeOpacity="0.2" strokeWidth="0.5"/>
<defs>
<linearGradient id="paint0_linear_172_372" x1="638" y1="344.5" x2="1125.5" y2="1937" gradientUnits="userSpaceOnUse">
<stop stop-color="#783301"/>
<stop offset="1" stop-color="#3E1A01"/>
</linearGradient>
</defs>
</svg>
