<svg width="34" height="37" viewBox="0 0 34 37" fill="none" xmlns="http://www.w3.org/2000/svg">
<path d="M33.9992 10.7668C34.0118 10.1968 33.868 9.63423 33.5834 9.14017C33.2848 8.6551 32.8624 8.25836 32.3595 7.9908C27.8318 5.49069 23.3018 2.99189 18.7697 0.494388C18.2233 0.165659 17.5965 -0.00540857 16.9589 0.000130362C16.3212 0.0056693 15.6975 0.187599 15.1569 0.52577C13.355 1.54438 4.33655 6.49492 1.64815 7.98688C1.13655 8.24386 0.709478 8.64229 0.417655 9.13484C0.125833 9.62739 -0.0184689 10.1934 0.00189239 10.7655V25.8538C-0.0113175 26.4109 0.124081 26.9616 0.394169 27.4491C0.694473 27.9481 1.12595 28.3551 1.64161 28.6259C4.33002 30.1178 13.3498 35.0684 15.1516 36.087C15.692 36.4256 16.3156 36.6079 16.9533 36.6139C17.5909 36.6199 18.2178 36.4493 18.7645 36.121C23.2888 33.6183 27.8156 31.1195 32.3451 28.6246C32.8609 28.3535 33.2927 27.9465 33.5939 27.4477C33.864 26.9603 33.9994 26.4096 33.9862 25.8525V10.7668" fill="#659AD2"/>
<path d="M33.4094 27.6859C33.4778 27.6102 33.542 27.5307 33.6017 27.4479C33.8717 26.9605 34.0071 26.4098 33.9939 25.8527V10.767C34.0065 10.197 33.8627 9.63443 33.5781 9.14037C33.531 9.06322 33.4617 9.00307 33.4081 8.93115L17.0005 18.3092L33.4094 27.6859Z" fill="#00599C"/>
<path d="M33.4092 27.6858L17.0003 18.3091L0.591309 27.6858C0.868779 28.0751 1.23033 28.3968 1.64915 28.6273C4.33756 30.1192 13.3573 35.0698 15.1592 36.0884C15.6996 36.427 16.3231 36.6093 16.9608 36.6153C17.5985 36.6213 18.2254 36.4507 18.772 36.1224C23.2963 33.6197 27.8232 31.1209 32.3527 28.626C32.771 28.3959 33.1321 28.0746 33.4092 27.6858Z" fill="#004482"/>
<path d="M21.7078 20.9502C21.1253 21.9861 20.2167 22.8004 19.1235 23.2663C18.0302 23.7322 16.8136 23.8236 15.663 23.5264C14.5124 23.2291 13.4923 22.5598 12.7615 21.6227C12.0307 20.6855 11.6303 19.5331 11.6224 18.3447C11.6146 17.1563 11.9998 15.9987 12.7181 15.052C13.4364 14.1052 14.4476 13.4225 15.5942 13.1101C16.7408 12.7976 17.9585 12.873 19.0578 13.3244C20.1571 13.7759 21.0764 14.578 21.6725 15.6061L26.3994 12.8955C25.1996 10.8364 23.3561 9.22895 21.1528 8.32071C18.9495 7.41247 16.5087 7.25384 14.2064 7.86925C11.9041 8.48467 9.86799 9.83999 8.41174 11.7264C6.95549 13.6129 6.15988 15.9258 6.14747 18.3089C6.14511 20.1986 6.64125 22.0555 7.58582 23.6923C8.54232 25.3454 9.91722 26.7176 11.5723 27.6708C13.2273 28.624 15.1042 29.1247 17.0141 29.1224C18.924 29.1202 20.7997 28.6151 22.4525 27.658C24.1052 26.7009 25.4769 25.3254 26.4295 23.67L21.7078 20.9502Z" fill="white"/>
<path d="M27.5609 17.705H26.35V16.5007H25.1405V17.705H23.9297V18.9119H25.1405V20.1149H26.35V18.9119H27.5609V17.705Z" fill="white"/>
<path d="M32.1017 17.705H30.8909V16.5007H29.6801V17.705H28.4692V18.9119H29.6801V20.1149H30.8909V18.9119H32.1017V17.705Z" fill="white"/>
</svg>
