<svg width="35" height="35" viewBox="0 0 35 35" fill="none" xmlns="http://www.w3.org/2000/svg">
<path d="M0 0H34.443V34.443H0V0Z" fill="#F5DE19"/>
<path d="M23.1371 26.9085C23.4305 27.5046 23.8865 28.0056 24.4524 28.3538C25.0182 28.7021 25.671 28.8833 26.3354 28.8766C27.6762 28.8766 28.5336 28.2062 28.5336 27.2775C28.5336 26.1704 27.6528 25.7743 26.1767 25.1285L25.3673 24.7816C23.0301 23.7864 21.4801 22.5403 21.4801 19.9055C21.4801 17.4785 23.3253 15.6296 26.2197 15.6296C27.1567 15.562 28.0929 15.7717 28.9114 16.2326C29.73 16.6935 30.3948 17.3852 30.8228 18.2214L28.2925 19.839C28.1276 19.4244 27.8407 19.0696 27.4696 18.8218C27.0986 18.574 26.661 18.4449 26.2148 18.4515C26.0202 18.432 25.8236 18.4533 25.6376 18.5139C25.4516 18.5746 25.2803 18.6734 25.1346 18.8039C24.9889 18.9345 24.872 19.0939 24.7914 19.2721C24.7107 19.4504 24.668 19.6434 24.6661 19.839C24.6661 20.8096 25.2676 21.2032 26.6564 21.8072L27.4658 22.1541C30.2163 23.3338 31.7712 24.5356 31.7712 27.2381C31.7712 30.1522 29.482 31.7489 26.4079 31.7489C25.2102 31.8252 24.0159 31.5533 22.9693 30.9659C21.9227 30.3786 21.0684 29.5008 20.5096 28.4387L23.1371 26.9085ZM11.7032 27.1889C12.2113 28.0906 12.6738 28.8533 13.7858 28.8533C14.8486 28.8533 15.5203 28.4375 15.5203 26.8199V15.8141H18.7567V26.8629C18.7567 30.2138 16.7885 31.7391 13.9236 31.7391C12.9109 31.7944 11.9052 31.5421 11.0386 31.0151C10.172 30.4882 9.48519 29.7114 9.06836 28.7868L11.7032 27.1889Z" fill="black"/>
</svg>
