<svg width="34" height="18" viewBox="0 0 34 18" fill="none" xmlns="http://www.w3.org/2000/svg">
<path d="M17 17.8864C26.3888 17.8864 34 13.8824 34 8.94321C34 4.00401 26.3888 0 17 0C7.61116 0 0 4.00401 0 8.94321C0 13.8824 7.61116 17.8864 17 17.8864Z" fill="url(#paint0_radial_201_98)"/>
<path d="M17.0001 17.2223C26.0221 17.2223 33.3359 13.5157 33.3359 8.94331C33.3359 4.37094 26.0221 0.664307 17.0001 0.664307C7.97809 0.664307 0.664307 4.37094 0.664307 8.94331C0.664307 13.5157 7.97809 17.2223 17.0001 17.2223Z" fill="#6280B6"/>
<path d="M20.3089 11.6148L21.1188 7.44494C21.2342 7.08808 21.2532 6.70705 21.1738 6.34048C21.0945 5.97391 20.9197 5.63482 20.6671 5.35759C19.962 4.85691 19.0986 4.63027 18.2385 4.72009H16.8384L17.2404 2.6558C17.2477 2.61736 17.2464 2.57779 17.2367 2.53989C17.227 2.50199 17.209 2.4667 17.1841 2.43655C17.1591 2.4064 17.1279 2.38212 17.0925 2.36544C17.0571 2.34877 17.0184 2.34011 16.9793 2.34009H15.0364C14.9747 2.34007 14.915 2.3615 14.8673 2.40071C14.8197 2.43992 14.7872 2.49447 14.7754 2.55502L13.9144 6.9823C13.8482 6.50894 13.6471 6.06464 13.3352 5.70245C12.988 5.35468 12.5691 5.08685 12.1077 4.9176C11.6463 4.74836 11.1535 4.68178 10.6638 4.72252H6.92137C6.85967 4.7225 6.7999 4.74393 6.75227 4.78314C6.70464 4.82235 6.67213 4.8769 6.66029 4.93744L4.91901 13.8989C4.91168 13.9373 4.91293 13.9769 4.92266 14.0148C4.93239 14.0527 4.95036 14.088 4.9753 14.1181C5.00023 14.1483 5.03152 14.1726 5.06691 14.1892C5.10231 14.2059 5.14095 14.2146 5.18008 14.2146H7.12658C7.18827 14.2146 7.24805 14.1932 7.29568 14.154C7.34331 14.1148 7.37582 14.0602 7.38765 13.9997L7.80901 11.8322H9.26615C9.90952 11.8493 10.5517 11.7674 11.1702 11.5893C11.6916 11.4168 12.1685 11.1311 12.5666 10.7527C12.8928 10.4555 13.1713 10.1098 13.3923 9.7278L13.0438 11.5189C13.0365 11.5573 13.0377 11.5969 13.0474 11.6348C13.0572 11.6727 13.0752 11.708 13.1001 11.7381C13.125 11.7683 13.1563 11.7926 13.1917 11.8092C13.2271 11.8259 13.2657 11.8346 13.3049 11.8346H15.2477C15.3094 11.8346 15.3692 11.8132 15.4168 11.774C15.4645 11.7348 15.497 11.6802 15.5088 11.6197L16.4644 6.70059H17.7929C18.3587 6.70059 18.5214 6.81352 18.57 6.86209C18.6186 6.91066 18.6914 7.06244 18.6004 7.55302L17.8293 11.5177C17.822 11.5561 17.8232 11.5957 17.8329 11.6336C17.8427 11.6715 17.8607 11.7068 17.8856 11.7369C17.9105 11.7671 17.9418 11.7913 17.9772 11.808C18.0126 11.8247 18.0512 11.8333 18.0904 11.8334H20.0575C20.118 11.831 20.1759 11.8081 20.2216 11.7683C20.2674 11.7286 20.2981 11.6744 20.3089 11.6148ZM11.3292 8.17352C11.2698 8.68331 11.0278 9.15435 10.648 9.49952C10.1709 9.7963 9.61142 9.93287 9.05122 9.8893H8.18665L8.81201 6.67023H9.93037C10.7524 6.67023 11.0827 6.8463 11.2163 6.99323C11.3182 7.17054 11.381 7.36759 11.4005 7.57116C11.4199 7.77472 11.3956 7.9801 11.3292 8.17352Z" fill="white"/>
<path d="M28.5913 5.70347C28.244 5.35571 27.8251 5.08787 27.3637 4.91863C26.9023 4.74939 26.4096 4.68281 25.9198 4.72354H22.1665C22.1048 4.72352 22.045 4.74496 21.9974 4.78417C21.9498 4.82338 21.9172 4.87792 21.9054 4.93847L20.1641 13.8999C20.1568 13.9383 20.158 13.9779 20.1678 14.0158C20.1775 14.0537 20.1955 14.089 20.2204 14.1192C20.2454 14.1493 20.2766 14.1736 20.312 14.1903C20.3474 14.2069 20.3861 14.2156 20.4252 14.2156H22.3778C22.4395 14.2156 22.4992 14.1942 22.5469 14.155C22.5945 14.1158 22.627 14.0612 22.6388 14.0007L23.0602 11.8332H24.5173C25.1607 11.8504 25.8029 11.7685 26.4213 11.5903C26.9428 11.4178 27.4197 11.1321 27.8178 10.7537C28.4996 10.1392 28.9589 9.31654 29.1243 8.41376C29.255 7.95191 29.2748 7.46576 29.1822 6.99482C29.0895 6.52387 28.8871 6.08143 28.5913 5.70347ZM26.5671 8.17333C26.5077 8.68312 26.2657 9.15416 25.8858 9.49933C25.4076 9.79644 24.8467 9.93262 24.2854 9.8879H23.4233L24.0486 6.66883H25.167C25.9891 6.66883 26.3193 6.8449 26.4529 6.99183C26.5552 7.1692 26.6183 7.36642 26.638 7.57021C26.6576 7.77401 26.6335 7.97966 26.5671 8.17333Z" fill="white"/>
<path d="M9.93043 6.40292C10.1924 6.36994 10.4584 6.38923 10.7128 6.45968C10.9673 6.53013 11.2053 6.65033 11.4131 6.81335C11.5471 7.01973 11.6326 7.25382 11.6631 7.49801C11.6936 7.7422 11.6683 7.99013 11.5891 8.22314C11.5197 8.79687 11.2424 9.32523 10.8096 9.70821C10.2876 10.0444 9.67057 10.2021 9.05129 10.1575H7.86371L8.59229 6.40656L9.93043 6.40292ZM5.17407 13.9509H7.12664L7.58929 11.5685H9.26136C9.87681 11.5853 10.4912 11.5071 11.0828 11.3366C11.5683 11.1762 12.0121 10.91 12.3821 10.557C13.0224 9.98095 13.4537 9.20887 13.6085 8.36156C13.731 7.94022 13.7526 7.49592 13.6713 7.0647C13.5901 6.63348 13.4084 6.22746 13.141 5.87956C12.8185 5.56061 12.4304 5.31584 12.0036 5.16233C11.5768 5.00881 11.1217 4.95024 10.6699 4.99071H6.92143L5.17407 13.9509Z" fill="#000004"/>
<path d="M15.0415 2.60693H16.9844L16.5145 4.98936H18.24C19.0325 4.90642 19.8287 5.10783 20.4864 5.55765C20.7041 5.80509 20.8529 6.10542 20.9179 6.42852C20.9829 6.75162 20.9618 7.08613 20.8568 7.39851L20.0468 11.5684H18.0809L18.852 7.60372C18.9057 7.4524 18.9248 7.29097 18.908 7.13128C18.8912 6.97159 18.8389 6.81769 18.7548 6.68086C18.4736 6.47943 18.1263 6.39259 17.7834 6.43801H16.2352L15.237 11.572H13.2942L15.0415 2.60693Z" fill="#000004"/>
<path d="M25.1685 6.40292C25.4305 6.36994 25.6964 6.38923 25.9509 6.45968C26.2054 6.53013 26.4434 6.65033 26.6511 6.81335C26.7852 7.01973 26.8706 7.25382 26.9011 7.49801C26.9316 7.7422 26.9064 7.99013 26.8272 8.22314C26.7578 8.79687 26.4804 9.32523 26.0476 9.70821C25.5246 10.0452 24.9062 10.2029 24.2857 10.1575H23.0981L23.8267 6.40656L25.1685 6.40292ZM20.4121 13.9509H22.3647L22.8273 11.5685H24.4994C25.1149 11.5853 25.7292 11.5071 26.3208 11.3366C26.8064 11.1762 27.2502 10.91 27.6201 10.557C28.2605 9.98095 28.6918 9.20887 28.8465 8.36156C28.9691 7.94022 28.9906 7.49592 28.9094 7.0647C28.8282 6.63348 28.6465 6.22746 28.379 5.87956C28.0566 5.56061 27.6684 5.31584 27.2416 5.16233C26.8149 5.00881 26.3597 4.95024 25.908 4.99071H22.1534L20.4121 13.9509Z" fill="#000004"/>
<defs>
<radialGradient id="paint0_radial_201_98" cx="0" cy="0" r="1" gradientUnits="userSpaceOnUse" gradientTransform="translate(10.2073 3.145) scale(22.3234)">
<stop stop-color="white"/>
<stop offset="0.5" stop-color="#4C6B96"/>
<stop offset="1" stop-color="#231F20"/>
</radialGradient>
</defs>
</svg>
