<svg width="39" height="34" viewBox="0 0 39 34" fill="none" xmlns="http://www.w3.org/2000/svg">
<path d="M19.9433 20.2299C21.8139 20.2299 23.3303 18.7135 23.3303 16.843C23.3303 14.9724 21.8139 13.4561 19.9433 13.4561C18.0728 13.4561 16.5564 14.9724 16.5564 16.843C16.5564 18.7135 18.0728 20.2299 19.9433 20.2299Z" fill="#00D8FF"/>
<path d="M19.9434 24.6087C15.8725 24.7072 11.8117 24.1584 7.91299 22.983C6.11199 22.4121 4.43222 21.5127 2.95859 20.3303C2.39627 19.9264 1.92798 19.4056 1.58586 18.8037C1.24374 18.2018 1.03589 17.533 0.976562 16.8432C0.976562 14.6037 3.43683 12.409 7.55804 10.9729C11.561 9.70047 15.7435 9.08377 19.9434 9.14671C24.0872 9.08881 28.2136 9.69437 32.1661 10.9404C33.9006 11.4934 35.5234 12.3493 36.9593 13.4684C37.512 13.8535 37.9733 14.3554 38.3104 14.9386C38.6475 15.5218 38.8523 16.172 38.9102 16.8432C38.9102 19.1707 36.16 21.5293 31.7299 22.9952C27.9066 24.1323 23.9316 24.6765 19.9434 24.6087ZM19.9434 10.767C15.9253 10.7133 11.9242 11.2996 8.09047 12.5038C4.29711 13.8274 2.59687 15.6374 2.59687 16.8391C2.59687 18.0963 4.42446 20.0729 8.43729 21.4453C12.1671 22.5642 16.0506 23.085 19.9434 22.9884C23.7589 23.0566 27.5625 22.5404 31.2218 21.4575C35.3878 20.077 37.2844 18.0977 37.2844 16.8432C37.2161 16.4127 37.0592 16.001 36.8237 15.6342C36.5882 15.2674 36.2791 14.9534 35.9161 14.7121C34.6315 13.7193 33.1818 12.9607 31.6337 12.4713C27.8526 11.2842 23.906 10.7089 19.9434 10.767Z" fill="#00D8FF"/>
<path d="M12.2484 33.7358C11.6164 33.7503 10.9919 33.597 10.4385 33.2914C8.49844 32.1724 7.82648 28.9453 8.64069 24.6575C9.53843 20.554 11.0939 16.6227 13.2469 13.0159C15.2665 9.39747 17.852 6.12544 20.9054 3.32389C22.2509 2.09742 23.8031 1.11906 25.49 0.434162C26.1001 0.148223 26.7657 0 27.4395 0C28.1133 0 28.7789 0.148223 29.389 0.434162C31.4063 1.59656 32.0742 5.1569 31.1326 9.72654C30.2071 13.6074 28.6921 17.3233 26.6402 20.7449C24.6917 24.3206 22.1876 27.5642 19.2215 30.3543C17.8271 31.6288 16.2089 32.6343 14.4486 33.3199C13.7439 33.5814 13 33.7221 12.2484 33.7358ZM14.6505 13.8207C12.5968 17.2744 11.1059 21.0331 10.2339 24.9555C9.48472 28.9047 10.2041 31.2796 11.25 31.8838C12.3338 32.5111 14.9648 31.9163 18.1593 29.1255C20.9908 26.4525 23.3809 23.3477 25.2407 19.9266C27.2064 16.6555 28.6597 13.1028 29.5502 9.39191C30.4363 5.09051 29.6708 2.45684 28.5843 1.83093C28.1771 1.6749 27.7419 1.60505 27.3063 1.6258C26.8707 1.64656 26.4441 1.75746 26.0536 1.95151C24.552 2.57111 23.1716 3.45074 21.9757 4.54996C19.0584 7.23347 16.5887 10.3659 14.6599 13.8288L14.6505 13.8207Z" fill="#00D8FF"/>
<path d="M27.6344 33.7533C25.7987 33.7533 23.4671 32.6424 21.0394 30.5547C17.9325 27.7277 15.3033 24.4168 13.2535 20.7502C11.1275 17.1931 9.58435 13.3187 8.68252 9.27396C8.29141 7.49445 8.21893 5.65969 8.46846 3.85488C8.52615 3.18536 8.73002 2.53665 9.06569 1.95449C9.40136 1.37233 9.86066 0.8709 10.4112 0.485559C12.4258 -0.680899 15.8438 0.518074 19.3324 3.61508C22.2324 6.35468 24.6951 9.52284 26.6346 13.0091C28.7593 16.4832 30.3186 20.2727 31.2544 24.2361C31.6623 26.0809 31.7252 27.9852 31.44 29.8529C31.3721 30.5417 31.1561 31.2077 30.8067 31.8051C30.4574 32.4026 29.9829 32.9174 29.4159 33.3144C28.8715 33.6161 28.2567 33.7676 27.6344 33.7533ZM14.6557 19.9347C16.6221 23.4387 19.1336 26.6074 22.0961 29.3219C25.143 31.9433 27.5599 32.5069 28.599 31.8959C29.6828 31.266 30.4821 28.6946 29.6584 24.5341C28.756 20.7501 27.2603 17.1329 25.227 13.8165C23.3761 10.4799 21.0255 7.44619 18.2567 4.82083C14.9727 1.90536 12.3092 1.25371 11.2241 1.88233C10.8858 2.15719 10.6083 2.49919 10.4089 2.88674C10.2095 3.27429 10.0927 3.69897 10.0657 4.13396C9.85034 5.74354 9.92051 7.37851 10.273 8.96372C11.1405 12.8318 12.6205 16.5364 14.6571 19.9374L14.6557 19.9347Z" fill="#00D8FF"/>
</svg>
