<svg width="34" height="26" viewBox="0 0 34 26" fill="none" xmlns="http://www.w3.org/2000/svg">
<path d="M29.2733 14.6559C28.2057 14.6573 27.1524 14.9015 26.193 15.3699C25.8926 14.8714 25.6607 14.3348 25.5034 13.7745C25.413 13.3352 25.3921 12.8846 25.4414 12.4389C25.5452 11.9484 25.6798 11.4651 25.8445 10.9916C25.8385 10.9297 25.7705 10.6371 25.0869 10.6273C24.4033 10.6176 23.8145 10.7573 23.7513 10.9382C23.6326 11.2686 23.5373 11.607 23.466 11.9508C22.9002 13.3465 22.2039 14.6856 21.3861 15.9502C20.928 15.1992 20.7395 14.3143 20.8519 13.4418C20.9557 12.9513 21.0903 12.468 21.255 11.9945C21.2489 11.9326 21.1809 11.64 20.4974 11.6302C19.8138 11.6205 19.2249 11.7602 19.1618 11.9411C19.0986 12.122 19.0185 12.5481 18.8765 12.9537C18.7344 13.3592 17.0759 17.0648 16.6412 18.0204C16.4178 18.506 16.2247 18.9019 16.0887 19.169C16.0823 19.1863 16.0742 19.203 16.0645 19.2188C15.943 19.4482 15.8787 19.5733 15.8787 19.5733V19.5794C15.7852 19.7469 15.6856 19.9023 15.6359 19.9023C15.549 19.5554 15.5532 19.192 15.648 18.8472C15.8908 17.5614 16.4858 15.5629 16.4797 15.4937C16.4797 15.4561 16.5914 15.1088 16.0948 14.9291C15.9796 14.8743 15.8503 14.8566 15.7246 14.8783C15.5989 14.9 15.4831 14.9602 15.393 15.0505C15.3493 15.0505 15.319 15.1562 15.319 15.1562C15.319 15.1562 15.8593 12.9088 14.2881 12.9088C13.6763 13.0318 13.0953 13.276 12.5792 13.6269C12.0631 13.9779 11.6225 14.4284 11.2831 14.9522C10.8606 15.1817 9.96087 15.6722 8.99804 16.2003C8.63379 16.4055 8.25254 16.6107 7.89922 16.8074C7.87494 16.7831 7.84944 16.7516 7.82516 16.7273C5.91285 14.6899 2.39786 13.2524 2.54963 10.5266C2.60548 9.53338 2.94666 6.92536 9.29915 3.75762C14.5273 1.18116 18.6883 1.89509 19.4083 3.47836C20.4391 5.73913 17.1791 9.93649 11.7773 10.5448C11.1797 10.666 10.5624 10.6514 9.97126 10.502C9.38008 10.3525 8.83004 10.0721 8.36182 9.68151C8.07649 9.37069 8.03278 9.35247 7.92715 9.4144C7.75352 9.50789 7.86523 9.78714 7.92715 9.94863C8.13322 10.3216 8.41195 10.6494 8.74687 10.9128C9.08178 11.1762 9.46609 11.3698 9.87709 11.4821C12.0022 11.9413 14.2178 11.7218 16.2114 10.8544C19.4896 9.58802 22.0393 6.06695 21.2914 3.11775C20.5399 0.124844 15.5727 -0.86227 10.8715 0.810845C7.92684 1.80169 5.20601 3.36241 2.86409 5.40402C0.274287 7.82627 -0.134885 9.93041 0.0326689 10.8131C0.63975 13.9432 4.95124 15.9794 6.67656 17.491C6.58914 17.5408 6.50901 17.5845 6.44101 17.6209C5.57774 18.0495 2.28737 19.77 1.46295 21.5888C0.531689 23.6529 1.61229 25.1281 2.32622 25.3272C3.40198 25.5847 4.53129 25.4999 5.55651 25.0846C6.58173 24.6693 7.45168 23.9442 8.04492 23.0106C8.55009 22.2362 8.86061 21.3512 8.95003 20.431C9.03945 19.5107 8.90514 18.5825 8.55851 17.7253C8.55266 17.7115 8.54444 17.6987 8.53423 17.6877L9.21052 17.2907C9.65126 17.0296 10.0859 16.788 10.4587 16.5889C10.2059 17.3179 10.0575 18.079 10.0179 18.8496C9.93211 20.0307 10.2936 21.2009 11.0305 22.1279C11.1427 22.2244 11.2729 22.2977 11.4136 22.3436C11.5542 22.3894 11.7026 22.4069 11.8501 22.395C12.5786 22.395 12.9125 21.7879 13.278 21.0667C13.7248 20.1852 14.1279 19.1605 14.1279 19.1605C14.1279 19.1605 13.6252 21.93 14.9911 21.93C15.4877 21.93 15.9904 21.284 16.215 20.9586V20.9647C16.215 20.9647 16.2272 20.9465 16.2527 20.9028L16.3328 20.7729V20.7607C16.5319 20.4135 16.9787 19.6243 17.6429 18.3142C18.5001 16.6253 19.3257 14.5139 19.3257 14.5139C19.4053 14.9779 19.5152 15.4362 19.6547 15.8859C19.8547 16.431 20.0912 16.9619 20.3626 17.4752C20.1635 17.7545 20.0396 17.9099 20.0396 17.9099L20.0457 17.916C19.8842 18.1272 19.7106 18.3567 19.5175 18.5801C18.9432 19.2116 18.4102 19.8795 17.9221 20.5798C17.8496 20.6974 17.8247 20.8383 17.8524 20.9737C17.8802 21.109 17.9585 21.2287 18.0715 21.3083C18.3271 21.4413 18.6184 21.4894 18.9032 21.4455C19.3323 21.4213 19.7543 21.3248 20.1513 21.1602C20.535 21.0252 20.897 20.835 21.2259 20.5956C21.5649 20.3607 21.8378 20.0426 22.0183 19.6717C22.1989 19.3009 22.2809 18.8898 22.2567 18.4781C22.2185 17.9595 22.086 17.4521 21.8657 16.9811C21.9276 16.8936 21.9871 16.8074 22.0454 16.72C22.7357 15.6897 23.3579 14.6153 23.9079 13.5037C23.9876 13.9677 24.0975 14.426 24.237 14.8757C24.4019 15.3467 24.605 15.8036 24.8441 16.2416C24.0499 16.8526 23.4244 17.6557 23.0265 18.5752C22.6355 19.7056 22.939 20.2144 23.5121 20.3321C23.8257 20.3538 24.1393 20.2895 24.4191 20.1464C24.8306 20.0111 25.2182 19.812 25.5677 19.5563C25.9363 19.3388 26.245 19.033 26.466 18.6666C26.6871 18.3001 26.8136 17.8845 26.8341 17.457C26.8065 17.0303 26.7102 16.6109 26.5487 16.2149C27.5967 15.8055 28.7329 15.675 29.8464 15.8361C32.8017 16.1833 33.3857 18.0277 33.274 18.8047C33.2216 19.0802 33.1108 19.3413 32.9492 19.5704C32.7875 19.7995 32.5786 19.9913 32.3367 20.133C32.1315 20.2629 32.0635 20.3066 32.0817 20.4001C32.106 20.5373 32.2031 20.53 32.3791 20.5058C32.8246 20.3673 33.2175 20.0971 33.5063 19.7308C33.795 19.3645 33.9659 18.9193 33.9964 18.4538C34.0899 16.6326 32.3512 14.6353 29.277 14.6535L29.2733 14.6559ZM6.47137 22.3391C5.49033 23.4076 4.12439 23.8107 3.53431 23.4695C2.90052 23.1053 3.14942 21.5269 4.35387 20.3953C5.06834 19.7521 5.84058 19.1762 6.66078 18.6748C6.80405 18.5874 7.01531 18.4635 7.26786 18.3106L7.33585 18.2729L7.48519 18.1794C7.70037 18.9004 7.71988 19.6656 7.54172 20.3966C7.36356 21.1276 6.99415 21.798 6.47137 22.3391ZM13.6119 17.4825C13.2707 18.3142 12.5567 20.4451 12.1221 20.3261C11.7493 20.2265 11.515 18.6117 12.048 17.0163C12.3171 16.2482 12.7091 15.529 13.2088 14.8866C13.743 14.2905 14.3331 14.0913 14.4751 14.3342C14.3455 15.4207 14.0546 16.4818 13.6119 17.4825ZM19.5042 20.3018C19.3609 20.3758 19.2249 20.4232 19.163 20.3892C19.1193 20.3649 19.2249 20.2678 19.2249 20.2678C19.2249 20.2678 19.9643 19.4725 20.2557 19.1131C20.4233 18.9019 20.62 18.6542 20.8337 18.3737V18.4538C20.8337 19.4033 19.9146 20.0432 19.5054 20.3042L19.5042 20.3018ZM24.05 19.2649C23.9444 19.1908 23.9626 18.9419 24.3171 18.1661C24.5636 17.6678 24.908 17.2243 25.3297 16.8621C25.3944 17.0459 25.428 17.2391 25.4293 17.4339C25.4341 17.8486 25.3015 18.2532 25.0522 18.5847C24.8029 18.9161 24.451 19.1557 24.0512 19.2661L24.05 19.2649Z" fill="#CD6799"/>
</svg>
