<svg width="35" height="35" viewBox="0 0 35 35" fill="none" xmlns="http://www.w3.org/2000/svg">
<path d="M32.8291 0H1.6139C0.722567 0 0 0.722567 0 1.6139V32.8291C0 33.7204 0.722567 34.443 1.6139 34.443H32.8291C33.7204 34.443 34.443 33.7204 34.443 32.8291V1.6139C34.443 0.722567 33.7204 0 32.8291 0Z" fill="#3178C6"/>
<path fill-rule="evenodd" clip-rule="evenodd" d="M19.9829 26.766V30.54C20.6686 30.8784 21.3994 31.1166 22.1528 31.2473C23.0235 31.408 23.9073 31.4871 24.7926 31.4835C25.6555 31.4876 26.5165 31.4006 27.3611 31.2239C28.1194 31.0707 28.843 30.7788 29.4953 30.3628C30.1009 29.9719 30.6001 29.4368 30.9481 28.8055C31.5713 27.4983 31.6535 25.998 31.1769 24.6305C30.9757 24.1192 30.6761 23.6523 30.2949 23.2565C29.8857 22.8356 29.421 22.4727 28.9135 22.1777C28.3292 21.8355 27.7222 21.5339 27.0966 21.2748C26.6046 21.0706 26.1617 20.8722 25.7681 20.6794C25.4185 20.5121 25.0839 20.3149 24.768 20.0902C24.5206 19.9168 24.3058 19.7011 24.1333 19.453C23.9843 19.2278 23.9067 18.9629 23.9106 18.6928C23.9074 18.4443 23.9766 18.2002 24.1099 17.9904C24.2547 17.7709 24.4478 17.5874 24.6745 17.4541C24.9516 17.291 25.2532 17.1734 25.5676 17.106C25.9536 17.0202 26.3482 16.979 26.7436 16.983C27.0761 16.9841 27.4082 17.008 27.7375 17.0543C28.0931 17.1024 28.445 17.1752 28.7905 17.2721C29.1419 17.3695 29.4856 17.4928 29.8188 17.6411C30.1422 17.7852 30.4514 17.959 30.7426 18.1602V14.6384C30.1363 14.409 29.5076 14.2441 28.8667 14.1464C28.0929 14.0337 27.3115 13.9807 26.5295 13.9877C25.6748 13.9831 24.8225 14.0801 23.9906 14.2767C23.2387 14.4486 22.5237 14.754 21.8797 15.1784C21.2815 15.5769 20.7875 16.1131 20.4393 16.7419C20.0702 17.4402 19.8876 18.2219 19.9091 19.0114C19.8818 20.0555 20.2257 21.0754 20.8797 21.8899C21.6819 22.7929 22.6935 23.4852 23.8258 23.906C24.3424 24.1192 24.8242 24.3279 25.2711 24.5321C25.6744 24.7116 26.062 24.9243 26.4299 25.1681C26.7267 25.3611 26.9873 25.6047 27.1999 25.8877C27.3869 26.1444 27.4862 26.4546 27.4829 26.7722C27.4846 27.0101 27.4235 27.2444 27.3057 27.4512C27.1749 27.6734 26.9911 27.8598 26.7706 27.9937C26.4948 28.1618 26.193 28.2832 25.8776 28.3528C25.4667 28.4447 25.0464 28.4881 24.6253 28.482C23.7991 28.4805 22.9794 28.3348 22.2033 28.0515C21.3924 27.7589 20.6404 27.3235 19.9829 26.766ZM13.6429 17.3705H18.5634V14.262H4.84399V17.3705H9.74228V31.2141H13.6429V17.3705Z" fill="white"/>
</svg>
