<svg width="221" height="252" viewBox="0 0 221 252" fill="none" xmlns="http://www.w3.org/2000/svg">
<path d="M-23.5029 14.5556C-24.8897 14.2714 -30.1052 15.1481 -30.3156 13.5959C-32.2268 12.7148 -34.3896 11.2403 -36.7026 11.2403C-38.5548 11.2403 -39.5627 15.9794 -40.5347 17.3475C-43.6271 21.6995 -46.1201 25.6529 -48.5776 30.3907C-50.5089 34.114 -51.1765 37.3616 -52.6463 41.4272C-56.6384 52.4698 -57.0664 65.3037 -58.7967 76.7617C-60.9697 91.1513 -61.0792 105.535 -60.973 120.035C-60.7648 148.442 -56.4094 176.809 -52.8355 204.969C-51.1556 218.206 -48.3818 233.852 -42.2852 246.149C-39.2961 252.178 -33.889 256.884 -29.464 261.984C-27.0397 264.778 -25.7445 264.863 -22.1782 264.863C-3.9396 264.863 11.8116 269.051 30.072 269.051C48.8506 269.051 70.2684 264.052 88.3397 269.051C102.83 273.059 119.722 267.227 134.753 269.051C143.935 270.165 152.628 269.563 161.8 269.051C177.083 268.197 191.586 269.569 207.232 271.974C209.406 272.308 209.115 269.365 212.01 269.051C213.178 268.924 217.094 265.842 217.687 264.863C219.361 262.101 220.904 259.807 220.904 256.618C220.904 254.424 221.119 252.125 220.904 249.944C220.475 245.587 217.039 247.102 214.896 244.797C213.834 243.654 212.388 243.393 212.388 241.699C212.388 240.887 212.672 239.592 212.01 238.951C209.895 236.903 199.563 232.217 203.589 229.005C206.768 226.468 210.815 225.123 214.754 223.945C218.324 222.877 216.541 223.493 214.47 222.723C210.217 221.142 212.735 219.831 213.997 217.358C215.99 213.452 215.205 211.737 214.281 208.328C213.971 207.186 215.779 206.205 216.268 205.362C217.593 203.077 211.76 202.488 210.591 202.221C207.861 201.597 204.514 201.372 203.825 198.513C203.23 196.045 205.17 192.385 204.298 190.617C202.252 186.466 202.373 185.375 203.683 180.409C204.57 177.048 203.69 173.263 204.346 169.809C204.628 168.322 196 167 205.623 164.88C203.589 160.5 196.058 158.956 196 158C195.591 151.204 181.999 154.84 177.284 153.974C172.747 153.141 164.17 151.158 163.848 145.511C163.537 140.062 165.398 139.292 167.964 134.954C170.363 130.898 172.178 126.698 174.256 122.129C176.01 118.273 176.622 115.423 176.622 111.355C176.622 109.833 177.159 109.543 177.757 108.257C178.021 107.69 173.421 107.301 173.404 107.298C170.802 106.8 168.036 106.13 165.835 104.68C163.844 103.369 165.855 97.9845 166.828 95.6503C168.109 92.5807 166.383 87.7863 162.996 86.9694C156.814 85.4787 142.558 86.8031 142.558 77.9831C142.558 76.6407 140.908 71.4873 141.044 71.2652C141.465 70.5755 144.506 71.1521 143.599 69.9565C142.798 68.9022 144.353 67.6126 144.072 66.5103C143.067 62.5735 137.121 61.1025 135.84 57.2623C135.197 55.3349 133.349 55.9625 131.203 55.9972C129.072 56.0317 125.099 59.8048 123.634 61.4937C117.941 68.0545 108.934 65.8477 102.202 61.1011C99.0791 58.8993 100.641 58.2431 100.641 55.6046C100.641 53.424 98.4645 53.4614 100.451 51.286C101.181 50.4866 100.285 49.0913 101.681 48.9303C102.892 48.7909 100.471 46.7167 99.3158 46.3566C96.1332 45.3647 78.6883 42.9011 78.6883 39.5078C78.6883 38.1592 78.3634 37.0914 77.4109 36.018L77.3822 35.9856C75.7882 34.189 71.8192 29.7155 69.1315 33.2261C66.994 36.0183 63.3596 35.1045 63.3596 39.8568C63.3596 41.148 63.5951 41.3055 64.2112 42.2997C65.5664 44.4864 58.5483 42.8673 57.777 42.8232C54.0705 42.611 32.7023 43.1585 32.7023 35.8871C32.7023 31.67 28.2669 30.3906 26.8831 26.9881C26.4763 25.988 27.0996 24.7576 26.5519 23.8036C25.9074 22.6811 24.2804 23.0084 24.1863 21.448C24.0889 19.8306 23.1639 19.5502 22.1047 18.3072C21.3901 17.4686 20.0739 14.4918 18.7929 14.861C16.6393 15.4815 12.0871 15.3864 11.2232 17.6964C10.3473 20.0387 11.9232 26.2229 9.52002 27.7297C7.30446 29.1188 4.12566 28.7896 1.66644 30.0853C-0.767509 31.3677 -0.227287 34.7802 -3.44313 31.3067C-8.17054 26.2006 -10.7433 18.2368 -7.2753 12.3745C-4.62032 7.88642 -6.15445 10.9155 -8.07958 6.92161C-8.70988 5.61399 -8.36567 2.0772 -9.21504 1.20703C-10.9043 -0.523582 -16.1735 0.040556 -18.346 0.290952C-23.3391 0.866433 -22.8301 14.6935 -23.5029 14.5556Z" fill="url(#paint0_linear_172_343)"/>
<defs>
<linearGradient id="paint0_linear_172_343" x1="111.799" y1="6.0121e-07" x2="53.8786" y2="273.605" gradientUnits="userSpaceOnUse">
<stop stop-color="#94FF8B"/>
<stop offset="1" stop-color="#006804"/>
</linearGradient>
</defs>
</svg>
