<svg width="282" height="272" viewBox="0 0 282 272" fill="none" xmlns="http://www.w3.org/2000/svg">
<path d="M37.4971 14.5556C36.1103 14.2714 30.8948 15.1481 30.6844 13.5959C28.7732 12.7148 26.6104 11.2403 24.2974 11.2403C22.4452 11.2403 21.4373 15.9794 20.4653 17.3475C17.3729 21.6995 14.8799 25.6529 12.4224 30.3907C10.4911 34.114 9.82347 37.3616 8.3537 41.4272C4.36165 52.4698 3.9336 65.3037 2.20331 76.7617C0.0302978 91.1513 -0.0792467 105.535 0.027015 120.035C0.235177 148.442 4.59061 176.809 8.16446 204.969C9.84437 218.206 12.6182 233.852 18.7148 246.149C21.7039 252.178 27.111 256.884 31.536 261.984C33.9603 264.778 35.2555 264.863 38.8218 264.863C57.0604 264.863 72.8116 269.051 91.072 269.051C109.851 269.051 131.268 264.052 149.34 269.051C163.83 273.059 180.722 267.227 195.753 269.051C204.935 270.165 213.628 269.563 222.8 269.051C238.083 268.197 252.586 269.569 268.232 271.974C270.406 272.308 270.115 269.365 273.01 269.051C274.178 268.924 278.094 265.842 278.687 264.863C280.361 262.101 281.904 259.807 281.904 256.618C281.904 254.424 282.119 252.125 281.904 249.944C281.475 245.587 278.039 247.102 275.896 244.797C274.834 243.654 273.388 243.393 273.388 241.699C273.388 240.887 273.672 239.592 273.01 238.951C270.895 236.903 260.563 232.217 264.589 229.005C267.768 226.468 271.815 225.123 275.754 223.945C279.324 222.877 277.541 223.493 275.47 222.723C271.217 221.142 273.735 219.831 274.997 217.358C276.99 213.452 276.205 211.737 275.281 208.328C274.971 207.186 276.779 206.205 277.268 205.362C278.593 203.077 272.76 202.488 271.591 202.221C268.861 201.597 265.514 201.372 264.825 198.513C264.23 196.045 266.17 192.385 265.298 190.617C263.252 186.466 263.373 185.375 264.683 180.409C265.57 177.048 264.69 173.263 265.346 169.809C265.628 168.322 257 167 266.623 164.88C264.589 160.5 257.058 158.956 257 158C256.591 151.204 242.999 154.84 238.284 153.974C233.747 153.141 225.17 151.158 224.848 145.511C224.537 140.062 226.398 139.292 228.964 134.954C231.363 130.898 233.178 126.698 235.256 122.129C237.01 118.273 237.622 115.423 237.622 111.355C237.622 109.833 238.159 109.543 238.757 108.257C239.021 107.69 234.421 107.301 234.404 107.298C231.802 106.8 229.036 106.13 226.835 104.68C224.844 103.369 226.855 97.9845 227.828 95.6503C229.109 92.5807 227.383 87.7863 223.996 86.9694C217.814 85.4787 203.558 86.8031 203.558 77.9831C203.558 76.6407 201.908 71.4873 202.044 71.2652C202.465 70.5755 205.506 71.1521 204.599 69.9565C203.798 68.9022 205.353 67.6126 205.072 66.5103C204.067 62.5735 198.121 61.1025 196.84 57.2623C196.197 55.3349 194.349 55.9625 192.203 55.9972C190.072 56.0317 186.099 59.8048 184.634 61.4937C178.941 68.0545 169.934 65.8477 163.202 61.1011C160.079 58.8993 161.641 58.2431 161.641 55.6046C161.641 53.424 159.464 53.4614 161.451 51.286C162.181 50.4866 161.285 49.0913 162.681 48.9303C163.892 48.7909 161.471 46.7167 160.316 46.3566C157.133 45.3647 139.688 42.9011 139.688 39.5078C139.688 38.1592 139.363 37.0914 138.411 36.018L138.382 35.9856C136.788 34.189 132.819 29.7155 130.132 33.2261C127.994 36.0183 124.36 35.1045 124.36 39.8568C124.36 41.148 124.595 41.3055 125.211 42.2997C126.566 44.4864 119.548 42.8673 118.777 42.8232C115.071 42.611 93.7023 43.1585 93.7023 35.8871C93.7023 31.67 89.2669 30.3906 87.8831 26.9881C87.4763 25.988 88.0996 24.7576 87.5519 23.8036C86.9074 22.6811 85.2804 23.0084 85.1863 21.448C85.0889 19.8306 84.1639 19.5502 83.1047 18.3072C82.3901 17.4686 81.0739 14.4918 79.7929 14.861C77.6393 15.4815 73.0871 15.3864 72.2232 17.6964C71.3473 20.0387 72.9232 26.2229 70.52 27.7297C68.3045 29.1188 65.1257 28.7896 62.6664 30.0853C60.2325 31.3677 60.7727 34.7802 57.5569 31.3067C52.8295 26.2006 50.2567 18.2368 53.7247 12.3745C56.3797 7.88642 54.8456 10.9155 52.9204 6.92161C52.2901 5.61399 52.6343 2.0772 51.785 1.20703C50.0957 -0.523582 44.8265 0.040556 42.654 0.290952C37.6609 0.866433 38.1699 14.6935 37.4971 14.5556Z" fill="url(#paint0_linear_156_86)"/>
<defs>
<linearGradient id="paint0_linear_156_86" x1="172.799" y1="6.0121e-07" x2="114.879" y2="273.605" gradientUnits="userSpaceOnUse">
<stop stop-color="#94FF8B"/>
<stop offset="1" stop-color="#006804"/>
</linearGradient>
</defs>
</svg>
