<svg width="270" height="400" viewBox="0 0 270 400" fill="none" xmlns="http://www.w3.org/2000/svg">
<path d="M48.6682 309.254L45.1924 313.156C44.8614 309.742 44.1 300.962 43.7028 293.158C43.2062 283.404 42.2131 270.234 42.2131 257.553C42.2131 247.408 43.2062 214.957 43.7028 199.999L62.0749 179.026C63.399 172.686 66.2459 156.883 67.0403 144.397C67.8348 131.91 65.7162 99.5242 64.5576 84.8918L72.5023 133.666L76.4747 160.004L64.5576 206.34L106.764 229.752L178.266 224.874C180.583 230.24 200.015 217.07 201.604 224.874C203.193 232.678 202.928 280.152 202.597 302.913L199.618 299.011L189.687 295.597L185.218 297.06C184.721 290.232 183.53 273.941 182.735 263.406C181.941 252.871 176.446 239.181 173.797 233.654L117.688 239.507C85.4125 242.596 68.6293 219.704 67.0403 222.436C65.0542 225.85 63.5645 246.335 63.068 254.627C62.6708 261.26 60.9163 292.833 60.0887 307.791H55.6198L48.6682 309.254Z" fill="url(#paint0_linear_167_10)" stroke="black" strokeWidth="0.5"/>
<path fill-rule="evenodd" clip-rule="evenodd" d="M42.8756 213.127C35.0964 184.025 18.5449 121.139 14.5726 102.409C13.437 97.0548 11.6261 90.6034 9.6923 83.7143C3.17081 60.4813 -4.74801 32.2702 7.12443 24.3701C8.67114 23.3409 10.1076 22.3659 11.4715 21.4401C23.6811 13.1522 30.0796 8.80899 57.7719 4.86038C88.5576 0.470689 120.833 -0.992542 132.75 4.86038C144.667 10.7133 154.101 19.4928 156.088 24.3701C157.677 28.272 167.674 68.9173 172.474 88.7522L182.404 155.085C182.735 157.849 186.178 164.743 197.301 170.205C199.356 171.215 201.757 172.362 204.37 173.611L204.373 173.612L204.375 173.613L204.376 173.613L204.377 173.614C219.442 180.813 238.135 194.276 244.472 198.007C248.754 200.528 247.504 199.475 250.362 201.581C252.506 203.16 254.001 204.517 254.65 205.792C257.33 211.057 257.383 215.566 257.879 222.882C258.276 228.735 265.658 314.74 269.3 357.011L268.803 360.913L257.879 368.717H252.417L240.004 243.367C238.514 239.302 234.144 231.076 228.583 230.686C223.022 230.295 214.349 230.523 210.707 230.686L154.101 249.22C151.288 250.846 144.369 255.658 139.205 261.901C133.082 269.303 132.32 284.165 131.411 301.909C131.361 302.872 131.312 303.843 131.26 304.823C130.466 320.04 130.929 363.515 131.26 383.349V392.617L124.805 398.957H99.4816L94.0196 389.202L90.0472 266.291C89.5507 261.576 87.9618 251.561 85.5783 249.22C85.1291 248.779 84.612 248.226 84.0068 247.58C80.5986 243.94 74.3941 237.313 61.7442 230.686C49.8272 224.443 44.1997 216.379 42.8756 213.127ZM26.3238 72.2106C25.5293 75.7224 26.6548 90.2571 27.3168 97.0855C28.3099 104.889 30.3954 120.985 30.7926 122.936C31.0409 124.155 33.2754 137.568 35.5098 150.981C37.7443 164.394 39.9787 177.807 40.227 179.027C40.6339 181.025 43.7089 182.369 45.8987 183.325C46.3809 183.536 46.8202 183.728 47.1786 183.904C48.4667 184.537 50.3813 183.528 52.3807 182.475C53.4643 181.904 54.5727 181.32 55.6199 180.977C57.4611 180.375 59.1128 180.517 61.3953 180.714C62.8059 180.835 64.4575 180.977 66.5438 180.977C70.51 180.977 70.8107 179.949 71.2483 178.452C71.4134 177.887 71.5979 177.256 72.0058 176.588C72.8296 175.239 72.2867 173.43 71.6368 171.265C71.1114 169.514 70.5162 167.531 70.5162 165.37C70.5162 160.534 65.0542 112.206 63.5646 100.987C62.0749 89.7694 60.0888 85.3797 57.1095 80.99C54.6232 77.3267 46.604 71.965 41.1323 68.3065C40.0473 67.5811 39.0625 66.9226 38.2408 66.3577C33.2754 62.9435 27.3168 67.8209 26.3238 72.2106ZM49.6613 29.7769C49.3303 28.6388 48.9662 26.1676 50.1579 25.3872C50.2492 25.3274 50.3591 25.253 50.488 25.1657C52.4629 23.8286 58.8937 19.4745 71.0127 18.5588C83.9229 17.5833 89.3849 17.5833 91.8676 19.5343C94.009 21.2171 93.934 22.8999 93.8729 24.2697C93.8631 24.488 93.8538 24.6983 93.8538 24.8994C93.8538 26.3627 92.8607 29.2891 91.371 29.2891C89.8814 29.2891 80.9436 29.2891 76.4747 30.2646C75.6204 30.4511 74.6936 30.6554 73.7322 30.8673L73.7279 30.8683L73.7243 30.8691L73.7132 30.8715L73.7108 30.872C69.6485 31.7675 64.977 32.7973 62.5715 33.1911C61.0818 33.435 59.5922 33.9227 58.2888 34.3495C56.9854 34.7763 55.8681 35.1421 55.1233 35.1421C53.6337 35.1421 50.778 33.1911 50.1579 31.2401C49.6618 29.6793 49.6201 29.6143 49.6613 29.7769ZM100.309 85.3797C100.309 88.8914 103.95 110.58 105.771 120.985C106.102 122.773 106.863 127.131 107.26 130.252C107.757 134.154 109.743 149.274 111.729 155.615C113.716 161.955 116.198 164.882 118.681 166.345C121.164 167.808 125.136 166.833 127.122 166.345C128.261 166.066 128.42 165.946 129.471 165.16C130.254 164.575 131.531 163.621 134.074 161.955C139.278 158.547 144.482 158.86 146.709 158.994C147.032 159.013 147.292 159.029 147.481 159.029C148.709 159.029 151.288 156.376 152.99 154.625L152.991 154.623L152.992 154.622C153.353 154.251 153.675 153.92 153.936 153.664C155.226 152.397 155.399 151.495 155.744 149.692C155.771 149.552 155.799 149.406 155.829 149.254C155.845 149.171 155.862 149.086 155.879 148.999L155.903 148.878L155.922 148.786C156.418 146.348 155.922 140.982 155.425 138.056C155.028 135.715 152.28 122.123 150.956 115.62L143.508 83.4287L134.57 56.1151C134.074 53.5138 131.492 48.5062 125.136 49.2866C118.06 50.1555 111.377 58.3762 106.843 63.9541L106.842 63.9552L106.842 63.9562L106.841 63.9571C106.285 64.6406 105.762 65.2843 105.274 65.8699C100.805 71.2351 100.309 80.99 100.309 85.3797ZM107.26 185.855L115.702 182.928C116.364 182.766 117.787 182.636 118.184 183.416C118.681 184.392 118.681 184.879 117.191 185.367L108.254 188.294L103.04 189.757L97.8261 191.22C97.4951 191.383 95.8399 191.708 95.8399 190.732C95.8399 190.557 95.8238 190.397 95.809 190.25C95.7416 189.581 95.7013 189.181 97.3296 188.781C98.9185 188.391 104.612 186.83 107.26 185.855ZM158.404 185.367L149.963 188.294C147.315 189.269 141.621 190.83 140.032 191.22C138.404 191.62 138.475 192.502 138.543 193.171C138.543 194.147 140.198 193.821 140.529 193.659L145.743 192.196L150.956 190.732L159.894 187.806C161.384 187.318 161.384 186.83 160.887 185.855C160.49 185.075 159.067 185.205 158.404 185.367ZM145.029 204.877L153.47 201.95C154.132 201.788 155.555 201.658 155.953 202.438C156.449 203.414 156.449 203.901 154.96 204.389L146.022 207.316L140.808 208.779L135.594 210.242C135.263 210.405 133.577 210.242 133.577 209.754C133.51 209.086 133.47 208.203 135.098 207.803C136.687 207.413 142.381 205.852 145.029 204.877ZM108.254 199.512L99.8123 202.438C97.1641 203.414 91.4703 204.974 89.8814 205.365C88.2531 205.765 88.2934 206.164 88.3608 206.833C88.3608 207.808 90.0469 207.966 90.3779 207.803L95.5917 206.34L100.805 204.877L109.743 201.95C111.233 201.463 111.233 200.975 110.736 199.999C110.339 199.219 108.916 199.349 108.254 199.512ZM183.263 204.877L191.704 201.95C192.366 201.788 193.789 201.658 194.187 202.438C194.683 203.414 194.683 203.901 193.194 204.389L184.256 207.316L179.042 208.779L173.828 210.242C173.497 210.405 171.811 210.247 171.811 209.272C171.744 208.603 171.703 208.203 173.332 207.803C174.921 207.413 180.614 205.852 183.263 204.877ZM137.084 219.997L128.643 222.923C125.995 223.899 120.301 225.46 118.712 225.85C117.084 226.25 117.124 226.645 117.191 227.313C117.191 228.289 118.877 228.451 119.208 228.289L124.422 226.825L129.636 225.362L138.574 222.436C140.063 221.948 140.063 221.46 139.567 220.485C139.17 219.704 137.746 219.834 137.084 219.997Z" fill="url(#paint1_radial_167_10)"/>
<path d="M155.922 148.786C156.418 146.348 155.922 140.982 155.425 138.056C155.028 135.715 152.28 122.123 150.956 115.62L143.508 83.4287L134.57 56.1151C134.074 53.5138 131.492 48.5062 125.136 49.2866C118.06 50.1555 111.377 58.3762 106.843 63.9541L106.842 63.9552L106.842 63.9562L106.841 63.9571C106.285 64.6406 105.762 65.2843 105.274 65.8699C100.805 71.2351 100.309 80.99 100.309 85.3797C100.309 88.8914 103.95 110.58 105.771 120.985C106.102 122.773 106.863 127.131 107.26 130.252C107.757 134.154 109.743 149.274 111.729 155.615C113.716 161.955 116.198 164.882 118.681 166.345C121.164 167.808 125.136 166.833 127.122 166.345C128.261 166.066 128.42 165.946 129.471 165.16C130.254 164.575 131.531 163.621 134.074 161.955C139.278 158.547 144.482 158.86 146.709 158.994C147.032 159.013 147.292 159.029 147.481 159.029C148.709 159.029 151.288 156.376 152.99 154.625L152.991 154.623L152.992 154.622C153.353 154.251 153.675 153.92 153.936 153.664C155.226 152.397 155.399 151.495 155.744 149.692C155.771 149.552 155.799 149.406 155.829 149.254C155.845 149.171 155.862 149.086 155.879 148.999M155.922 148.786C155.916 148.817 155.909 148.848 155.903 148.878M155.922 148.786L155.903 148.878M73.7132 30.8715L73.7108 30.872C69.6485 31.7675 64.977 32.7973 62.5715 33.1911C61.0818 33.435 59.5922 33.9227 58.2888 34.3495C56.9854 34.7763 55.8681 35.1421 55.1233 35.1421C53.6337 35.1421 50.778 33.1911 50.1579 31.2401C49.6618 29.6793 49.6201 29.6143 49.6613 29.7769C49.3303 28.6388 48.9662 26.1676 50.1579 25.3872C50.2492 25.3274 50.3591 25.253 50.488 25.1657C52.4629 23.8286 58.8937 19.4745 71.0127 18.5588C83.9229 17.5833 89.3849 17.5833 91.8676 19.5343C94.009 21.2171 93.934 22.8999 93.8729 24.2697C93.8631 24.488 93.8538 24.6983 93.8538 24.8994C93.8538 26.3627 92.8607 29.2891 91.371 29.2891C89.8814 29.2891 80.9436 29.2891 76.4747 30.2646C75.6204 30.4511 74.6936 30.6554 73.7322 30.8673L73.7279 30.8683L73.7243 30.8691M73.7132 30.8715L73.7243 30.8691M73.7132 30.8715C73.7169 30.8707 73.7206 30.8699 73.7243 30.8691M117.191 185.367C118.681 184.879 118.681 184.392 118.184 183.416C117.787 182.636 116.364 182.766 115.702 182.928L107.26 185.855C104.612 186.83 98.9185 188.391 97.3296 188.781C95.7013 189.181 95.7416 189.581 95.809 190.25C95.8238 190.397 95.8399 190.557 95.8399 190.732C95.8399 191.708 97.4951 191.383 97.8261 191.22L103.04 189.757L108.254 188.294M117.191 185.367C116 185.757 110.736 187.481 108.254 188.294M117.191 185.367L108.254 188.294M155.879 148.999C155.887 148.959 155.895 148.918 155.903 148.878M155.879 148.999L155.903 148.878M42.8756 213.127C35.0964 184.025 18.5449 121.139 14.5726 102.409C13.437 97.0548 11.6261 90.6034 9.6923 83.7143C3.17081 60.4813 -4.74801 32.2702 7.12443 24.3701C8.67114 23.3409 10.1076 22.3659 11.4715 21.4401C23.6811 13.1522 30.0796 8.80899 57.7719 4.86038C88.5576 0.470689 120.833 -0.992542 132.75 4.86038C144.667 10.7133 154.101 19.4928 156.088 24.3701C157.677 28.272 167.674 68.9173 172.474 88.7522L182.404 155.085C182.735 157.849 186.178 164.743 197.301 170.205C199.356 171.215 201.757 172.362 204.37 173.611L204.373 173.612L204.375 173.613L204.376 173.613L204.377 173.614C219.442 180.813 238.135 194.276 244.472 198.007C248.754 200.528 247.504 199.475 250.362 201.581C252.506 203.16 254.001 204.517 254.65 205.792C257.33 211.057 257.383 215.566 257.879 222.882C258.276 228.735 265.658 314.74 269.3 357.011L268.803 360.913L257.879 368.717H252.417L240.004 243.367C238.514 239.302 234.144 231.076 228.583 230.686C223.022 230.295 214.349 230.523 210.707 230.686L154.101 249.22C151.288 250.846 144.369 255.658 139.205 261.901C133.082 269.303 132.32 284.165 131.411 301.909C131.361 302.872 131.312 303.843 131.26 304.823C130.466 320.04 130.929 363.515 131.26 383.349V392.617L124.805 398.957H99.4816L94.0196 389.202L90.0472 266.291C89.5507 261.576 87.9618 251.561 85.5783 249.22C85.1291 248.779 84.612 248.226 84.0068 247.58C80.5986 243.94 74.3941 237.313 61.7442 230.686C49.8272 224.443 44.1997 216.379 42.8756 213.127ZM27.3168 97.0855C26.6548 90.2571 25.5293 75.7224 26.3238 72.2106C27.3168 67.8209 33.2754 62.9435 38.2408 66.3577C39.0625 66.9226 40.0473 67.5811 41.1323 68.3065C46.604 71.965 54.6232 77.3267 57.1095 80.99C60.0888 85.3797 62.0749 89.7694 63.5646 100.987C65.0542 112.206 70.5162 160.534 70.5162 165.37C70.5162 167.531 71.1114 169.514 71.6368 171.265C72.2867 173.43 72.8296 175.239 72.0058 176.588C71.5979 177.256 71.4134 177.887 71.2483 178.452C70.8107 179.949 70.51 180.977 66.5438 180.977C64.4575 180.977 62.8059 180.835 61.3953 180.714C59.1128 180.517 57.4611 180.375 55.6199 180.977C54.5727 181.32 53.4643 181.904 52.3807 182.475C50.3813 183.528 48.4667 184.537 47.1786 183.904C46.8202 183.728 46.3809 183.536 45.8987 183.325C43.7089 182.369 40.6339 181.025 40.227 179.027C39.9787 177.807 37.7443 164.394 35.5098 150.981C33.2754 137.568 31.0409 124.155 30.7926 122.936C30.3954 120.985 28.3099 104.889 27.3168 97.0855ZM145.029 204.877L153.47 201.95C154.132 201.788 155.555 201.658 155.953 202.438C156.449 203.414 156.449 203.901 154.96 204.389L146.022 207.316L140.808 208.779L135.594 210.242C135.263 210.405 133.577 210.242 133.577 209.754C133.51 209.086 133.47 208.203 135.098 207.803C136.687 207.413 142.381 205.852 145.029 204.877ZM149.963 188.294L158.404 185.367C159.067 185.205 160.49 185.075 160.887 185.855C161.384 186.83 161.384 187.318 159.894 187.806L150.956 190.732L145.743 192.196L140.529 193.659C140.198 193.821 138.543 194.147 138.543 193.171C138.475 192.502 138.404 191.62 140.032 191.22C141.621 190.83 147.315 189.269 149.963 188.294ZM99.8123 202.438L108.254 199.512C108.916 199.349 110.339 199.219 110.736 199.999C111.233 200.975 111.233 201.463 109.743 201.95L100.805 204.877L95.5917 206.34L90.3779 207.803C90.0469 207.966 88.3608 207.808 88.3608 206.833C88.2934 206.164 88.2531 205.765 89.8814 205.365C91.4703 204.974 97.1641 203.414 99.8123 202.438ZM128.643 222.923L137.084 219.997C137.746 219.834 139.17 219.704 139.567 220.485C140.063 221.46 140.063 221.948 138.574 222.436L129.636 225.362L124.422 226.825L119.208 228.289C118.877 228.451 117.191 228.289 117.191 227.313C117.124 226.645 117.084 226.25 118.712 225.85C120.301 225.46 125.995 223.899 128.643 222.923ZM183.263 204.877L191.704 201.95C192.366 201.788 193.789 201.658 194.187 202.438C194.683 203.414 194.683 203.901 193.194 204.389L184.256 207.316L179.042 208.779L173.828 210.242C173.497 210.405 171.811 210.247 171.811 209.272C171.744 208.603 171.703 208.203 173.332 207.803C174.921 207.413 180.614 205.852 183.263 204.877Z" stroke="black" strokeWidth="0.5"/>
<path fill-rule="evenodd" clip-rule="evenodd" d="M42.8756 213.127C35.0964 184.025 18.5449 121.139 14.5726 102.409C13.437 97.0548 11.6261 90.6034 9.6923 83.7143C3.17081 60.4813 -4.74801 32.2702 7.12443 24.3701C8.67114 23.3409 10.1076 22.3659 11.4715 21.4401C23.6811 13.1522 30.0796 8.80899 57.7719 4.86038C88.5576 0.470689 120.833 -0.992542 132.75 4.86038C144.667 10.7133 154.101 19.4928 156.088 24.3701C157.677 28.272 167.674 68.9173 172.474 88.7522L182.404 155.085C182.735 157.849 186.178 164.743 197.301 170.205C199.356 171.215 201.757 172.362 204.37 173.611L204.373 173.612L204.375 173.613L204.376 173.613L204.377 173.614C219.442 180.813 238.135 194.276 244.472 198.007C248.754 200.528 247.504 199.475 250.362 201.581C252.506 203.16 254.001 204.517 254.65 205.792C257.33 211.057 257.383 215.566 257.879 222.882C258.276 228.735 265.658 314.74 269.3 357.011L268.803 360.913L257.879 368.717H252.417L240.004 243.367C238.514 239.302 234.144 231.076 228.583 230.686C223.022 230.295 214.349 230.523 210.707 230.686L154.101 249.22C151.288 250.846 144.369 255.658 139.205 261.901C133.082 269.303 132.32 284.165 131.411 301.909C131.361 302.872 131.312 303.843 131.26 304.823C130.466 320.04 130.929 363.515 131.26 383.349V392.617L124.805 398.957H99.4816L94.0196 389.202L90.0472 266.291C89.5507 261.576 87.9618 251.561 85.5783 249.22C85.1291 248.779 84.612 248.226 84.0068 247.58C80.5986 243.94 74.3941 237.313 61.7442 230.686C49.8272 224.443 44.1997 216.379 42.8756 213.127ZM26.3238 72.2106C25.5293 75.7224 26.6548 90.2571 27.3168 97.0855C28.3099 104.889 30.3954 120.985 30.7926 122.936C31.0409 124.155 33.2754 137.568 35.5098 150.981C37.7443 164.394 39.9787 177.807 40.227 179.027C40.6339 181.025 43.7089 182.369 45.8987 183.325C46.3809 183.536 46.8202 183.728 47.1786 183.904C48.4667 184.537 50.3813 183.528 52.3807 182.475C53.4643 181.904 54.5727 181.32 55.6199 180.977C57.4611 180.375 59.1128 180.517 61.3953 180.714C62.8059 180.835 64.4575 180.977 66.5438 180.977C70.51 180.977 70.8107 179.949 71.2483 178.452C71.4134 177.887 71.5979 177.256 72.0058 176.588C72.8296 175.239 72.2867 173.43 71.6368 171.265C71.1114 169.514 70.5162 167.531 70.5162 165.37C70.5162 160.534 65.0542 112.206 63.5646 100.987C62.0749 89.7694 60.0888 85.3797 57.1095 80.99C54.6232 77.3267 46.604 71.965 41.1323 68.3065C40.0473 67.5811 39.0625 66.9226 38.2408 66.3577C33.2754 62.9435 27.3168 67.8209 26.3238 72.2106ZM49.6613 29.7769C49.3303 28.6388 48.9662 26.1676 50.1579 25.3872C50.2492 25.3274 50.3591 25.253 50.488 25.1657C52.4629 23.8286 58.8937 19.4745 71.0127 18.5588C83.9229 17.5833 89.3849 17.5833 91.8676 19.5343C94.009 21.2171 93.934 22.8999 93.8729 24.2697C93.8631 24.488 93.8538 24.6983 93.8538 24.8994C93.8538 26.3627 92.8607 29.2891 91.371 29.2891C89.8814 29.2891 80.9436 29.2891 76.4747 30.2646C75.6204 30.4511 74.6936 30.6554 73.7322 30.8673L73.7279 30.8683L73.7243 30.8691L73.7132 30.8715L73.7108 30.872C69.6485 31.7675 64.977 32.7973 62.5715 33.1911C61.0818 33.435 59.5922 33.9227 58.2888 34.3495C56.9854 34.7763 55.8681 35.1421 55.1233 35.1421C53.6337 35.1421 50.778 33.1911 50.1579 31.2401C49.6618 29.6793 49.6201 29.6143 49.6613 29.7769ZM100.309 85.3797C100.309 88.8914 103.95 110.58 105.771 120.985C106.102 122.773 106.863 127.131 107.26 130.252C107.757 134.154 109.743 149.274 111.729 155.615C113.716 161.955 116.198 164.882 118.681 166.345C121.164 167.808 125.136 166.833 127.122 166.345C128.261 166.066 128.42 165.946 129.471 165.16C130.254 164.575 131.531 163.621 134.074 161.955C139.278 158.547 144.482 158.86 146.709 158.994C147.032 159.013 147.292 159.029 147.481 159.029C148.709 159.029 151.288 156.376 152.99 154.625L152.991 154.623L152.992 154.622C153.353 154.251 153.675 153.92 153.936 153.664C155.226 152.397 155.399 151.495 155.744 149.692C155.771 149.552 155.799 149.406 155.829 149.254C155.845 149.171 155.862 149.086 155.879 148.999L155.903 148.878L155.922 148.786C156.418 146.348 155.922 140.982 155.425 138.056C155.028 135.715 152.28 122.123 150.956 115.62L143.508 83.4287L134.57 56.1151C134.074 53.5138 131.492 48.5062 125.136 49.2866C118.06 50.1555 111.377 58.3762 106.843 63.9541L106.842 63.9552L106.842 63.9562L106.841 63.9571C106.285 64.6406 105.762 65.2843 105.274 65.8699C100.805 71.2351 100.309 80.99 100.309 85.3797ZM107.26 185.855L115.702 182.928C116.364 182.766 117.787 182.636 118.184 183.416C118.681 184.392 118.681 184.879 117.191 185.367L108.254 188.294L103.04 189.757L97.8261 191.22C97.4951 191.383 95.8399 191.708 95.8399 190.732C95.8399 190.557 95.8238 190.397 95.809 190.25C95.7416 189.581 95.7013 189.181 97.3296 188.781C98.9185 188.391 104.612 186.83 107.26 185.855ZM158.404 185.367L149.963 188.294C147.315 189.269 141.621 190.83 140.032 191.22C138.404 191.62 138.475 192.502 138.543 193.171C138.543 194.147 140.198 193.821 140.529 193.659L145.743 192.196L150.956 190.732L159.894 187.806C161.384 187.318 161.384 186.83 160.887 185.855C160.49 185.075 159.067 185.205 158.404 185.367ZM145.029 204.877L153.47 201.95C154.132 201.788 155.555 201.658 155.953 202.438C156.449 203.414 156.449 203.901 154.96 204.389L146.022 207.316L140.808 208.779L135.594 210.242C135.263 210.405 133.577 210.242 133.577 209.754C133.51 209.086 133.47 208.203 135.098 207.803C136.687 207.413 142.381 205.852 145.029 204.877ZM108.254 199.512L99.8123 202.438C97.1641 203.414 91.4703 204.974 89.8814 205.365C88.2531 205.765 88.2934 206.164 88.3608 206.833C88.3608 207.808 90.0469 207.966 90.3779 207.803L95.5917 206.34L100.805 204.877L109.743 201.95C111.233 201.463 111.233 200.975 110.736 199.999C110.339 199.219 108.916 199.349 108.254 199.512ZM183.263 204.877L191.704 201.95C192.366 201.788 193.789 201.658 194.187 202.438C194.683 203.414 194.683 203.901 193.194 204.389L184.256 207.316L179.042 208.779L173.828 210.242C173.497 210.405 171.811 210.247 171.811 209.272C171.744 208.603 171.703 208.203 173.332 207.803C174.921 207.413 180.614 205.852 183.263 204.877ZM137.084 219.997L128.643 222.923C125.995 223.899 120.301 225.46 118.712 225.85C117.084 226.25 117.124 226.645 117.191 227.313C117.191 228.289 118.877 228.451 119.208 228.289L124.422 226.825L129.636 225.362L138.574 222.436C140.063 221.948 140.063 221.46 139.567 220.485C139.17 219.704 137.746 219.834 137.084 219.997Z" fill="url(#paint2_radial_167_10)"/>
<path d="M155.922 148.786C156.418 146.348 155.922 140.982 155.425 138.056C155.028 135.715 152.28 122.123 150.956 115.62L143.508 83.4287L134.57 56.1151C134.074 53.5138 131.492 48.5062 125.136 49.2866C118.06 50.1555 111.377 58.3762 106.843 63.9541L106.842 63.9552L106.842 63.9562L106.841 63.9571C106.285 64.6406 105.762 65.2843 105.274 65.8699C100.805 71.2351 100.309 80.99 100.309 85.3797C100.309 88.8914 103.95 110.58 105.771 120.985C106.102 122.773 106.863 127.131 107.26 130.252C107.757 134.154 109.743 149.274 111.729 155.615C113.716 161.955 116.198 164.882 118.681 166.345C121.164 167.808 125.136 166.833 127.122 166.345C128.261 166.066 128.42 165.946 129.471 165.16C130.254 164.575 131.531 163.621 134.074 161.955C139.278 158.547 144.482 158.86 146.709 158.994C147.032 159.013 147.292 159.029 147.481 159.029C148.709 159.029 151.288 156.376 152.99 154.625L152.991 154.623L152.992 154.622C153.353 154.251 153.675 153.92 153.936 153.664C155.226 152.397 155.399 151.495 155.744 149.692C155.771 149.552 155.799 149.406 155.829 149.254C155.845 149.171 155.862 149.086 155.879 148.999M155.922 148.786C155.916 148.817 155.909 148.848 155.903 148.878M155.922 148.786L155.903 148.878M73.7132 30.8715L73.7108 30.872C69.6485 31.7675 64.977 32.7973 62.5715 33.1911C61.0818 33.435 59.5922 33.9227 58.2888 34.3495C56.9854 34.7763 55.8681 35.1421 55.1233 35.1421C53.6337 35.1421 50.778 33.1911 50.1579 31.2401C49.6618 29.6793 49.6201 29.6143 49.6613 29.7769C49.3303 28.6388 48.9662 26.1676 50.1579 25.3872C50.2492 25.3274 50.3591 25.253 50.488 25.1657C52.4629 23.8286 58.8937 19.4745 71.0127 18.5588C83.9229 17.5833 89.3849 17.5833 91.8676 19.5343C94.009 21.2171 93.934 22.8999 93.8729 24.2697C93.8631 24.488 93.8538 24.6983 93.8538 24.8994C93.8538 26.3627 92.8607 29.2891 91.371 29.2891C89.8814 29.2891 80.9436 29.2891 76.4747 30.2646C75.6204 30.4511 74.6936 30.6554 73.7322 30.8673L73.7279 30.8683L73.7243 30.8691M73.7132 30.8715L73.7243 30.8691M73.7132 30.8715C73.7169 30.8707 73.7206 30.8699 73.7243 30.8691M117.191 185.367C118.681 184.879 118.681 184.392 118.184 183.416C117.787 182.636 116.364 182.766 115.702 182.928L107.26 185.855C104.612 186.83 98.9185 188.391 97.3296 188.781C95.7013 189.181 95.7416 189.581 95.809 190.25C95.8238 190.397 95.8399 190.557 95.8399 190.732C95.8399 191.708 97.4951 191.383 97.8261 191.22L103.04 189.757L108.254 188.294M117.191 185.367C116 185.757 110.736 187.481 108.254 188.294M117.191 185.367L108.254 188.294M155.879 148.999C155.887 148.959 155.895 148.918 155.903 148.878M155.879 148.999L155.903 148.878M42.8756 213.127C35.0964 184.025 18.5449 121.139 14.5726 102.409C13.437 97.0548 11.6261 90.6034 9.6923 83.7143C3.17081 60.4813 -4.74801 32.2702 7.12443 24.3701C8.67114 23.3409 10.1076 22.3659 11.4715 21.4401C23.6811 13.1522 30.0796 8.80899 57.7719 4.86038C88.5576 0.470689 120.833 -0.992542 132.75 4.86038C144.667 10.7133 154.101 19.4928 156.088 24.3701C157.677 28.272 167.674 68.9173 172.474 88.7522L182.404 155.085C182.735 157.849 186.178 164.743 197.301 170.205C199.356 171.215 201.757 172.362 204.37 173.611L204.373 173.612L204.375 173.613L204.376 173.613L204.377 173.614C219.442 180.813 238.135 194.276 244.472 198.007C248.754 200.528 247.504 199.475 250.362 201.581C252.506 203.16 254.001 204.517 254.65 205.792C257.33 211.057 257.383 215.566 257.879 222.882C258.276 228.735 265.658 314.74 269.3 357.011L268.803 360.913L257.879 368.717H252.417L240.004 243.367C238.514 239.302 234.144 231.076 228.583 230.686C223.022 230.295 214.349 230.523 210.707 230.686L154.101 249.22C151.288 250.846 144.369 255.658 139.205 261.901C133.082 269.303 132.32 284.165 131.411 301.909C131.361 302.872 131.312 303.843 131.26 304.823C130.466 320.04 130.929 363.515 131.26 383.349V392.617L124.805 398.957H99.4816L94.0196 389.202L90.0472 266.291C89.5507 261.576 87.9618 251.561 85.5783 249.22C85.1291 248.779 84.612 248.226 84.0068 247.58C80.5986 243.94 74.3941 237.313 61.7442 230.686C49.8272 224.443 44.1997 216.379 42.8756 213.127ZM27.3168 97.0855C26.6548 90.2571 25.5293 75.7224 26.3238 72.2106C27.3168 67.8209 33.2754 62.9435 38.2408 66.3577C39.0625 66.9226 40.0473 67.5811 41.1323 68.3065C46.604 71.965 54.6232 77.3267 57.1095 80.99C60.0888 85.3797 62.0749 89.7694 63.5646 100.987C65.0542 112.206 70.5162 160.534 70.5162 165.37C70.5162 167.531 71.1114 169.514 71.6368 171.265C72.2867 173.43 72.8296 175.239 72.0058 176.588C71.5979 177.256 71.4134 177.887 71.2483 178.452C70.8107 179.949 70.51 180.977 66.5438 180.977C64.4575 180.977 62.8059 180.835 61.3953 180.714C59.1128 180.517 57.4611 180.375 55.6199 180.977C54.5727 181.32 53.4643 181.904 52.3807 182.475C50.3813 183.528 48.4667 184.537 47.1786 183.904C46.8202 183.728 46.3809 183.536 45.8987 183.325C43.7089 182.369 40.6339 181.025 40.227 179.027C39.9787 177.807 37.7443 164.394 35.5098 150.981C33.2754 137.568 31.0409 124.155 30.7926 122.936C30.3954 120.985 28.3099 104.889 27.3168 97.0855ZM145.029 204.877L153.47 201.95C154.132 201.788 155.555 201.658 155.953 202.438C156.449 203.414 156.449 203.901 154.96 204.389L146.022 207.316L140.808 208.779L135.594 210.242C135.263 210.405 133.577 210.242 133.577 209.754C133.51 209.086 133.47 208.203 135.098 207.803C136.687 207.413 142.381 205.852 145.029 204.877ZM149.963 188.294L158.404 185.367C159.067 185.205 160.49 185.075 160.887 185.855C161.384 186.83 161.384 187.318 159.894 187.806L150.956 190.732L145.743 192.196L140.529 193.659C140.198 193.821 138.543 194.147 138.543 193.171C138.475 192.502 138.404 191.62 140.032 191.22C141.621 190.83 147.315 189.269 149.963 188.294ZM99.8123 202.438L108.254 199.512C108.916 199.349 110.339 199.219 110.736 199.999C111.233 200.975 111.233 201.463 109.743 201.95L100.805 204.877L95.5917 206.34L90.3779 207.803C90.0469 207.966 88.3608 207.808 88.3608 206.833C88.2934 206.164 88.2531 205.765 89.8814 205.365C91.4703 204.974 97.1641 203.414 99.8123 202.438ZM128.643 222.923L137.084 219.997C137.746 219.834 139.17 219.704 139.567 220.485C140.063 221.46 140.063 221.948 138.574 222.436L129.636 225.362L124.422 226.825L119.208 228.289C118.877 228.451 117.191 228.289 117.191 227.313C117.124 226.645 117.084 226.25 118.712 225.85C120.301 225.46 125.995 223.899 128.643 222.923ZM183.263 204.877L191.704 201.95C192.366 201.788 193.789 201.658 194.187 202.438C194.683 203.414 194.683 203.901 193.194 204.389L184.256 207.316L179.042 208.779L173.828 210.242C173.497 210.405 171.811 210.247 171.811 209.272C171.744 208.603 171.703 208.203 173.332 207.803C174.921 207.413 180.614 205.852 183.263 204.877Z" stroke="black" strokeWidth="0.5"/>
<defs>
<linearGradient id="paint0_linear_167_10" x1="106.764" y1="178.539" x2="65.4042" y2="299.471" gradientUnits="userSpaceOnUse">
<stop stop-color="#00119A"/>
<stop offset="1" stop-color="#01118B"/>
</linearGradient>
<radialGradient id="paint1_radial_167_10" cx="0" cy="0" r="1" gradientUnits="userSpaceOnUse" gradientTransform="translate(142.515 150.737) rotate(120.336) scale(166.146 223.217)">
<stop stop-color="#001DF8"/>
<stop offset="1" stop-color="#01118E"/>
</radialGradient>
<radialGradient id="paint2_radial_167_10" cx="0" cy="0" r="1" gradientUnits="userSpaceOnUse" gradientTransform="translate(142.515 150.737) rotate(120.336) scale(166.146 223.217)">
<stop stop-color="#001DF8"/>
<stop offset="1" stop-color="#01118E"/>
</radialGradient>
</defs>
</svg>
