<svg width="613" height="189" viewBox="0 0 613 189" fill="none" xmlns="http://www.w3.org/2000/svg">
<g clip-path="url(#clip0_149_46)">
<path d="M583.3 126.637H30.7C13.7449 126.637 0 140.382 0 157.337C0 174.292 13.7449 188.037 30.7 188.037H583.3C600.255 188.037 614 174.292 614 157.337C614 140.382 600.255 126.637 583.3 126.637Z" fill="white"/>
<path d="M307.64 35.8167H111.927C83.3153 35.8167 60.1208 59.0111 60.1208 87.623V87.6233C60.1208 116.235 83.3153 139.43 111.927 139.43H307.64C336.251 139.43 359.446 116.235 359.446 87.6233V87.623C359.446 59.0111 336.251 35.8167 307.64 35.8167Z" fill="white"/>
<path d="M479.048 0H292.29C253.787 0 222.575 31.2122 222.575 69.7145C222.575 108.217 253.787 139.429 292.29 139.429H479.048C517.551 139.429 548.763 108.217 548.763 69.7145C548.763 31.2122 517.551 0 479.048 0Z" fill="white"/>
</g>
<defs>
<clipPath id="clip0_149_46">
<rect width="613" height="189" fill="white"/>
</clipPath>
</defs>
</svg>
