<svg width="1173" height="794" viewBox="0 0 1173 794" fill="none" xmlns="http://www.w3.org/2000/svg">
<path fill-rule="evenodd" clip-rule="evenodd" d="M172.93 766.952L244.997 749.152L236.208 748.202V734.726L239.724 733.555L274.293 738.828L276.051 735.312L285.425 285.916H283.082L283.668 260.721C277.222 252.128 264.45 234.472 264.918 232.598C265.387 230.723 265.895 229.082 266.09 228.496L232.107 169.319L222.147 151.741L212.772 157.015L211.014 166.389L212.772 170.491C213.358 171.467 213.592 173.303 209.842 172.834C206.092 172.365 202.811 171.467 201.64 171.076C201.249 170.881 200.585 170.256 201.054 169.319C201.41 168.606 201.984 168.543 202.642 168.472C203.066 168.426 203.524 168.376 203.983 168.147C204.921 167.678 205.936 165.999 206.327 165.217L207.499 157.015C207.499 152.718 207.03 143.89 205.155 142.953C202.811 141.781 201.64 144.71 202.225 145.882C202.694 146.82 203.593 150.179 203.983 151.741C204.178 152.522 203.397 153.851 198.71 152.913C192.851 151.741 195.194 140.609 198.71 138.265C199.367 137.828 199.921 137.41 200.438 137.021C202.69 135.326 204.234 134.164 210.428 134.164C218.045 134.164 230.935 130.648 231.521 130.062C231.99 129.594 257.106 116.196 269.606 109.555L305.346 90.8062C326.635 82.2128 371.203 64.44 379.172 62.0963C380.054 61.8368 381.728 61.3289 384.088 60.6125C408.368 53.2436 505.321 23.8191 561.391 15.8091C610.608 8.77811 641.271 5.06732 650.45 4.09079L649.864 1.74713C657.091 1.35652 672.246 0.692486 675.059 1.16122C678.574 1.74713 679.746 2.33304 679.746 4.6767V39.8316H666.27V16.395L651.036 18.7387V17.5668C627.404 20.3011 577.445 26.2384 566.664 28.1133C553.188 30.4569 515.104 37.4879 501.042 41.0034C498.322 41.6834 494.506 42.4948 489.714 43.5141C469.726 47.7647 432.743 55.6295 387.374 72.6428C342.376 89.5171 318.237 99.9855 311.791 103.11L306.518 110.727L304.175 124.203L301.831 125.961L300.073 241.386C301.831 241.972 305.698 243.73 307.104 246.074C307.244 246.307 307.384 246.536 307.523 246.764C309.127 249.395 310.573 251.767 310.034 256.62C309.845 258.319 309.352 260.99 308.81 263.93C307.669 270.115 306.31 277.485 307.104 279.471C308.042 281.814 309.448 284.353 310.034 285.33C308.276 285.33 304.526 284.627 303.589 281.814C302.98 279.989 303.32 276.267 303.623 272.947C303.903 269.873 304.152 267.144 303.589 266.581C302.417 265.409 300.073 270.682 300.073 272.44C300.073 273.846 300.464 282.4 300.659 286.502H298.901L290.699 735.312C290.699 736.289 291.284 738.242 293.628 738.242C295.972 738.242 351.634 725.742 379.172 719.493V733.555L322.924 749.374L474.676 775.154V793.318L284.839 758.749L172.93 785.115V766.952ZM290.113 114.243L287.183 238.457L276.637 224.395L273.121 223.809L261.989 204.474L228.592 145.296L232.107 143.538C237.771 140.414 250.153 133.344 254.372 130.062C258.59 126.781 279.957 118.149 290.113 114.243Z" fill="url(#paint0_linear_168_35)"/>
<path d="M270.192 742.929L244.997 749.152M244.997 749.152L172.93 766.952V785.115L284.839 758.749L474.676 793.318V775.154L322.924 749.374L379.172 733.555V719.493C351.634 725.742 295.972 738.242 293.628 738.242C291.284 738.242 290.699 736.289 290.699 735.312L298.901 286.502H300.659C300.464 282.4 300.073 273.846 300.073 272.44C300.073 270.682 302.417 265.409 303.589 266.581C304.152 267.144 303.903 269.873 303.623 272.947C303.32 276.267 302.98 279.989 303.589 281.814C304.526 284.627 308.276 285.33 310.034 285.33C309.448 284.353 308.042 281.814 307.104 279.471C306.31 277.485 307.669 270.115 308.81 263.93C309.352 260.99 309.845 258.319 310.034 256.62C310.573 251.767 309.127 249.395 307.523 246.764C307.384 246.536 307.244 246.307 307.104 246.074C305.698 243.73 301.831 241.972 300.073 241.386L301.831 125.961L304.175 124.203L306.518 110.727L311.791 103.11C318.237 99.9855 342.376 89.5171 387.374 72.6428C432.743 55.6295 469.726 47.7647 489.714 43.5141C494.506 42.4948 498.322 41.6834 501.042 41.0034C515.104 37.4879 553.188 30.4569 566.664 28.1133C577.445 26.2384 627.404 20.3011 651.036 17.5668V18.7387L666.27 16.395V39.8316H679.746M244.997 749.152L236.208 748.202V734.726L239.724 733.555L274.293 738.828L276.051 735.312L285.425 285.916H283.082L283.668 260.721C277.222 252.128 264.45 234.472 264.918 232.598C265.387 230.723 265.895 229.082 266.09 228.496L232.107 169.319L222.147 151.741L212.772 157.015L211.014 166.389L212.772 170.491C213.358 171.467 213.592 173.303 209.842 172.834C206.092 172.365 202.811 171.467 201.64 171.076C201.249 170.881 200.585 170.256 201.054 169.319C201.41 168.606 201.984 168.543 202.642 168.472C203.066 168.426 203.524 168.376 203.983 168.147C204.921 167.678 205.936 165.999 206.327 165.217L207.499 157.015C207.499 152.718 207.03 143.89 205.155 142.953C202.811 141.781 201.64 144.71 202.225 145.882C202.694 146.82 203.593 150.179 203.983 151.741C204.178 152.522 203.397 153.851 198.71 152.913C192.851 151.741 195.194 140.609 198.71 138.265C199.367 137.828 199.921 137.41 200.438 137.021C202.69 135.326 204.234 134.164 210.428 134.164C218.045 134.164 230.935 130.648 231.521 130.062C231.99 129.594 257.106 116.196 269.606 109.555L305.346 90.8062C326.635 82.2128 371.203 64.44 379.172 62.0963C380.054 61.8368 381.728 61.3289 384.088 60.6125C408.368 53.2436 505.321 23.8191 561.391 15.8091C610.608 8.77811 641.271 5.06732 650.45 4.09079L649.864 1.74713C657.091 1.35652 672.246 0.692486 675.059 1.16122C678.574 1.74713 679.746 2.33304 679.746 4.6767M679.746 4.6767C679.746 6.55163 679.746 28.8945 679.746 39.8316M679.746 4.6767V39.8316M287.183 238.457L290.113 114.243C279.957 118.149 258.59 126.781 254.372 130.062C250.153 133.344 237.771 140.414 232.107 143.538L228.592 145.296L261.989 204.474L273.121 223.809L276.637 224.395L287.183 238.457Z" stroke="black" strokeWidth="0.5"/>
<path d="M666.856 40.4175H670.957C669.59 41.9799 664.629 48.5031 655.723 62.0963C644.591 79.0878 627.013 143.538 624.67 158.772C622.795 170.959 625.06 210.333 626.427 228.496C608.069 219.903 561.039 202.833 519.791 203.302C478.543 203.77 414.326 215.215 387.374 220.879L475.847 135.336L506.315 110.141L539.126 93.1498L617.639 58.5808L666.856 40.4175Z" fill="url(#paint1_radial_168_35)" stroke="black" strokeWidth="0.5"/>
<path d="M674.473 39.8315H670.957C669.59 41.7846 664.512 49.2062 655.137 63.2681C643.419 80.8456 627.6 143.538 624.67 159.944C622.326 173.069 624.865 211.505 626.428 229.082C644.786 224.395 687.48 214.786 711.385 213.848C735.291 212.911 781.89 218.145 802.202 220.879L760.016 147.64C747.712 130.453 721.229 93.7357 713.729 84.3611C706.229 74.9864 684.433 50.7686 674.473 39.8315Z" fill="url(#paint2_radial_168_35)" stroke="black" strokeWidth="0.5"/>
<path d="M713.143 83.7751C707.518 76.7442 685.019 51.5498 674.473 39.8315H677.988L725.447 52.1358C758.649 58.9714 836.068 76.8614 880.129 93.7357C924.189 110.61 993.015 165.217 1021.92 190.412C1000.05 187.091 944.228 182.443 895.948 190.412C847.669 198.38 813.334 214.044 802.202 220.879L759.43 146.468C746.345 128.5 718.768 90.8061 713.143 83.7751Z" fill="url(#paint3_radial_168_35)" stroke="black" strokeWidth="0.5"/>
<path d="M774.664 63.2681L719.588 50.378L679.283 39.8637L719.588 42.7611C780.523 49.2062 923.018 69.2445 977.39 86.1188C1031.76 102.993 1125.82 136.898 1172.5 161.116C1157.66 160.725 1121.17 161.116 1093.99 165.803C1066.8 170.491 1035.01 184.162 1022.51 190.412C1005.51 176.35 969.539 146.937 961.571 141.781C951.61 135.336 923.486 116.586 912.354 109.555C903.448 103.931 884.035 95.1028 875.441 91.392L815.092 73.2287L774.664 63.2681Z" fill="url(#paint4_radial_168_35)"/>
<path d="M679.16 39.8315L679.283 39.8637M679.283 39.8637L719.588 50.378L774.664 63.2681L815.092 73.2287L875.441 91.392C884.035 95.1028 903.448 103.931 912.354 109.555C923.486 116.586 951.61 135.336 961.571 141.781C969.539 146.937 1005.51 176.35 1022.51 190.412C1035.01 184.162 1066.8 170.491 1093.99 165.803C1121.17 161.116 1157.66 160.725 1172.5 161.116C1125.82 136.898 1031.76 102.993 977.39 86.1188C923.018 69.2445 780.523 49.2062 719.588 42.7611L679.283 39.8637Z" stroke="black" strokeWidth="0.5"/>
<path d="M666.5 42L650.5 17C640.167 23.1667 606.3 37.3 553.5 44.5C500.7 51.7 445.5 57.1667 424.5 59C406 69.6667 365.5 91.7 351.5 94.5C337.5 97.3 314.667 103.667 305 106.5L300 155.5C294.167 175.833 282.8 218.5 284 226.5C285.2 234.5 286.5 239.167 287 240.5C291.667 256.667 301 291.4 301 301C301 313 290 363.5 287 368.5C284 373.5 278 391.5 278.5 412.5C279 433.5 287 449.5 287 455.5C287 461.5 298 478.5 297 492.5C296 506.5 276 552.5 274.5 558C273.3 562.4 276.667 580.833 278.5 589.5C284.167 602.333 295.4 629.8 295 637C294.5 646 293.5 659.5 287 671C280.5 682.5 275 703 258.5 717.5C245.3 729.1 207.667 745.667 190.5 752.5L128.5 762.5L63.5 771L-19 776" stroke="black" strokeWidth="2"/>
<path d="M447.724 76.1583C412.569 84.1267 247.927 138.851 170 165.217C195.585 163.46 258.239 162.874 304.174 174.592C350.11 186.31 379.172 210.333 387.96 220.879C418.037 189.826 484.285 123.969 508.659 108.969C533.033 93.9701 622.326 54.6747 666.856 39.8315C606.506 46.6672 482.878 68.1898 447.724 76.1583Z" fill="url(#paint5_radial_168_35)" stroke="black" strokeWidth="0.5"/>
<defs>
<linearGradient id="paint0_linear_168_35" x1="426.338" y1="1" x2="426.338" y2="793.318" gradientUnits="userSpaceOnUse">
<stop/>
<stop offset="1" stop-color="#111111"/>
</linearGradient>
<radialGradient id="paint1_radial_168_35" cx="0" cy="0" r="1" gradientUnits="userSpaceOnUse" gradientTransform="translate(618.225 73.8146) rotate(124.641) scale(156.675 236.233)">
<stop stop-color="#C6BEA8"/>
<stop offset="1" stop-color="#927B61"/>
</radialGradient>
<radialGradient id="paint2_radial_168_35" cx="0" cy="0" r="1" gradientUnits="userSpaceOnUse" gradientTransform="translate(680.918 63.854) rotate(79.0246) scale(168.306 158.73)">
<stop stop-color="#C6BEA8"/>
<stop offset="1" stop-color="#927B61"/>
</radialGradient>
<radialGradient id="paint3_radial_168_35" cx="0" cy="0" r="1" gradientUnits="userSpaceOnUse" gradientTransform="translate(714.901 65.6118) rotate(32.6321) scale(176.021 148.759)">
<stop stop-color="#C6BEA8"/>
<stop offset="1" stop-color="#927B61"/>
</radialGradient>
<radialGradient id="paint4_radial_168_35" cx="0" cy="0" r="1" gradientUnits="userSpaceOnUse" gradientTransform="translate(768.219 53.3076) rotate(16.2503) scale(272.193 891.775)">
<stop stop-color="#C6BEA8"/>
<stop offset="1" stop-color="#927B61"/>
</radialGradient>
<radialGradient id="paint5_radial_168_35" cx="0" cy="0" r="1" gradientUnits="userSpaceOnUse" gradientTransform="translate(652.794 21.6682) rotate(160.151) scale(427.948 126.777)">
<stop stop-color="#C6BEA8"/>
<stop offset="1" stop-color="#927B61"/>
</radialGradient>
</defs>
</svg>
