<svg width="85" height="115" viewBox="0 0 85 115" fill="none" xmlns="http://www.w3.org/2000/svg">
<path d="M12.9628 60.6933C15.8236 65.3421 26.8197 74.4012 31.9602 78.3497H37.9947V75.2207C37.2497 71.7938 35.3574 64.0905 33.7482 60.6933C31.7367 56.4468 20.7853 49.5184 16.7623 45.9424C13.5439 43.0816 6.03437 37.4495 2.68188 34.991C2.75638 35.5125 3.08418 37.6283 3.79938 41.9194C4.68709 47.2457 9.32107 54.7757 12.8873 60.5705L12.9628 60.6933Z" fill="#3F4F22"/>
<path d="M19.2209 73.8796C21.0089 75.1312 27.5648 77.2321 30.6193 78.1261L32.8543 78.3496L37.1008 77.2321C35.9833 74.1776 33.1225 67.577 30.6193 65.6102C28.1161 63.6434 18.5504 61.0657 14.0804 60.0227L0 58.0112C5.66197 62.7792 17.4329 72.628 19.2209 73.8796Z" fill="url(#paint0_linear_164_471)"/>
<path d="M59.4506 68.9627C53.9078 70.7507 48.3501 75.8167 46.2642 78.1262H57.6626H58.1096C61.5366 76.5617 75.0061 71.6001 77.3305 70.5273C79.6549 69.4545 83.216 66.2063 84.7059 64.7163L81.577 65.3868C80.6085 65.4613 78.001 65.5656 75.319 65.3868C71.9665 65.1633 66.379 66.7278 59.4506 68.9627Z" fill="#414E23"/>
<path d="M55.2043 58.4583C51.4495 61.4978 46.4878 72.9857 44.4763 78.3496H46.2643L58.3332 71.8682C62.2817 69.5587 70.4022 64.7162 71.2962 63.8222C72.4137 62.7047 77.3306 55.1058 78.4481 53.5413C79.5656 51.9768 82.2476 47.5068 82.9181 45.4953C83.4545 43.8861 84.3336 39.9079 84.7061 38.1199C84.0356 38.7904 82.4264 40.3102 81.3536 41.0254C80.0126 41.9194 77.7776 43.0368 73.3077 44.8248C68.8377 46.6128 59.8977 54.6588 55.2043 58.4583Z" fill="url(#paint1_linear_164_471)"/>
<path d="M30.3957 58.6819L33.9717 77.9028H46.2641C46.4876 71.4958 46.2194 56.3128 43.3586 46.8365C40.4979 37.3601 29.9487 23.6671 25.0317 18.0051C26.8197 24.4121 30.3957 37.9412 30.3957 40.802V58.6819Z" fill="url(#paint2_linear_164_471)"/>
<path d="M40.6769 52.8709V77.2322L40.4534 78.1263L50.2873 78.3498C51.3303 72.1663 53.5504 59.0842 54.0868 56.2234C54.7573 52.6474 52.7458 35.6615 52.2988 31.1916C51.8518 26.7216 51.3762 25.0856 50.0638 21.8046C47.3819 15.0996 47.1292 7.72413 47.8288 2.36016C48.2758 -1.06682 48.0076 -0.053594 46.9349 1.0192C45.5939 2.36019 41.5709 16.4406 40.6769 22.2516C39.9617 26.9004 40.9749 36.8535 41.5709 41.249L40.6769 52.8709Z" fill="url(#paint3_linear_164_471)"/>
<path d="M40.0063 65.8338C39.8275 70.8402 40.9747 76.1148 41.5707 78.1263H51.1811C53.0436 73.6563 56.9474 64.2693 57.6626 62.4813C58.3778 60.6934 60.0466 52.7964 60.7916 49.0714C61.1641 47.1344 61.8197 42.3218 61.4621 38.567C61.0151 33.8735 59.0036 25.1571 58.1096 21.5811C57.3944 18.7203 54.9806 16.0681 53.8631 15.0996C54.0121 15.4721 54.3995 16.3959 54.7571 17.1111C55.2041 18.0051 54.7571 30.2975 54.3101 34.7675C53.8631 39.2375 49.3932 44.8249 47.8287 46.6129C46.2642 48.4009 40.2297 59.5759 40.0063 65.8338Z" fill="#97AE46"/>
<path d="M43.3724 75.8914C39.7314 75.8914 32.6084 77.0828 29.502 77.6786C30.7301 88.8487 33.273 111.412 33.6197 112.306C34.0532 113.423 37.9543 114.54 43.3724 114.763C47.7069 114.942 51.9692 113.646 53.5585 112.976L58.1098 78.3488C54.7144 77.5296 47.0134 75.8914 43.3724 75.8914Z" fill="url(#paint4_linear_164_471)"/>
<defs>
<linearGradient id="paint0_linear_164_471" x1="5.81097" y1="60.0227" x2="26.5964" y2="72.0917" gradientUnits="userSpaceOnUse">
<stop stop-color="#7B8C36"/>
<stop offset="1" stop-color="#5E6D2A"/>
</linearGradient>
<linearGradient id="paint1_linear_164_471" x1="73.3077" y1="48.6243" x2="57.4392" y2="75.6677" gradientUnits="userSpaceOnUse">
<stop stop-color="#7B8D37"/>
<stop offset="1" stop-color="#606B2B"/>
</linearGradient>
<linearGradient id="paint2_linear_164_471" x1="38.4417" y1="50.8594" x2="35.7597" y2="41.4725" gradientUnits="userSpaceOnUse">
<stop stop-color="#505A1A"/>
<stop offset="1" stop-color="#7E8B39"/>
</linearGradient>
<linearGradient id="paint3_linear_164_471" x1="47.3266" y1="0" x2="47.3266" y2="78.3498" gradientUnits="userSpaceOnUse">
<stop stop-color="#5D8415"/>
<stop offset="1" stop-color="#212E09"/>
</linearGradient>
<linearGradient id="paint4_linear_164_471" x1="43.8059" y1="75.8914" x2="43.8059" y2="114.78" gradientUnits="userSpaceOnUse">
<stop stop-color="#431902"/>
<stop offset="1"/>
</linearGradient>
</defs>
</svg>
