<svg width="729" height="597" viewBox="0 0 729 597" fill="none" xmlns="http://www.w3.org/2000/svg">
<path d="M24.5 130.5C-3.50002 88.9 -1.50002 26.5 2.99998 0.5H58C58.3333 5.5 59.7 18.5 62.5 30.5C66 45.5 74.5 72 87 94C99.5 116 127.5 143 141 163C154.5 183 276.5 271.5 291.5 285C306.5 298.5 379 346 407 365C429.4 380.2 497.333 440 528.5 468L550.5 309.5C554.333 285.667 562.4 234.9 564 222.5C565.6 210.1 572 171.333 575 153.5L587.5 86.5H625.5V204.5C625 230.667 623.9 294.1 623.5 338.5C623 394 647 552.5 647 550C647 548 655.667 504.5 660 483C669.333 435.167 689.3 332.2 694.5 303C701 266.5 697 180 698 160C698.8 144 696.333 104.333 695 86.5H729.5C734.833 116 746.5 182.7 750.5 213.5C754.5 244.3 773.167 390.333 782 459.5L772.5 596H707L527.5 589.5L245.5 417.5C227.167 397.667 187.9 354.9 177.5 342.5C164.5 327 59.5 182.5 24.5 130.5Z" fill="url(#paint0_linear_172_373)"/>
<path d="M24.5 130.5C-3.50002 88.9 -1.50002 26.5 2.99998 0.5H58C58.3333 5.5 59.7 18.5 62.5 30.5C66 45.5 74.5 72 87 94C99.5 116 127.5 143 141 163C154.5 183 276.5 271.5 291.5 285C306.5 298.5 379 346 407 365C429.4 380.2 497.333 440 528.5 468L550.5 309.5C554.333 285.667 562.4 234.9 564 222.5C565.6 210.1 572 171.333 575 153.5L587.5 86.5H625.5V204.5C625 230.667 623.9 294.1 623.5 338.5C623 394 647 552.5 647 550C647 548 655.667 504.5 660 483C669.333 435.167 689.3 332.2 694.5 303C701 266.5 697 180 698 160C698.8 144 696.333 104.333 695 86.5H729.5C734.833 116 746.5 182.7 750.5 213.5C754.5 244.3 773.167 390.333 782 459.5L772.5 596H707L527.5 589.5L245.5 417.5C227.167 397.667 187.9 354.9 177.5 342.5C164.5 327 59.5 182.5 24.5 130.5Z" stroke="black" strokeWidth="0.5"/>
<path d="M24.5 130.5C-3.50002 88.9 -1.50002 26.5 2.99998 0.5H58C58.3333 5.5 59.7 18.5 62.5 30.5C66 45.5 74.5 72 87 94C99.5 116 127.5 143 141 163C154.5 183 276.5 271.5 291.5 285C306.5 298.5 379 346 407 365C429.4 380.2 497.333 440 528.5 468L550.5 309.5C554.333 285.667 562.4 234.9 564 222.5C565.6 210.1 572 171.333 575 153.5L587.5 86.5H625.5V204.5C625 230.667 623.9 294.1 623.5 338.5C623 394 647 552.5 647 550C647 548 655.667 504.5 660 483C669.333 435.167 689.3 332.2 694.5 303C701 266.5 697 180 698 160C698.8 144 696.333 104.333 695 86.5H729.5C734.833 116 746.5 182.7 750.5 213.5C754.5 244.3 773.167 390.333 782 459.5L772.5 596H707L527.5 589.5L245.5 417.5C227.167 397.667 187.9 354.9 177.5 342.5C164.5 327 59.5 182.5 24.5 130.5Z" stroke="black" strokeOpacity="0.2" strokeWidth="0.5"/>
<defs>
<linearGradient id="paint0_linear_172_373" x1="391.174" y1="0.5" x2="391.174" y2="596" gradientUnits="userSpaceOnUse">
<stop stop-color="#783301"/>
<stop offset="1" stop-color="#3E1A01"/>
</linearGradient>
</defs>
</svg>
