<svg width="1275" height="2050" viewBox="0 0 1275 2050" fill="none" xmlns="http://www.w3.org/2000/svg">
    <path d="M110.5 441.5L9 261.5L0.5 159.5L4 96L9 45L15 1H68.5L79 62.5L83 121.5L91 186.5L100 250L143 316L229.5 433.5L326 526.5L491 628.5L637 688L736 730L863 777.5L973 850L1105.5 944.5L1043.5 769L1017.5 645V557V470.5H1092L1105.5 581L1137 682L1195 795.5L1275.5 897V934V2049.5H898.5L937.5 1709.5L971.5 1409L966 1257.5L958.5 1161L934.5 1032.5L863 934L779 879.5L637 811L510 751L336.5 636.5L222 557L110.5 441.5Z" fill="url(#paint0_linear_130_232)" stroke="black"/>
    <defs>
        <linearGradient id="paint0_linear_130_232" x1="794.5" y1="234" x2="1150" y2="1917" gradientUnits="userSpaceOnUse">
            <stop stop-color="#813600"/>
            <stop offset="0.9999" stop-color="#401B00"/>
            <stop offset="1" stop-color="#3E1A00"/>
        </linearGradient>
    </defs>
</svg>