<svg width="281" height="236" viewBox="0 0 281 236" fill="none" xmlns="http://www.w3.org/2000/svg">
<path d="M174.037 190.383C180.437 203.983 214.704 200.05 231.037 196.383L256.537 190.383L299.037 157.383C306.037 151.55 321.537 136.983 327.537 125.383C335.037 110.883 330.537 102.383 327.537 92.8834C324.537 83.3835 307.537 64.8833 303.037 58.8833C299.437 54.0833 285.871 30.55 279.537 19.3833C277.204 16.05 269.337 8.58332 256.537 5.38342C240.537 1.38353 231.037 4.88342 225.537 5.38342C220.037 5.88342 193.537 -0.616583 185.037 1.38342C176.537 3.38342 163.037 18.3834 160.037 22.8834C157.037 27.3834 140.537 43.8834 127.037 54.3834C116.237 62.7834 113.871 68.8834 114.037 70.8834C112.537 76.7168 109.637 89.2834 110.037 92.8834C110.537 97.3834 116.537 125.883 121.037 134.383C125.537 142.883 137.537 153.383 140.537 157.383C143.537 161.383 166.037 173.383 174.037 190.383Z" fill="url(#paint0_radial_0_1)" stroke="black"/>
<path d="M1.01071 211.479C0.610714 221.879 11.5107 226.145 17.0107 226.979C28.5107 230.479 105.011 237.979 115.011 238.979C125.011 239.979 173.011 239.979 192.011 235.479C211.011 230.979 205.511 200.479 209.011 190.979C212.511 181.479 207.511 173.979 205.511 170.979C203.511 167.979 199.011 154.979 200.511 148.479C202.011 141.979 197.011 132.479 195.511 128.479C194.011 124.479 195.511 119.479 197.011 113.479C198.511 107.479 189.511 100.979 182.511 98.9788C175.511 96.9788 151.011 92.4788 149.011 90.4788C147.011 88.4788 120.011 76.4788 111.511 79.4788C103.011 82.4788 79.5107 78.4788 67.0107 83.9788C57.0107 88.3788 53.5107 100.479 53.0107 105.979L39.0107 122.479V134.979L22.0107 154.979C22.6774 156.645 22.6107 162.179 17.0107 170.979C10.0107 181.979 1.51071 198.479 1.01071 211.479Z" fill="url(#paint1_radial_0_1)" stroke="black"/>
<path d="M162 235.5C192.5 235.5 254.5 234.5 261 234.5L357 235.5C356.667 227.167 355.8 210 355 208C354 205.5 352.5 202.5 348 199C343.5 195.5 337.5 190 336.5 185.5C335.5 181 335.5 176 334 169C332.5 162 332 156.5 329 151C326 145.5 318 147 316 145.5C314 144 304 137 303.5 134.5C303.1 132.5 284.333 111.667 275 101.5C269.5 100.667 257.6 99 254 99C249.5 99 243 103 240.5 105.5C238 108 233.5 111 229 115.5C225.4 119.1 224.167 122.333 224 123.5L217.5 128.5C215.667 130.5 211.7 135 210.5 137C209 139.5 205.5 144.5 204 147C202.5 149.5 193 157 189 159C185 161 162 164.5 159 169C156 173.5 153.5 178.5 153.5 179.5C153.5 180.5 146 189.5 143.5 192C141 194.5 133 202 133 205C133 208 139 216.5 139 221C139 224.6 152.333 231.667 162 235.5Z" fill="url(#paint2_linear_0_1)" stroke="black"/>
<path d="M77.5001 226.5C77.0001 231.5 81.5001 235 82.5001 236.5H242C244.5 236.5 249.7 234.8 250.5 228C251.5 219.5 245.5 214 242 210.5C238.5 207 234 206 230.5 200C227 194 226 191.5 223 188C220 184.5 203.5 186.5 194.5 184.5C185.5 182.5 175 173.5 170 165.5C165 157.5 154.5 159.5 149 159C143.5 158.5 127.5 166 122.5 168.5C117.5 171 108.5 180 105.5 179C102.5 178 91.5001 188 90.0001 191.5C88.5001 195 90.0001 201.5 85.5001 206C81.0001 210.5 78.0001 221.5 77.5001 226.5Z" fill="url(#paint3_linear_0_1)" stroke="black"/>
<defs>
<radialGradient id="paint0_radial_0_1" cx="0" cy="0" r="1" gradientUnits="userSpaceOnUse" gradientTransform="translate(168.037 45.3833) rotate(-7.19721) scale(147.663 121.016)">
<stop stop-color="#BDC1CC"/>
<stop offset="1" stop-color="#595A5F"/>
</radialGradient>
<radialGradient id="paint1_radial_0_1" cx="0" cy="0" r="1" gradientUnits="userSpaceOnUse" gradientTransform="translate(79.5107 101.479) rotate(71.822) scale(105.779 137.875)">
<stop stop-color="#BBC2CC"/>
<stop offset="1" stop-color="#5A5B60"/>
</radialGradient>
<linearGradient id="paint2_linear_0_1" x1="226.5" y1="121.5" x2="264.5" y2="231.5" gradientUnits="userSpaceOnUse">
<stop stop-color="#B7BEC7"/>
<stop offset="1" stop-color="#5A5C60"/>
</linearGradient>
<linearGradient id="paint3_linear_0_1" x1="152" y1="159" x2="164" y2="242" gradientUnits="userSpaceOnUse">
<stop stop-color="#B2B8C2"/>
<stop offset="1" stop-color="#595B60"/>
</linearGradient>
</defs>
</svg>
