<svg width="145" height="202" viewBox="0 0 145 202" fill="none" xmlns="http://www.w3.org/2000/svg">
<path d="M1.64275 4.61111C-2.35725 5.61111 -1.35725 6.61111 -2.85725 8.11111C-3.35724 9.94444 -4.75724 13.9111 -6.35725 15.1111C-8.35725 16.6111 -6.35725 19.1111 -4.35724 24.6111C-2.35723 30.1111 -4.35724 34.6111 -4.35724 38.1111C-4.35724 41.6111 -6.35725 45.1111 -8.35724 50.1111C-10.3572 55.1111 -9.85725 59.1111 -8.35724 74.1111C-7.15723 78.5111 -6.52391 78.9444 -6.35725 78.6111V88.6111C-6.35725 93.6111 -9.85725 99.6111 -16.3572 113.611C-22.8572 127.611 -18.8572 118.111 -23.3572 124.611C-27.8572 131.111 -25.3572 134.611 -24.8572 138.111C-24.3572 141.611 -20.3572 149.611 -18.8572 153.611C-17.3572 157.611 -14.3572 157.611 -9.85725 162.611C-6.25725 166.611 -6.02391 165.944 -6.35725 165.111L19.6428 167.611C39.4761 167.944 79.7428 168.411 82.1428 167.611C85.1428 166.611 104.643 154.611 104.643 153.611C104.643 152.811 105.976 142.944 106.643 138.111C106.476 137.278 105.843 134.811 104.643 131.611C103.143 127.611 103.643 128.611 100.643 123.111C97.6428 117.611 99.6428 121.111 94.6428 115.111C89.6428 109.111 92.6428 111.611 88.1428 103.611C83.6428 95.6111 86.6428 98.6111 84.1428 85.6111C81.6428 72.6111 86.6428 76.6111 88.1428 68.6111C89.6428 60.6111 87.1428 65.1111 82.1428 59.1111C77.1428 53.1111 77.5 57.5 74.5 53.5C72.4875 50.8167 74.1428 52.6111 67.6428 40.6111C61.1428 28.6111 65.1428 33.6111 64.1428 31.6111C63.1428 29.6111 61.6428 29.6111 57.1428 26.6111C52.6428 23.6111 55.1428 25.6111 45.6428 22.1111C36.1428 18.6111 41.1428 21.1111 31.6428 15.1111C24.6428 10.6111 28.6428 12.6111 17.1428 2.11111C15.1428 -0.388889 14.6428 2.11111 10.6428 2.11111C6.64275 2.11111 5.64275 3.61111 1.64275 4.61111Z" fill="url(#paint0_linear_0_1)" stroke="black"/>
<path d="M74.66 138C73.66 138 67.16 140.5 66.66 142C66.4933 142.667 65.96 144.1 65.16 144.5C64.16 145 62.66 145.5 58.16 147.5C53.66 149.5 53.16 152.5 50.16 156.5C47.16 160.5 48.16 161.5 48.16 166C48.16 170.5 49.16 173.5 49.66 174C50.06 174.4 57.16 175.833 60.66 176.5L78.66 177.5C83.8267 177.833 94.26 178.5 94.66 178.5H102.66H121.16C125.993 178.167 135.76 177.5 136.16 177.5C136.66 177.5 140.16 176 141.16 176C142.16 176 142.66 174 143.66 171.5C144.66 169 143.66 168 142.66 165C141.66 162 140.66 162 137.16 158C133.66 154 133.66 156 128.66 154C123.66 152 125.66 152 123.66 149C121.66 146 121.16 147 117.66 145.5C114.16 144 110.66 143.5 100.16 143.5C93.16 144 90.16 142 86.16 141C82.16 140 75.66 138 74.66 138Z" fill="url(#paint1_linear_0_1)" stroke="black"/>
<path d="M21.5 200C9 200 10.5 201.5 0.999998 200C-5.33333 200 -19.1 199 -23.5 195C-29 190 -28.5 192.5 -28.5 188.5C-28.5 184.5 -29 185 -28.5 174C-28 163 -25 164.5 -22.5 145.5C-26.5 140.5 -22.5 142 -25 137C-27.5 132 -25.5 131 -22.5 124.5C-20.1 119.3 -21.5 116.667 -22.5 116C-18.8333 107.333 -11.2 89.0001 -10 85.0001C-8.8 81.0001 -4.16667 81.6667 -2 82.5001C0.999998 83.6667 7.3 86.3001 8.5 87.5001C10 89.0001 13 92.0001 15.5 93.5001C18 95.0001 21.5 96.0001 25 98.0001C28.5 100 33.5 103.5 35.5 105.5C37.1 107.1 39.1667 108.167 40 108.5H57C59.8 108.5 62.1667 110.833 63 112C65 116.333 69.2 125.5 70 127.5C70.8 129.5 72.3333 132.333 73 133.5C73.8333 135 75.5 138.8 75.5 142V155.5C75.5 158.7 79.8333 162.833 82 164.5C82.1667 169.167 82.4 179.1 82 181.5C81.5 184.5 78 190.5 75.5 192.5C73 194.5 71.5 194.5 57 197C42.5 199.5 34 200 21.5 200Z" fill="url(#paint2_linear_0_1)" stroke="black"/>
<defs>
<linearGradient id="paint0_linear_0_1" x1="47.5" y1="37.5" x2="3" y2="113.5" gradientUnits="userSpaceOnUse">
<stop stop-color="#A2A2A2"/>
<stop offset="1" stop-color="#232323"/>
</linearGradient>
<linearGradient id="paint1_linear_0_1" x1="96.0371" y1="138" x2="96.0371" y2="178.5" gradientUnits="userSpaceOnUse">
<stop stop-color="#92949A"/>
<stop offset="1" stop-color="#3D3D3E"/>
</linearGradient>
<linearGradient id="paint2_linear_0_1" x1="22.5" y1="89.5" x2="-1" y2="197.5" gradientUnits="userSpaceOnUse">
<stop stop-color="#9DA0A7"/>
<stop offset="1" stop-color="#323232"/>
</linearGradient>
</defs>
</svg>
