<svg width="32" height="32" viewBox="0 0 32 32" fill="none" xmlns="http://www.w3.org/2000/svg">
<path d="M29.5889 17.2305V18.797H28.2261C27.067 18.797 26.1271 19.7368 26.1271 20.9116V21.3816C26.1271 22.5564 25.1872 23.4962 24.0124 23.4962C22.8533 23.4962 21.9134 22.5564 21.9134 21.3816V20.9116C21.9134 19.7368 20.9579 18.797 19.7987 18.797C18.6396 18.797 17.6997 19.7368 17.6997 20.9116V21.3816C17.6997 22.5564 16.7442 23.4962 15.585 23.4962C14.4259 23.4962 13.4704 22.5564 13.4704 21.3816V20.9116C13.4704 19.7368 12.5305 18.797 11.3713 18.797C10.2122 18.797 9.25665 19.7368 9.25665 20.9116V21.3816C9.25665 22.5564 8.31679 23.4962 7.15763 23.4962C5.98281 23.4962 5.04294 22.5564 5.04294 21.3816V20.8803C5.04294 19.7212 4.11876 18.7813 2.97527 18.7656H1.73779V17.2305C1.73779 15.0689 3.36688 13.2361 5.57554 12.7036C6.01414 12.5939 6.4684 12.5312 6.954 12.5312H24.3727C24.8583 12.5312 25.3126 12.5939 25.7512 12.7036C27.9598 13.2361 29.5889 15.0689 29.5889 17.2305Z" fill="#F5BBFF"/>
<path opacity="0.4" d="M25.7527 8.09812V12.7034C25.3141 12.5938 24.8598 12.5311 24.3742 12.5311H6.9556C6.47001 12.5311 6.01575 12.5938 5.57715 12.7034V8.09812C5.57715 6.21841 7.26889 4.69897 9.3679 4.69897H21.9619C24.0609 4.69897 25.7527 6.21841 25.7527 8.09812Z" fill="#73ABFF"/>
<path d="M10.5735 2.42736V4.71434H9.36737C8.9601 4.71434 8.58416 4.76133 8.22388 4.85532V2.42736C8.22388 1.87911 8.75646 1.40918 9.3987 1.40918C10.0409 1.40918 10.5735 1.87911 10.5735 2.42736Z" fill="#292D32"/>
<path d="M23.105 2.08351V4.85609C22.7447 4.74644 22.3688 4.69945 21.9615 4.69945H20.7554V2.08351C20.7554 1.44128 21.288 0.908691 21.9302 0.908691C22.5724 0.908691 23.105 1.44128 23.105 2.08351Z" fill="#292D32"/>
<path d="M16.8391 1.28447V4.69928H14.4895V1.28447C14.4895 0.579578 15.0221 0 15.6643 0C16.3066 0 16.8391 0.579578 16.8391 1.28447Z" fill="#292D32"/>
<path opacity="0.4" d="M30.1537 28.9787H29.5898V18.797H28.227C27.0679 18.797 26.128 19.7368 26.128 20.9116V21.3816C26.128 22.5564 25.1882 23.4962 24.0133 23.4962C22.8542 23.4962 21.9143 22.5564 21.9143 21.3816V20.9116C21.9143 19.7368 20.9588 18.797 19.7996 18.797C18.6405 18.797 17.7006 19.7368 17.7006 20.9116V21.3816C17.7006 22.5564 16.7451 23.4962 15.586 23.4962C14.4268 23.4962 13.4713 22.5564 13.4713 21.3816V20.9116C13.4713 19.7368 12.5314 18.797 11.3723 18.797C10.2131 18.797 9.25759 19.7368 9.25759 20.9116V21.3816C9.25759 22.5564 8.31773 23.4962 7.15857 23.4962C5.98375 23.4962 5.0439 22.5564 5.0439 21.3816V20.8803C5.0439 19.7211 4.1197 18.7813 2.97621 18.7656H1.73873V28.9787H1.17482C0.532585 28.9787 0 29.5113 0 30.1536C0 30.7958 0.532585 31.3284 1.17482 31.3284H1.73873H29.5898H30.1537C30.796 31.3284 31.3286 30.7958 31.3286 30.1536C31.3286 29.5113 30.796 28.9787 30.1537 28.9787Z" fill="#FCB500"/>
</svg>
