<svg width="30" height="30" viewBox="0 0 30 30" fill="none" xmlns="http://www.w3.org/2000/svg">
<path opacity="0.4" d="M10.7229 2.03931L24.9305 9.14311C31.304 12.3299 31.304 17.5415 24.9305 20.7283L10.7229 27.8321C1.1626 32.6122 -2.73785 28.6952 2.04228 19.1515L3.48627 16.2801C3.90122 15.4336 3.90122 14.4544 3.48627 13.6079L2.04228 10.7199C-2.73785 1.17623 1.1792 -2.74082 10.7229 2.03931Z" fill="#117BFF"/>
<path d="M19.5697 16.1808H10.6069C9.92638 16.1808 9.36206 15.6165 9.36206 14.936C9.36206 14.2555 9.92638 13.6912 10.6069 13.6912H19.5697C20.2502 13.6912 20.8145 14.2555 20.8145 14.936C20.8145 15.6165 20.2502 16.1808 19.5697 16.1808Z" fill="#117BFF"/>
</svg>
