<svg width="30" height="30" viewBox="0 0 30 30" fill="none" xmlns="http://www.w3.org/2000/svg">
<circle cx="14.5714" cy="14.5714" r="14.5714" fill="white"/>
<path fill-rule="evenodd" clip-rule="evenodd" d="M14.5714 0C6.52071 0 0 6.52071 0 14.5714C0 21.0193 4.17107 26.4653 9.96321 28.3961C10.6918 28.5236 10.965 28.0864 10.965 27.7039C10.965 27.3578 10.9468 26.2103 10.9468 24.99C7.28571 25.6639 6.33857 24.0975 6.04714 23.2778C5.88321 22.8589 5.17285 21.5657 4.55357 21.2196C4.04357 20.9464 3.315 20.2725 4.53535 20.2543C5.68285 20.2361 6.5025 21.3107 6.77571 21.7478C8.08714 23.9518 10.1818 23.3325 11.0196 22.95C11.1471 22.0028 11.5296 21.3653 11.9486 21.0011C8.70642 20.6368 5.31857 19.38 5.31857 13.8064C5.31857 12.2218 5.88321 10.9103 6.81214 9.89035C6.66642 9.52606 6.15642 8.03249 6.95785 6.02892C6.95785 6.02892 8.17821 5.64643 10.965 7.5225C12.1307 7.19464 13.3693 7.03071 14.6078 7.03071C15.8464 7.03071 17.085 7.19464 18.2507 7.5225C21.0375 5.62821 22.2578 6.02892 22.2578 6.02892C23.0593 8.03249 22.5493 9.52606 22.4036 9.89035C23.3325 10.9103 23.8971 12.2036 23.8971 13.8064C23.8971 19.3982 20.4911 20.6368 17.2489 21.0011C17.7771 21.4564 18.2325 22.3307 18.2325 23.6968C18.2325 25.6457 18.2143 27.2121 18.2143 27.7039C18.2143 28.0864 18.4875 28.5418 19.2161 28.3961C22.1088 27.4195 24.6224 25.5604 26.4031 23.0804C28.1839 20.6005 29.1421 17.6245 29.1428 14.5714C29.1428 6.52071 22.6221 0 14.5714 0Z" fill="#757575"/>
</svg>
