<svg width="30" height="35" viewBox="0 0 30 35" fill="none" xmlns="http://www.w3.org/2000/svg">
<path opacity="0.4" d="M29.0381 11.1175C27.2958 3.45139 20.6087 0 14.7347 0C14.7347 0 14.7347 0 14.7181 0C8.86074 0 2.15708 3.4348 0.414794 11.1009C-1.52661 19.663 3.71685 26.9142 8.46251 31.4773C10.2214 33.1698 12.478 34.0161 14.7347 34.0161C16.9914 34.0161 19.2481 33.1698 20.9904 31.4773C25.736 26.9142 30.9795 19.6796 29.0381 11.1175Z" fill="#026500"/>
<path d="M14.7354 19.4308C17.6221 19.4308 19.9623 17.0907 19.9623 14.204C19.9623 11.3172 17.6221 8.97705 14.7354 8.97705C11.8487 8.97705 9.50854 11.3172 9.50854 14.204C9.50854 17.0907 11.8487 19.4308 14.7354 19.4308Z" fill="#DB2525"/>
</svg>