<svg width="40" height="40" viewBox="0 0 40 40" fill="none" xmlns="http://www.w3.org/2000/svg">
<path d="M38.9335 19.8485C38.9065 23.5939 37.7713 27.2475 35.6708 30.3487C33.5703 33.4498 30.5987 35.8596 27.1305 37.2743C23.6624 38.6889 19.8531 39.045 16.1828 38.2977C12.5126 37.5505 9.14577 35.7332 6.50687 33.0752C3.86797 30.4171 2.07514 27.0372 1.35444 23.3617C0.633733 19.6861 1.01742 15.8794 2.45711 12.4216C3.89681 8.96385 6.32806 6.00972 9.44432 3.93173C12.5606 1.85375 16.2223 0.744942 19.9679 0.745117C22.4675 0.754145 24.9409 1.25543 27.2468 2.22035C29.5527 3.18527 31.646 4.59493 33.4071 6.36885C35.1683 8.14276 36.5627 10.2462 37.5109 12.559C38.4592 14.8719 38.9425 17.3488 38.9335 19.8485Z" fill="url(#paint0_radial_201_52)" stroke="#02797E" stroke-width="1.2163" stroke-linejoin="round"/>
<path opacity="0.1681" d="M12.6742 13.9575C15.9938 13.8528 17.3009 15.1062 19.0172 16.8073C19.4098 17.1958 19.8147 17.62 20.2569 18.0759L21.5268 16.7109C22.7095 15.3806 24.277 14.4515 26.0117 14.0525C28.6825 13.7619 30.3078 13.8845 31.9497 15.1737C32.8474 15.767 33.5943 16.5615 34.1311 17.494C34.6679 18.4266 34.9798 19.4714 35.042 20.5456C35.0523 22.0334 34.6361 23.493 33.8428 24.7516C33.0494 26.0102 31.9121 27.0152 30.5654 27.6476C28.8407 28.3132 26.9421 28.3787 25.1756 27.8335C23.1639 26.9987 21.4601 25.5614 20.2982 23.7192C17.9869 26.6696 15.9084 28.1999 13.0874 28.0649C2.82295 27.5773 3.66317 14.1875 12.6742 13.9506V13.9575ZM14.9566 24.9685C16.5499 23.9477 17.8941 22.5827 18.8905 20.974C17.8712 19.2619 15.8478 17.0842 14.1315 16.6572C13.3573 16.5349 12.5665 16.5665 11.8045 16.7501C11.0425 16.9338 10.3242 17.2659 9.69073 17.7275C9.03276 18.3747 8.58177 19.2028 8.39492 20.1066C8.20807 21.0105 8.29376 21.9495 8.64114 22.8046C9.25213 23.8701 10.2298 24.677 11.3917 25.0748C12.5537 25.4727 13.8207 25.4358 14.9566 24.9685ZM10.8519 20.1655L15.367 20.1724V21.839L10.845 21.8459L10.8519 20.1655ZM29.3753 25.1242C30.1546 24.7848 30.8407 24.2628 31.3755 23.6023C31.9104 22.9418 32.2784 22.1622 32.4483 21.3294C32.4587 20.4481 32.2243 19.5811 31.7713 18.8251C31.3182 18.069 30.6643 17.4535 29.8822 17.047C28.9346 16.5865 27.8661 16.4356 26.828 16.6155C25.7898 16.7955 24.8345 17.2972 24.0971 18.0498C23.1632 18.8883 22.393 19.893 21.8257 21.0126C22.5214 22.3053 23.4427 23.4631 24.5461 24.4313C25.2449 24.9075 26.0434 25.2174 26.8805 25.3372C27.7176 25.4571 28.571 25.3851 29.3753 25.1242ZM26.6825 21.8514L25.1839 21.8404V20.1641H26.6866V18.6779L28.2114 18.6669L28.2018 20.1724H29.6963V21.7771L28.2899 21.766V23.3087H26.6852L26.6825 21.8514Z" fill="black" stroke="black" stroke-width="0.129504"/>
<path d="M4.8727 20.4157C4.8727 27.7821 15.0022 30.5259 20.0063 23.0245C25.1923 30.8028 34.9155 27.5424 34.9155 20.4074C34.9155 13.2724 25.235 9.8358 20.0008 17.8041C15.0421 9.92671 4.86719 13.0479 4.86719 20.4212L4.8727 20.4157ZM7.53248 20.4157C7.53248 15.0989 15.0463 13.4212 18.5408 20.4157C14.976 27.1499 7.53248 25.7311 7.53248 20.4157ZM21.4705 20.4157C24.6193 13.2835 32.3369 15.249 32.3135 20.4267C32.2901 25.6044 24.527 27.2201 21.4705 20.4157Z" fill="white" stroke="black" stroke-width="0.259008"/>
<path d="M10.3564 19.6697H14.8151V21.1394H10.3564V19.6697Z" fill="white"/>
<path d="M26.5355 21.1166H25.0645V19.5546H26.5355V18.0835H28.0989V19.5546H29.57V21.1166H28.0989V22.5876H26.5355V21.1166Z" fill="white"/>
<defs>
<radialGradient id="paint0_radial_201_52" cx="0" cy="0" r="1" gradientUnits="userSpaceOnUse" gradientTransform="translate(18.1331 24.3366) scale(19.717 19.8615)">
<stop stop-color="#36BAC0"/>
<stop offset="1" stop-color="#2D9094"/>
</radialGradient>
</defs>
</svg>
