<svg width="35" height="40" viewBox="0 0 35 40" fill="none" xmlns="http://www.w3.org/2000/svg">
<path d="M3.13346 35.1587L0 0H34.443L31.3053 35.1531L17.2006 39.0636L3.13346 35.1587Z" fill="#1572B6"/>
<path d="M17.2214 36.0754L28.6196 32.9154L31.3011 2.87549H17.2214V36.0754Z" fill="#33A9DC"/>
<path d="M17.2214 15.6129H22.9275L23.3209 11.1974H17.2214V6.88501H17.2368H28.0337L27.9305 8.04157L26.8716 19.9253H17.2214V15.6129Z" fill="white"/>
<path d="M17.2481 26.8115L17.2286 26.817L12.4265 25.5196L12.1196 22.0806H9.78556H7.79053L8.39462 28.8511L17.2272 31.3038L17.2481 31.2982V26.8115Z" fill="#EBEBEB"/>
<path d="M22.5607 19.7424L22.0417 25.5169L17.2327 26.8143V31.3011L26.0722 28.8512L26.1378 28.123L26.887 19.7424H22.5607Z" fill="white"/>
<path d="M17.2368 6.88501V9.56366V11.1862V11.1974H6.83473H6.82078L6.73428 10.2277L6.53757 8.04157L6.43433 6.88501H17.2368Z" fill="#EBEBEB"/>
<path d="M17.2213 15.613V18.2917V19.9142V19.9254H12.4932H12.4793L12.3928 18.9558L12.1975 16.7696L12.0942 15.613H17.2213Z" fill="#EBEBEB"/>
</svg>
