<svg width="35" height="40" viewBox="0 0 35 40" fill="none" xmlns="http://www.w3.org/2000/svg">
<path d="M3.1346 35.1558L0 0H34.443L31.3042 35.1502L17.2006 39.0605L3.1346 35.1558Z" fill="#E44F26"/>
<path d="M17.2214 36.0725L28.6187 32.9128L31.2999 2.87524H17.2214V36.0725Z" fill="#F1662A"/>
<path d="M17.2215 15.9128H11.5159L11.1225 11.4975H17.2215V7.18555H17.2062H6.41016L6.51339 8.34341L7.57221 20.2248H17.2215V15.9128Z" fill="#EBEBEB"/>
<path d="M17.2215 27.1107L17.2019 27.1163L12.4003 25.8203L12.0934 22.3816H9.75952H7.76465L8.36869 29.1502L17.2019 31.6027L17.2215 31.5971V27.1107Z" fill="#EBEBEB"/>
<path d="M17.2061 15.9128V20.2248H22.5155L22.0161 25.8175L17.2061 27.1148V31.6012L26.0463 29.1502L26.1104 28.422L27.1232 17.0707L27.2293 15.9128H26.0672H17.2061Z" fill="white"/>
<path d="M17.2061 7.18555V9.86398V11.4878V11.4975H27.6073H27.6213L27.7077 10.5294L27.9044 8.34341L28.0077 7.18555H17.2061Z" fill="white"/>
</svg>
