<svg width="35" height="39" viewBox="0 0 35 39" fill="none" xmlns="http://www.w3.org/2000/svg">
<path d="M17.9551 38.3886C17.4372 38.3888 16.9284 38.2526 16.4798 37.9938L11.7854 35.2147C11.0848 34.8225 11.4262 34.6841 11.6579 34.6032C12.403 34.373 13.1165 34.0506 13.7816 33.6435C13.8373 33.6177 13.8986 33.6066 13.9598 33.6111C14.021 33.6157 14.08 33.6358 14.1312 33.6695L17.7385 35.8124C17.8056 35.848 17.8805 35.8666 17.9565 35.8666C18.0324 35.8666 18.1073 35.848 18.1744 35.8124L32.2413 27.6931C32.3072 27.6537 32.3616 27.5978 32.3993 27.531C32.4371 27.4642 32.4568 27.3887 32.4566 27.312V11.0706C32.4566 10.9927 32.4366 10.916 32.3984 10.8481C32.3602 10.7801 32.3052 10.7231 32.2386 10.6826L18.1717 2.57017C18.1054 2.53281 18.0305 2.51318 17.9544 2.51318C17.8783 2.51318 17.8034 2.53281 17.7371 2.57017L3.67843 10.6854C3.61137 10.725 3.55569 10.7813 3.51677 10.8488C3.47786 10.9163 3.45704 10.9927 3.45632 11.0706V27.3051C3.45651 27.3817 3.47705 27.4568 3.51584 27.5228C3.55463 27.5888 3.61027 27.6434 3.67706 27.6808L7.53517 29.9074C9.62601 30.9521 10.9066 29.7209 10.9066 28.4842V12.4554C10.9066 12.4014 10.9172 12.3479 10.9379 12.298C10.9585 12.2481 10.9888 12.2027 11.027 12.1645C11.0652 12.1263 11.1106 12.096 11.1605 12.0754C11.2104 12.0547 11.2639 12.0441 11.3179 12.0441H13.1002C13.2093 12.0441 13.3139 12.0874 13.3911 12.1645C13.4682 12.2417 13.5115 12.3463 13.5115 12.4554V28.4856C13.5115 31.2757 11.9924 32.8729 9.34631 32.8729C8.20475 32.8928 7.08109 32.5875 6.10654 31.9927L2.40884 29.8717C1.95995 29.6103 1.58748 29.2357 1.32861 28.7854C1.06975 28.335 0.933544 27.8246 0.933604 27.3051V11.0706C0.932269 10.5504 1.06789 10.0389 1.32685 9.58765C1.58581 9.1364 1.95897 8.76126 2.40884 8.49992L16.4771 0.377874C16.9303 0.129946 17.4385 0 17.9551 0C18.4716 0 18.9799 0.129946 19.4331 0.377874L33.5 8.49992C33.9488 8.76082 34.3214 9.13488 34.5805 9.58476C34.8396 10.0346 34.9761 10.5446 34.9766 11.0638V27.3051C34.9758 27.8246 34.8391 28.3348 34.5801 28.7851C34.321 29.2353 33.9486 29.61 33.5 29.8717L19.4331 37.9938C18.9837 38.253 18.4739 38.3892 17.9551 38.3886Z" fill="#83CD29"/>
<path d="M15.2869 21.8717C15.2869 21.7626 15.3302 21.658 15.4073 21.5809C15.4845 21.5037 15.5891 21.4604 15.6982 21.4604H17.5175C17.6148 21.4607 17.7087 21.4954 17.7828 21.5584C17.8568 21.6214 17.9061 21.7086 17.922 21.8045C18.1962 23.6568 19.0188 24.5905 22.7385 24.5905C25.7013 24.5905 26.964 23.92 26.964 22.3475C26.964 21.4412 26.6062 20.768 22.0009 20.3169C18.151 19.9358 15.7708 19.083 15.7708 16.0064C15.7708 13.1683 18.1633 11.4751 22.1736 11.4751C26.6802 11.4751 28.9109 13.0395 29.1933 16.3958C29.1977 16.4518 29.1904 16.5081 29.1721 16.5613C29.1538 16.6144 29.1248 16.6632 29.0869 16.7047C29.049 16.7462 29.003 16.7795 28.9518 16.8025C28.9005 16.8256 28.8451 16.8378 28.7889 16.8386H26.9572C26.8653 16.8373 26.7765 16.8053 26.7049 16.7477C26.6333 16.69 26.5831 16.61 26.5623 16.5205C26.1249 14.5723 25.0542 13.9498 22.175 13.9498C18.9393 13.9498 18.5637 15.0768 18.5637 15.9214C18.5637 16.9442 19.0079 17.2431 23.376 17.8203C27.6989 18.392 29.7527 19.2009 29.7527 22.2391C29.7527 25.3048 27.1971 27.0597 22.7398 27.0597C16.577 27.068 15.2869 24.2422 15.2869 21.8717Z" fill="#83CD29"/>
</svg>
