<svg width="34" height="34" viewBox="0 0 34 34" fill="none" xmlns="http://www.w3.org/2000/svg">
<path d="M16.8604 0.0145713C8.23895 0.0145713 8.78416 3.74244 8.78416 3.74244V7.61602H16.983V8.8303H5.51894C5.51894 8.8303 0 8.1503 0 16.8993C0 25.6482 4.87294 25.2924 4.87294 25.2924H7.68645V21.2112C7.68645 21.2112 7.52859 16.3382 12.4222 16.3382H20.6332C20.6332 16.3382 25.2135 16.4111 25.2135 11.9037V4.50744C25.2135 4.50744 25.9081 0 16.9053 0L16.8604 0.0145713ZM12.3287 2.60951C12.6201 2.60215 12.9073 2.6814 13.1537 2.83723C13.4001 2.99305 13.5948 3.21846 13.7132 3.48494C13.8315 3.75143 13.8681 4.04701 13.8184 4.33432C13.7688 4.62163 13.635 4.88775 13.4341 5.09904C13.2332 5.31033 12.9741 5.45729 12.6896 5.52133C12.4052 5.58537 12.1081 5.56362 11.8361 5.45884C11.564 5.35405 11.3291 5.17092 11.161 4.93263C10.993 4.69433 10.8995 4.41156 10.8922 4.12008V4.09579C10.8922 3.70483 11.0475 3.32987 11.3239 3.05342C11.6004 2.77696 11.9753 2.62165 12.3663 2.62165L12.3287 2.60951Z" fill="url(#paint0_linear_201_24)"/>
<path d="M17.103 33.7842C25.7245 33.7842 25.1792 30.0442 25.1792 30.0442V26.1828H16.9816V24.9685H28.4809C28.4809 24.9685 33.9998 25.5853 33.9998 16.8874C33.9998 8.18944 29.1269 8.49423 29.1269 8.49423H26.277V12.522C26.277 12.522 26.4348 17.395 21.5412 17.395H13.3266C13.3266 17.395 8.74264 17.3257 8.74264 21.8332V29.2792C8.74264 29.2792 8.04806 33.7866 17.0508 33.7866H17.0994L17.103 33.7842ZM21.6347 31.1771C21.3433 31.1845 21.0561 31.1052 20.8097 30.9494C20.5633 30.7936 20.3686 30.5682 20.2503 30.3017C20.1319 30.0352 20.0953 29.7396 20.145 29.4523C20.1946 29.165 20.3284 28.8989 20.5293 28.6876C20.7302 28.4763 20.9893 28.3294 21.2738 28.2653C21.5582 28.2013 21.8553 28.223 22.1274 28.3278C22.3994 28.4326 22.6343 28.6157 22.8024 28.854C22.9704 29.0923 23.0639 29.3751 23.0712 29.6666V29.703C23.0712 30.094 22.9159 30.4689 22.6395 30.7454C22.363 31.0218 21.9881 31.1771 21.5971 31.1771H21.6347Z" fill="url(#paint1_linear_201_24)"/>
<defs>
<linearGradient id="paint0_linear_201_24" x1="3.36013" y1="3.32096" x2="19.494" y2="19.4183" gradientUnits="userSpaceOnUse">
<stop stop-color="#387EB8"/>
<stop offset="1" stop-color="#366994"/>
</linearGradient>
<linearGradient id="paint1_linear_201_24" x1="12.9046" y1="13.8074" x2="31.3377" y2="29.8999" gradientUnits="userSpaceOnUse">
<stop stop-color="#FFE052"/>
<stop offset="1" stop-color="#FFC331"/>
</linearGradient>
</defs>
</svg>
